<svg width="1120" height="630" viewBox="0 0 1120 630" fill="none" xmlns="http://www.w3.org/2000/svg">
<g clip-path="url(#clip0_2_335)">
<rect width="1120" height="630" fill="#171717"/>
<g opacity="0.2" clip-path="url(#clip1_2_335)" filter="url(#filter0_f_2_335)">
<line x1="-79.5" y1="157.25" x2="1199.5" y2="157.25" stroke="white" stroke-width="0.5"/>
<line x1="-79.5" y1="314.75" x2="1199.5" y2="314.75" stroke="white" stroke-width="0.5"/>
<line x1="-79.5" y1="472.25" x2="1199.5" y2="472.25" stroke="white" stroke-width="0.5"/>
<line x1="-79.5" y1="629.75" x2="1199.5" y2="629.75" stroke="white" stroke-width="0.5"/>
<line x1="80.125" y1="630" x2="80.125" stroke="white" stroke-width="0.5"/>
<line x1="240" y1="630" x2="240" stroke="white" stroke-width="0.5"/>
<line x1="399.875" y1="630" x2="399.875" stroke="white" stroke-width="0.5"/>
<line x1="559.75" y1="630" x2="559.75" stroke="white" stroke-width="0.5"/>
<line x1="719.625" y1="630" x2="719.625" stroke="white" stroke-width="0.5"/>
<line x1="879.5" y1="630" x2="879.5" stroke="white" stroke-width="0.5"/>
<line x1="1039.38" y1="630" x2="1039.38" stroke="white" stroke-width="0.5"/>
</g>
<g filter="url(#filter1_f_2_335)">
<rect x="240.75" width="638.5" height="362" fill="#171717"/>
</g>
<g filter="url(#filter2_f_2_335)">
<rect x="1200" y="630" width="1200" height="630" transform="rotate(180 1200 630)" fill="url(#paint0_radial_2_335)"/>
</g>
<g filter="url(#filter3_f_2_335)">
<rect width="1200" height="630" fill="#171717" fill-opacity="0.01"/>
</g>
<g filter="url(#filter4_f_2_335)">
<rect x="1200" y="630" width="1200" height="630" transform="rotate(180 1200 630)" fill="url(#paint1_radial_2_335)"/>
</g>
<path d="M237.582 287L215.196 229.6H224.708L247.668 287H237.582ZM191.744 287L214.622 229.6H224.216L201.83 287H191.744ZM202.486 272.896V264.45H236.844V272.896H202.486ZM268.368 287V229.6H287.31C291.246 229.6 294.635 230.201 297.478 231.404C300.375 232.607 302.616 234.411 304.202 236.816C305.787 239.167 306.58 242.119 306.58 245.672C306.58 248.132 305.978 250.346 304.776 252.314C303.628 254.282 301.988 255.922 299.856 257.234C302.644 258.601 304.776 260.432 306.252 262.728C307.728 265.024 308.466 267.757 308.466 270.928C308.466 274.317 307.7 277.215 306.17 279.62C304.639 282.025 302.48 283.857 299.692 285.114C296.904 286.371 293.596 287 289.77 287H268.368ZM277.716 278.472H289.032C292.038 278.472 294.416 277.734 296.166 276.258C297.915 274.782 298.79 272.787 298.79 270.272C298.79 267.539 297.806 265.407 295.838 263.876C293.924 262.345 291.218 261.58 287.72 261.58H277.716V278.472ZM277.716 253.708H288.13C290.863 253.708 292.995 252.997 294.526 251.576C296.111 250.1 296.904 248.077 296.904 245.508C296.904 242.884 296.002 240.889 294.198 239.522C292.448 238.101 289.988 237.39 286.818 237.39H277.716V253.708ZM331.861 287.984C327.87 287.984 324.317 287.082 321.201 285.278C318.139 283.419 315.707 280.877 313.903 277.652C312.153 274.427 311.279 270.709 311.279 266.5C311.279 262.291 312.181 258.573 313.985 255.348C315.789 252.123 318.249 249.608 321.365 247.804C324.535 245.945 328.143 245.016 332.189 245.016C335.851 245.016 339.159 245.973 342.111 247.886C345.063 249.745 347.386 252.451 349.081 256.004C350.83 259.557 351.705 263.794 351.705 268.714H319.479L320.709 267.566C320.709 270.081 321.255 272.267 322.349 274.126C323.442 275.93 324.891 277.324 326.695 278.308C328.499 279.292 330.494 279.784 332.681 279.784C335.195 279.784 337.273 279.237 338.913 278.144C340.553 276.996 341.837 275.52 342.767 273.716L350.885 277.16C349.737 279.347 348.261 281.26 346.457 282.9C344.707 284.54 342.603 285.797 340.143 286.672C337.737 287.547 334.977 287.984 331.861 287.984ZM321.283 262.81L319.971 261.662H343.095L341.865 262.81C341.865 260.569 341.373 258.737 340.389 257.316C339.405 255.84 338.147 254.747 336.617 254.036C335.141 253.271 333.583 252.888 331.943 252.888C330.303 252.888 328.663 253.271 327.023 254.036C325.383 254.747 324.016 255.84 322.923 257.316C321.829 258.737 321.283 260.569 321.283 262.81ZM373.089 304.466C370.191 304.466 367.567 304.22 365.217 303.728C362.921 303.236 360.98 302.662 359.395 302.006C357.809 301.35 356.579 300.721 355.705 300.12L359.231 292.74C359.996 293.123 361.007 293.587 362.265 294.134C363.577 294.735 365.107 295.255 366.857 295.692C368.606 296.129 370.574 296.348 372.761 296.348C375.111 296.348 377.216 295.856 379.075 294.872C380.933 293.943 382.382 292.494 383.421 290.526C384.459 288.558 384.979 286.043 384.979 282.982V246H394.163V282.736C394.163 287.383 393.288 291.319 391.539 294.544C389.789 297.824 387.329 300.284 384.159 301.924C380.988 303.619 377.298 304.466 373.089 304.466ZM371.695 286.18C367.977 286.18 364.725 285.333 361.937 283.638C359.203 281.943 357.044 279.593 355.459 276.586C353.928 273.525 353.163 269.999 353.163 266.008C353.163 261.744 353.928 258.054 355.459 254.938C357.044 251.822 359.203 249.389 361.937 247.64C364.725 245.891 367.977 245.016 371.695 245.016C375.029 245.016 377.927 245.891 380.387 247.64C382.901 249.389 384.842 251.849 386.209 255.02C387.575 258.136 388.259 261.826 388.259 266.09C388.259 270.135 387.575 273.661 386.209 276.668C384.842 279.675 382.901 282.025 380.387 283.72C377.927 285.36 375.029 286.18 371.695 286.18ZM374.237 278.39C376.314 278.39 378.118 277.843 379.649 276.75C381.234 275.657 382.464 274.181 383.339 272.322C384.213 270.409 384.651 268.222 384.651 265.762C384.651 263.247 384.213 261.061 383.339 259.202C382.464 257.289 381.234 255.813 379.649 254.774C378.063 253.681 376.232 253.134 374.155 253.134C371.968 253.134 370.027 253.681 368.333 254.774C366.693 255.813 365.381 257.289 364.397 259.202C363.467 261.061 363.003 263.247 363.003 265.762C363.003 268.222 363.467 270.409 364.397 272.322C365.381 274.181 366.72 275.657 368.415 276.75C370.109 277.843 372.05 278.39 374.237 278.39ZM401.6 287V246H410.702V287H401.6ZM406.192 238.21C404.716 238.21 403.432 237.691 402.338 236.652C401.3 235.559 400.78 234.274 400.78 232.798C400.78 231.322 401.3 230.065 402.338 229.026C403.432 227.987 404.716 227.468 406.192 227.468C407.668 227.468 408.926 227.987 409.964 229.026C411.058 230.065 411.604 231.322 411.604 232.798C411.604 234.274 411.058 235.559 409.964 236.652C408.926 237.691 407.668 238.21 406.192 238.21ZM418.246 287V246H426.856L427.43 253.544V287H418.246ZM446.044 287V266.008H455.228V287H446.044ZM446.044 266.008C446.044 262.728 445.662 260.213 444.896 258.464C444.186 256.66 443.147 255.403 441.78 254.692C440.468 253.981 438.91 253.626 437.106 253.626C434.045 253.571 431.667 254.583 429.972 256.66C428.278 258.737 427.43 261.717 427.43 265.598H423.986C423.986 261.279 424.615 257.589 425.872 254.528C427.13 251.412 428.934 249.061 431.284 247.476C433.635 245.836 436.423 245.016 439.648 245.016C442.928 245.016 445.716 245.672 448.012 246.984C450.363 248.296 452.14 250.346 453.342 253.134C454.6 255.867 455.228 259.448 455.228 263.876V266.008H446.044ZM461.252 287V246H469.862L470.436 253.544V287H461.252ZM489.05 287V266.008H498.234V287H489.05ZM489.05 266.008C489.05 262.728 488.667 260.213 487.902 258.464C487.191 256.66 486.152 255.403 484.786 254.692C483.474 253.981 481.916 253.626 480.112 253.626C477.05 253.571 474.672 254.583 472.978 256.66C471.283 258.737 470.436 261.717 470.436 265.598H466.992C466.992 261.279 467.62 257.589 468.878 254.528C470.135 251.412 471.939 249.061 474.29 247.476C476.64 245.836 479.428 245.016 482.654 245.016C485.934 245.016 488.722 245.672 491.018 246.984C493.368 248.296 495.145 250.346 496.348 253.134C497.605 255.867 498.234 259.448 498.234 263.876V266.008H489.05ZM522.543 287.984C518.552 287.984 514.999 287.082 511.883 285.278C508.821 283.419 506.389 280.877 504.585 277.652C502.835 274.427 501.961 270.709 501.961 266.5C501.961 262.291 502.863 258.573 504.667 255.348C506.471 252.123 508.931 249.608 512.047 247.804C515.217 245.945 518.825 245.016 522.871 245.016C526.533 245.016 529.841 245.973 532.793 247.886C535.745 249.745 538.068 252.451 539.763 256.004C541.512 259.557 542.387 263.794 542.387 268.714H510.161L511.391 267.566C511.391 270.081 511.937 272.267 513.031 274.126C514.124 275.93 515.573 277.324 517.377 278.308C519.181 279.292 521.176 279.784 523.363 279.784C525.877 279.784 527.955 279.237 529.595 278.144C531.235 276.996 532.519 275.52 533.449 273.716L541.567 277.16C540.419 279.347 538.943 281.26 537.139 282.9C535.389 284.54 533.285 285.797 530.825 286.672C528.419 287.547 525.659 287.984 522.543 287.984ZM511.965 262.81L510.653 261.662H533.777L532.547 262.81C532.547 260.569 532.055 258.737 531.071 257.316C530.087 255.84 528.829 254.747 527.299 254.036C525.823 253.271 524.265 252.888 522.625 252.888C520.985 252.888 519.345 253.271 517.705 254.036C516.065 254.747 514.698 255.84 513.605 257.316C512.511 258.737 511.965 260.569 511.965 262.81ZM552.209 265.188C552.209 260.76 553.056 257.125 554.751 254.282C556.445 251.439 558.632 249.335 561.311 247.968C564.044 246.547 566.887 245.836 569.839 245.836V254.61C567.324 254.61 564.946 254.965 562.705 255.676C560.518 256.332 558.741 257.425 557.375 258.956C556.008 260.487 555.325 262.509 555.325 265.024L552.209 265.188ZM546.141 287V246H555.325V287H546.141ZM573.388 248.542L572.486 228.288H581.26L580.358 248.542H573.388ZM602.872 287.984C600.139 287.984 597.624 287.574 595.328 286.754C593.032 285.934 591.064 284.786 589.424 283.31C587.784 281.779 586.527 280.003 585.652 277.98L593.606 274.454C594.426 275.985 595.629 277.269 597.214 278.308C598.854 279.347 600.658 279.866 602.626 279.866C604.758 279.866 606.453 279.511 607.71 278.8C609.022 278.035 609.678 276.996 609.678 275.684C609.678 274.427 609.186 273.47 608.202 272.814C607.218 272.103 605.824 271.529 604.02 271.092L600.166 270.026C596.285 269.042 593.251 267.484 591.064 265.352C588.877 263.165 587.784 260.678 587.784 257.89C587.784 253.79 589.096 250.619 591.72 248.378C594.399 246.137 598.225 245.016 603.2 245.016C605.715 245.016 608.011 245.399 610.088 246.164C612.22 246.875 614.051 247.913 615.582 249.28C617.113 250.592 618.179 252.15 618.78 253.954L611.154 257.398C610.607 256.031 609.569 254.993 608.038 254.282C606.507 253.517 604.813 253.134 602.954 253.134C601.095 253.134 599.647 253.544 598.608 254.364C597.569 255.129 597.05 256.223 597.05 257.644C597.05 258.464 597.515 259.229 598.444 259.94C599.373 260.596 600.713 261.143 602.462 261.58L607.3 262.728C609.979 263.384 612.165 264.423 613.86 265.844C615.555 267.211 616.812 268.769 617.632 270.518C618.452 272.213 618.862 273.935 618.862 275.684C618.862 278.144 618.151 280.303 616.73 282.162C615.363 284.021 613.477 285.469 611.072 286.508C608.667 287.492 605.933 287.984 602.872 287.984ZM667.408 287.984C661.614 287.984 656.448 286.727 651.91 284.212C647.428 281.643 643.902 278.144 641.332 273.716C638.763 269.233 637.478 264.122 637.478 258.382C637.478 252.533 638.763 247.394 641.332 242.966C643.902 238.483 647.428 234.985 651.91 232.47C656.448 229.901 661.614 228.616 667.408 228.616C670.743 228.616 673.859 229.135 676.756 230.174C679.708 231.213 682.36 232.634 684.71 234.438C687.061 236.187 688.974 238.237 690.45 240.588L682.742 245.508C681.704 243.923 680.364 242.501 678.724 241.244C677.084 239.987 675.28 239.03 673.312 238.374C671.399 237.663 669.431 237.308 667.408 237.308C663.472 237.308 659.974 238.21 656.912 240.014C653.906 241.818 651.528 244.305 649.778 247.476C648.029 250.592 647.154 254.227 647.154 258.382C647.154 262.427 648.002 266.035 649.696 269.206C651.446 272.377 653.851 274.864 656.912 276.668C660.028 278.472 663.609 279.374 667.654 279.374C670.825 279.374 673.668 278.718 676.182 277.406C678.697 276.094 680.665 274.263 682.086 271.912C683.562 269.561 684.3 266.855 684.3 263.794L693.402 262.646C693.402 267.839 692.282 272.349 690.04 276.176C687.854 279.948 684.792 282.873 680.856 284.95C676.975 286.973 672.492 287.984 667.408 287.984ZM670.524 264.532V256.824H693.402V263.22L688.318 264.532H670.524ZM725.054 287L724.562 279.456V246H733.664V287H725.054ZM696.682 266.992V246H705.866V266.992H696.682ZM705.866 266.992C705.866 270.217 706.249 272.732 707.014 274.536C707.78 276.34 708.818 277.597 710.13 278.308C711.497 279.019 713.055 279.374 714.804 279.374C717.92 279.429 720.326 278.417 722.02 276.34C723.715 274.263 724.562 271.283 724.562 267.402H728.006C728.006 271.721 727.35 275.438 726.038 278.554C724.781 281.615 722.977 283.966 720.626 285.606C718.33 287.191 715.542 287.984 712.262 287.984C709.037 287.984 706.249 287.328 703.898 286.016C701.602 284.704 699.826 282.654 698.568 279.866C697.311 277.078 696.682 273.497 696.682 269.124V266.992H705.866ZM741.164 287V246H750.266V287H741.164ZM745.756 238.21C744.28 238.21 742.995 237.691 741.902 236.652C740.863 235.559 740.344 234.274 740.344 232.798C740.344 231.322 740.863 230.065 741.902 229.026C742.995 227.987 744.28 227.468 745.756 227.468C747.232 227.468 748.489 227.987 749.528 229.026C750.621 230.065 751.168 231.322 751.168 232.798C751.168 234.274 750.621 235.559 749.528 236.652C748.489 237.691 747.232 238.21 745.756 238.21ZM787.412 287L787.002 279.374V229.6H796.104V287H787.412ZM774.046 287.984C770.328 287.984 767.076 287.109 764.288 285.36C761.554 283.556 759.395 281.041 757.81 277.816C756.279 274.591 755.514 270.819 755.514 266.5C755.514 262.127 756.279 258.355 757.81 255.184C759.395 251.959 761.554 249.471 764.288 247.722C767.076 245.918 770.328 245.016 774.046 245.016C777.49 245.016 780.442 245.918 782.902 247.722C785.416 249.471 787.33 251.959 788.642 255.184C789.954 258.355 790.61 262.127 790.61 266.5C790.61 270.819 789.954 274.591 788.642 277.816C787.33 281.041 785.416 283.556 782.902 285.36C780.442 287.109 777.49 287.984 774.046 287.984ZM776.342 279.62C778.419 279.62 780.25 279.073 781.836 277.98C783.476 276.832 784.733 275.274 785.608 273.306C786.537 271.338 787.002 269.069 787.002 266.5C787.002 263.931 786.537 261.662 785.608 259.694C784.733 257.726 783.476 256.195 781.836 255.102C780.25 254.009 778.392 253.462 776.26 253.462C774.073 253.462 772.132 254.009 770.438 255.102C768.743 256.195 767.404 257.726 766.42 259.694C765.49 261.662 764.998 263.931 764.944 266.5C764.998 269.069 765.49 271.338 766.42 273.306C767.404 275.274 768.743 276.832 770.438 277.98C772.187 279.073 774.155 279.62 776.342 279.62ZM821.263 287.984C817.272 287.984 813.719 287.082 810.603 285.278C807.542 283.419 805.109 280.877 803.305 277.652C801.556 274.427 800.681 270.709 800.681 266.5C800.681 262.291 801.583 258.573 803.387 255.348C805.191 252.123 807.651 249.608 810.767 247.804C813.938 245.945 817.546 245.016 821.591 245.016C825.254 245.016 828.561 245.973 831.513 247.886C834.465 249.745 836.788 252.451 838.483 256.004C840.232 259.557 841.107 263.794 841.107 268.714H808.881L810.111 267.566C810.111 270.081 810.658 272.267 811.751 274.126C812.844 275.93 814.293 277.324 816.097 278.308C817.901 279.292 819.896 279.784 822.083 279.784C824.598 279.784 826.675 279.237 828.315 278.144C829.955 276.996 831.24 275.52 832.169 273.716L840.287 277.16C839.139 279.347 837.663 281.26 835.859 282.9C834.11 284.54 832.005 285.797 829.545 286.672C827.14 287.547 824.379 287.984 821.263 287.984ZM810.685 262.81L809.373 261.662H832.497L831.267 262.81C831.267 260.569 830.775 258.737 829.791 257.316C828.807 255.84 827.55 254.747 826.019 254.036C824.543 253.271 822.985 252.888 821.345 252.888C819.705 252.888 818.065 253.271 816.425 254.036C814.785 254.747 813.418 255.84 812.325 257.316C811.232 258.737 810.685 260.569 810.685 262.81ZM877.678 287.984C873.36 287.984 870.052 286.918 867.756 284.786C865.515 282.599 864.394 279.483 864.394 275.438V233.208H873.496V273.716C873.496 275.629 873.934 277.078 874.808 278.062C875.738 279.046 877.077 279.538 878.826 279.538C879.373 279.538 879.974 279.429 880.63 279.21C881.286 278.991 882.024 278.581 882.844 277.98L886.206 284.95C884.785 285.934 883.364 286.672 881.942 287.164C880.521 287.711 879.1 287.984 877.678 287.984ZM857.588 253.872V246H884.566V253.872H857.588ZM908.571 287.984C904.471 287.984 900.808 287.082 897.583 285.278C894.412 283.419 891.925 280.877 890.121 277.652C888.317 274.427 887.415 270.709 887.415 266.5C887.415 262.291 888.29 258.573 890.039 255.348C891.843 252.123 894.33 249.608 897.501 247.804C900.672 245.945 904.307 245.016 908.407 245.016C912.507 245.016 916.142 245.945 919.313 247.804C922.484 249.608 924.944 252.123 926.693 255.348C928.497 258.573 929.399 262.291 929.399 266.5C929.399 270.709 928.524 274.427 926.775 277.652C925.026 280.877 922.566 283.419 919.395 285.278C916.224 287.082 912.616 287.984 908.571 287.984ZM908.571 279.538C910.812 279.538 912.808 278.991 914.557 277.898C916.306 276.75 917.673 275.219 918.657 273.306C919.641 271.338 920.133 269.069 920.133 266.5C920.133 263.931 919.614 261.689 918.575 259.776C917.591 257.808 916.224 256.277 914.475 255.184C912.726 254.036 910.703 253.462 908.407 253.462C906.111 253.462 904.088 254.009 902.339 255.102C900.59 256.195 899.223 257.726 898.239 259.694C897.255 261.662 896.763 263.931 896.763 266.5C896.763 269.069 897.255 271.338 898.239 273.306C899.278 275.219 900.672 276.75 902.421 277.898C904.225 278.991 906.275 279.538 908.571 279.538ZM146.918 369V311.6H167.172C171.108 311.6 174.579 312.365 177.586 313.896C180.593 315.427 182.943 317.559 184.638 320.292C186.333 322.971 187.18 326.087 187.18 329.64C187.18 333.193 186.278 336.337 184.474 339.07C182.725 341.803 180.292 343.963 177.176 345.548C174.06 347.079 170.534 347.844 166.598 347.844H156.43V369H146.918ZM178.734 369L165.286 345.712L172.666 340.628L189.476 369H178.734ZM156.43 339.07H167.582C169.441 339.07 171.081 338.66 172.502 337.84C173.978 337.02 175.153 335.899 176.028 334.478C176.957 333.057 177.422 331.444 177.422 329.64C177.422 326.907 176.438 324.665 174.47 322.916C172.502 321.167 169.96 320.292 166.844 320.292H156.43V339.07ZM212.413 369.984C208.422 369.984 204.869 369.082 201.753 367.278C198.692 365.419 196.259 362.877 194.455 359.652C192.706 356.427 191.831 352.709 191.831 348.5C191.831 344.291 192.733 340.573 194.537 337.348C196.341 334.123 198.801 331.608 201.917 329.804C205.088 327.945 208.696 327.016 212.741 327.016C216.404 327.016 219.711 327.973 222.663 329.886C225.615 331.745 227.938 334.451 229.633 338.004C231.382 341.557 232.257 345.794 232.257 350.714H200.031L201.261 349.566C201.261 352.081 201.808 354.267 202.901 356.126C203.994 357.93 205.443 359.324 207.247 360.308C209.051 361.292 211.046 361.784 213.233 361.784C215.748 361.784 217.825 361.237 219.465 360.144C221.105 358.996 222.39 357.52 223.319 355.716L231.437 359.16C230.289 361.347 228.813 363.26 227.009 364.9C225.26 366.54 223.155 367.797 220.695 368.672C218.29 369.547 215.529 369.984 212.413 369.984ZM201.835 344.81L200.523 343.662H223.647L222.417 344.81C222.417 342.569 221.925 340.737 220.941 339.316C219.957 337.84 218.7 336.747 217.169 336.036C215.693 335.271 214.135 334.888 212.495 334.888C210.855 334.888 209.215 335.271 207.575 336.036C205.935 336.747 204.568 337.84 203.475 339.316C202.382 340.737 201.835 342.569 201.835 344.81ZM261.021 369L260.611 361.292V347.926C260.611 345.138 260.31 342.815 259.709 340.956C259.162 339.043 258.233 337.594 256.921 336.61C255.664 335.571 253.969 335.052 251.837 335.052C249.869 335.052 248.147 335.462 246.671 336.282C245.195 337.102 243.938 338.387 242.899 340.136L234.863 337.184C235.738 335.38 236.886 333.713 238.307 332.182C239.783 330.597 241.614 329.339 243.801 328.41C246.042 327.481 248.721 327.016 251.837 327.016C255.828 327.016 259.162 327.809 261.841 329.394C264.52 330.925 266.488 333.139 267.745 336.036C269.057 338.933 269.713 342.432 269.713 346.532L269.467 369H261.021ZM249.213 369.984C244.293 369.984 240.466 368.891 237.733 366.704C235.054 364.517 233.715 361.429 233.715 357.438C233.715 353.174 235.136 349.921 237.979 347.68C240.876 345.439 244.894 344.318 250.033 344.318H261.021V351.37H252.985C249.322 351.37 246.753 351.889 245.277 352.928C243.801 353.912 243.063 355.333 243.063 357.192C243.063 358.777 243.692 360.035 244.949 360.964C246.261 361.839 248.065 362.276 250.361 362.276C252.438 362.276 254.242 361.811 255.773 360.882C257.304 359.953 258.479 358.723 259.299 357.192C260.174 355.661 260.611 353.939 260.611 352.026H263.317C263.317 357.602 262.196 362.003 259.955 365.228C257.714 368.399 254.133 369.984 249.213 369.984ZM294.921 369.984C290.712 369.984 286.994 369.082 283.769 367.278C280.544 365.419 278.002 362.877 276.143 359.652C274.339 356.427 273.437 352.709 273.437 348.5C273.437 344.291 274.339 340.573 276.143 337.348C278.002 334.123 280.516 331.608 283.687 329.804C286.912 327.945 290.602 327.016 294.757 327.016C298.802 327.016 302.465 328 305.745 329.968C309.025 331.881 311.458 334.642 313.043 338.25L304.515 341.53C303.64 339.726 302.301 338.277 300.497 337.184C298.693 336.091 296.643 335.544 294.347 335.544C292.106 335.544 290.11 336.118 288.361 337.266C286.612 338.359 285.245 339.89 284.261 341.858C283.277 343.771 282.785 345.985 282.785 348.5C282.785 351.015 283.277 353.256 284.261 355.224C285.3 357.137 286.694 358.668 288.443 359.816C290.247 360.909 292.27 361.456 294.511 361.456C296.807 361.456 298.857 360.882 300.661 359.734C302.465 358.531 303.804 356.919 304.679 354.896L313.207 358.176C311.622 361.893 309.189 364.791 305.909 366.868C302.684 368.945 299.021 369.984 294.921 369.984ZM333.374 369.984C329.056 369.984 325.748 368.918 323.452 366.786C321.211 364.599 320.09 361.483 320.09 357.438V315.208H329.192V355.716C329.192 357.629 329.63 359.078 330.504 360.062C331.434 361.046 332.773 361.538 334.522 361.538C335.069 361.538 335.67 361.429 336.326 361.21C336.982 360.991 337.72 360.581 338.54 359.98L341.902 366.95C340.481 367.934 339.06 368.672 337.638 369.164C336.217 369.711 334.796 369.984 333.374 369.984ZM313.284 335.872V328H340.262V335.872H313.284ZM343.59 378.43L348.51 359.816H358.186L350.806 378.43H343.59ZM381.009 369V311.6H390.849L421.353 353.092V311.6H430.865V369H421.353L390.521 327.016V369H381.009ZM457.795 369.984C453.804 369.984 450.251 369.082 447.135 367.278C444.073 365.419 441.641 362.877 439.837 359.652C438.087 356.427 437.213 352.709 437.213 348.5C437.213 344.291 438.115 340.573 439.919 337.348C441.723 334.123 444.183 331.608 447.299 329.804C450.469 327.945 454.077 327.016 458.123 327.016C461.785 327.016 465.093 327.973 468.045 329.886C470.997 331.745 473.32 334.451 475.015 338.004C476.764 341.557 477.639 345.794 477.639 350.714H445.413L446.643 349.566C446.643 352.081 447.189 354.267 448.283 356.126C449.376 357.93 450.825 359.324 452.629 360.308C454.433 361.292 456.428 361.784 458.615 361.784C461.129 361.784 463.207 361.237 464.847 360.144C466.487 358.996 467.771 357.52 468.701 355.716L476.819 359.16C475.671 361.347 474.195 363.26 472.391 364.9C470.641 366.54 468.537 367.797 466.077 368.672C463.671 369.547 460.911 369.984 457.795 369.984ZM447.217 344.81L445.905 343.662H469.029L467.799 344.81C467.799 342.569 467.307 340.737 466.323 339.316C465.339 337.84 464.081 336.747 462.551 336.036C461.075 335.271 459.517 334.888 457.877 334.888C456.237 334.888 454.597 335.271 452.957 336.036C451.317 336.747 449.95 337.84 448.857 339.316C447.763 340.737 447.217 342.569 447.217 344.81ZM476.088 369L492.898 345.548L504.624 328H515.448L499.458 350.632L487.076 369H476.088ZM505.526 369L493.39 350.632L477.154 328H487.978L499.786 345.548L516.432 369H505.526ZM535.351 369.984C531.032 369.984 527.725 368.918 525.429 366.786C523.187 364.599 522.067 361.483 522.067 357.438V315.208H531.169V355.716C531.169 357.629 531.606 359.078 532.481 360.062C533.41 361.046 534.749 361.538 536.499 361.538C537.045 361.538 537.647 361.429 538.303 361.21C538.959 360.991 539.697 360.581 540.517 359.98L543.879 366.95C542.457 367.934 541.036 368.672 539.615 369.164C538.193 369.711 536.772 369.984 535.351 369.984ZM515.261 335.872V328H542.239V335.872H515.261ZM552.372 370.148C550.787 370.148 549.42 369.601 548.272 368.508C547.179 367.36 546.632 365.993 546.632 364.408C546.632 362.823 547.179 361.456 548.272 360.308C549.42 359.16 550.787 358.586 552.372 358.586C553.957 358.586 555.324 359.16 556.472 360.308C557.62 361.456 558.194 362.823 558.194 364.408C558.194 365.993 557.62 367.36 556.472 368.508C555.324 369.601 553.957 370.148 552.372 370.148ZM571.431 320.374C569.9 320.374 568.588 319.827 567.495 318.734C566.456 317.641 565.937 316.356 565.937 314.88C565.937 313.349 566.456 312.065 567.495 311.026C568.588 309.933 569.9 309.386 571.431 309.386C572.907 309.386 574.191 309.933 575.285 311.026C576.378 312.065 576.925 313.349 576.925 314.88C576.925 316.356 576.378 317.641 575.285 318.734C574.191 319.827 572.907 320.374 571.431 320.374ZM562.329 386.63C559.65 386.63 556.807 385.837 553.801 384.252L557.491 376.626C558.475 377.118 559.377 377.473 560.197 377.692C561.017 377.965 561.7 378.102 562.247 378.102C565.308 378.102 566.839 376.134 566.839 372.198V328H575.941V372.69C575.941 377.173 574.765 380.617 572.415 383.022C570.119 385.427 566.757 386.63 562.329 386.63ZM598.509 369.984C595.776 369.984 593.261 369.574 590.965 368.754C588.669 367.934 586.701 366.786 585.061 365.31C583.421 363.779 582.164 362.003 581.289 359.98L589.243 356.454C590.063 357.985 591.266 359.269 592.851 360.308C594.491 361.347 596.295 361.866 598.263 361.866C600.395 361.866 602.09 361.511 603.347 360.8C604.659 360.035 605.315 358.996 605.315 357.684C605.315 356.427 604.823 355.47 603.839 354.814C602.855 354.103 601.461 353.529 599.657 353.092L595.803 352.026C591.922 351.042 588.888 349.484 586.701 347.352C584.515 345.165 583.421 342.678 583.421 339.89C583.421 335.79 584.733 332.619 587.357 330.378C590.036 328.137 593.863 327.016 598.837 327.016C601.352 327.016 603.648 327.399 605.725 328.164C607.857 328.875 609.689 329.913 611.219 331.28C612.75 332.592 613.816 334.15 614.417 335.954L606.791 339.398C606.245 338.031 605.206 336.993 603.675 336.282C602.145 335.517 600.45 335.134 598.591 335.134C596.733 335.134 595.284 335.544 594.245 336.364C593.207 337.129 592.687 338.223 592.687 339.644C592.687 340.464 593.152 341.229 594.081 341.94C595.011 342.596 596.35 343.143 598.099 343.58L602.937 344.728C605.616 345.384 607.803 346.423 609.497 347.844C611.192 349.211 612.449 350.769 613.269 352.518C614.089 354.213 614.499 355.935 614.499 357.684C614.499 360.144 613.789 362.303 612.367 364.162C611.001 366.021 609.115 367.469 606.709 368.508C604.304 369.492 601.571 369.984 598.509 369.984ZM650.91 370.148C647.575 370.148 644.623 369.492 642.054 368.18C639.484 366.868 637.462 365.064 635.986 362.768C634.51 360.472 633.772 357.848 633.772 354.896C633.772 352.709 634.182 350.714 635.002 348.91C635.876 347.051 637.024 345.357 638.446 343.826C639.867 342.295 641.48 340.929 643.284 339.726L652.714 333.248C653.807 332.483 654.928 331.663 656.076 330.788C657.224 329.913 658.208 328.902 659.028 327.754C659.902 326.606 660.34 325.294 660.34 323.818C660.34 322.014 659.684 320.593 658.372 319.554C657.114 318.515 655.502 317.996 653.534 317.996C651.784 317.996 650.281 318.543 649.024 319.636C647.821 320.729 647.22 322.096 647.22 323.736C647.22 325.212 647.684 326.524 648.614 327.672C649.543 328.82 650.636 330.187 651.894 331.772L662.472 344.482L682.726 369H671.82L655.584 349.566L644.76 336.446C643.338 334.642 642.136 333.057 641.152 331.69C640.168 330.269 639.43 328.929 638.938 327.672C638.5 326.36 638.282 325.021 638.282 323.654C638.282 321.139 638.938 318.898 640.25 316.93C641.616 314.907 643.42 313.322 645.662 312.174C647.903 311.026 650.418 310.452 653.206 310.452C656.267 310.452 658.973 311.026 661.324 312.174C663.729 313.322 665.615 314.907 666.982 316.93C668.348 318.953 669.032 321.303 669.032 323.982C669.032 326.169 668.458 328.219 667.31 330.132C666.162 332.045 664.522 333.904 662.39 335.708C660.312 337.512 657.852 339.425 655.01 341.448L649.106 345.466C648.067 346.177 647.11 346.969 646.236 347.844C645.361 348.719 644.65 349.703 644.104 350.796C643.557 351.889 643.284 353.201 643.284 354.732C643.284 356.919 644.022 358.723 645.498 360.144C647.028 361.511 648.996 362.194 651.402 362.194C653.916 362.194 656.322 361.784 658.618 360.964C660.968 360.144 663.046 358.969 664.85 357.438C666.708 355.853 668.157 353.939 669.196 351.698C670.234 349.457 670.754 346.915 670.754 344.072H679.528C679.528 349.101 678.298 353.584 675.838 357.52C673.378 361.456 669.988 364.545 665.67 366.786C661.406 369.027 656.486 370.148 650.91 370.148ZM714.845 369V320.292H697.215V311.6H741.987V320.292H724.357V369H714.845ZM764.684 369L764.274 361.292V347.926C764.274 345.138 763.973 342.815 763.372 340.956C762.825 339.043 761.896 337.594 760.584 336.61C759.326 335.571 757.632 335.052 755.5 335.052C753.532 335.052 751.81 335.462 750.334 336.282C748.858 337.102 747.6 338.387 746.562 340.136L738.526 337.184C739.4 335.38 740.548 333.713 741.97 332.182C743.446 330.597 745.277 329.339 747.464 328.41C749.705 327.481 752.384 327.016 755.5 327.016C759.49 327.016 762.825 327.809 765.504 329.394C768.182 330.925 770.15 333.139 771.408 336.036C772.72 338.933 773.376 342.432 773.376 346.532L773.13 369H764.684ZM752.876 369.984C747.956 369.984 744.129 368.891 741.396 366.704C738.717 364.517 737.378 361.429 737.378 357.438C737.378 353.174 738.799 349.921 741.642 347.68C744.539 345.439 748.557 344.318 753.696 344.318H764.684V351.37H756.648C752.985 351.37 750.416 351.889 748.94 352.928C747.464 353.912 746.726 355.333 746.726 357.192C746.726 358.777 747.354 360.035 748.612 360.964C749.924 361.839 751.728 362.276 754.024 362.276C756.101 362.276 757.905 361.811 759.436 360.882C760.966 359.953 762.142 358.723 762.962 357.192C763.836 355.661 764.274 353.939 764.274 352.026H766.98C766.98 357.602 765.859 362.003 763.618 365.228C761.376 368.399 757.796 369.984 752.876 369.984ZM779.969 369V328H789.071V369H779.969ZM784.561 320.21C783.085 320.21 781.801 319.691 780.707 318.652C779.669 317.559 779.149 316.274 779.149 314.798C779.149 313.322 779.669 312.065 780.707 311.026C781.801 309.987 783.085 309.468 784.561 309.468C786.037 309.468 787.295 309.987 788.333 311.026C789.427 312.065 789.973 313.322 789.973 314.798C789.973 316.274 789.427 317.559 788.333 318.652C787.295 319.691 786.037 320.21 784.561 320.21ZM796.615 369V311.6H805.799V369H796.615ZM850.68 369L864.374 328H873.64L859.7 369H850.68ZM823.21 369L836.576 328H844.694L831.492 369H823.21ZM822.39 369L808.45 328H817.716L831.082 369H822.39ZM850.598 369L837.478 328H845.596L858.962 369H850.598ZM876.874 369V328H885.976V369H876.874ZM881.466 320.21C879.99 320.21 878.705 319.691 877.612 318.652C876.573 317.559 876.054 316.274 876.054 314.798C876.054 313.322 876.573 312.065 877.612 311.026C878.705 309.987 879.99 309.468 881.466 309.468C882.942 309.468 884.199 309.987 885.238 311.026C886.331 312.065 886.878 313.322 886.878 314.798C886.878 316.274 886.331 317.559 885.238 318.652C884.199 319.691 882.942 320.21 881.466 320.21ZM893.52 369V328H902.13L902.704 335.544V369H893.52ZM921.318 369V348.008H930.502V369H921.318ZM921.318 348.008C921.318 344.728 920.935 342.213 920.17 340.464C919.459 338.66 918.42 337.403 917.054 336.692C915.742 335.981 914.184 335.626 912.38 335.626C909.318 335.571 906.94 336.583 905.246 338.66C903.551 340.737 902.704 343.717 902.704 347.598H899.26C899.26 343.279 899.888 339.589 901.146 336.528C902.403 333.412 904.207 331.061 906.558 329.476C908.908 327.836 911.696 327.016 914.922 327.016C918.202 327.016 920.99 327.672 923.286 328.984C925.636 330.296 927.413 332.346 928.616 335.134C929.873 337.867 930.502 341.448 930.502 345.876V348.008H921.318ZM966.127 369L965.717 361.374V311.6H974.819V369H966.127ZM952.761 369.984C949.043 369.984 945.791 369.109 943.003 367.36C940.269 365.556 938.11 363.041 936.525 359.816C934.994 356.591 934.229 352.819 934.229 348.5C934.229 344.127 934.994 340.355 936.525 337.184C938.11 333.959 940.269 331.471 943.003 329.722C945.791 327.918 949.043 327.016 952.761 327.016C956.205 327.016 959.157 327.918 961.617 329.722C964.131 331.471 966.045 333.959 967.357 337.184C968.669 340.355 969.325 344.127 969.325 348.5C969.325 352.819 968.669 356.591 967.357 359.816C966.045 363.041 964.131 365.556 961.617 367.36C959.157 369.109 956.205 369.984 952.761 369.984ZM955.057 361.62C957.134 361.62 958.965 361.073 960.551 359.98C962.191 358.832 963.448 357.274 964.323 355.306C965.252 353.338 965.717 351.069 965.717 348.5C965.717 345.931 965.252 343.662 964.323 341.694C963.448 339.726 962.191 338.195 960.551 337.102C958.965 336.009 957.107 335.462 954.975 335.462C952.788 335.462 950.847 336.009 949.153 337.102C947.458 338.195 946.119 339.726 945.135 341.694C944.205 343.662 943.713 345.931 943.659 348.5C943.713 351.069 944.205 353.338 945.135 355.306C946.119 357.274 947.458 358.832 949.153 359.98C950.902 361.073 952.87 361.62 955.057 361.62Z" fill="url(#paint2_linear_2_335)"/>
<path d="M421.683 545.72C423.603 545.72 425.246 546.115 426.611 546.904C427.977 547.672 429.011 548.707 429.715 550.008C430.441 551.288 430.803 552.696 430.803 554.232C430.803 555.981 430.462 557.539 429.779 558.904C429.097 560.269 428.115 561.336 426.835 562.104C425.555 562.872 424.009 563.256 422.195 563.256C420.169 563.256 418.473 562.861 417.107 562.072C415.763 561.283 414.75 560.227 414.067 558.904C413.406 557.56 413.075 556.067 413.075 554.424C413.075 552.76 413.438 551.277 414.163 549.976C414.889 548.653 415.891 547.619 417.171 546.872C418.473 546.104 419.977 545.72 421.683 545.72ZM422.163 560.92C423.102 560.92 423.881 560.621 424.499 560.024C425.118 559.427 425.587 558.648 425.907 557.688C426.227 556.728 426.387 555.693 426.387 554.584C426.387 553.773 426.313 552.984 426.163 552.216C426.035 551.427 425.801 550.723 425.459 550.104C425.118 549.464 424.638 548.952 424.019 548.568C423.422 548.184 422.654 547.992 421.715 547.992C420.798 547.992 420.019 548.269 419.379 548.824C418.761 549.379 418.291 550.115 417.971 551.032C417.651 551.949 417.491 552.963 417.491 554.072C417.491 554.861 417.555 555.661 417.683 556.472C417.811 557.283 418.046 558.029 418.387 558.712C418.729 559.373 419.198 559.907 419.795 560.312C420.414 560.717 421.203 560.92 422.163 560.92ZM453.082 548.056L450.81 547.736L451.162 546.04H458.138V547.16L455.642 548.12L451.354 563H448.474L444.314 552.344L440.538 563H437.338L432.41 548.056L430.01 547.64L430.33 546.04H439.546V547.16L436.986 547.96L439.898 557.656L444.058 546.04H446.234L450.458 557.08L453.082 548.056ZM461.034 555.448C461.034 556.664 461.301 557.645 461.834 558.392C462.368 559.139 463.082 559.693 463.978 560.056C464.896 560.397 465.888 560.568 466.954 560.568C467.701 560.568 468.48 560.44 469.29 560.184C470.122 559.928 470.944 559.533 471.754 559L472.778 560.856C471.733 561.667 470.602 562.275 469.386 562.68C468.17 563.085 467.029 563.288 465.962 563.288C464.746 563.288 463.573 563.128 462.442 562.808C461.312 562.488 460.298 561.987 459.402 561.304C458.506 560.621 457.792 559.736 457.258 558.648C456.746 557.539 456.49 556.195 456.49 554.616C456.49 552.973 456.768 551.587 457.322 550.456C457.898 549.325 458.634 548.419 459.53 547.736C460.426 547.053 461.408 546.563 462.474 546.264C463.541 545.944 464.565 545.784 465.546 545.784C467.36 545.784 468.821 546.221 469.93 547.096C471.061 547.971 471.893 549.144 472.426 550.616C472.96 552.067 473.226 553.677 473.226 555.448H461.034ZM469.514 552.824C469.514 551.693 469.322 550.797 468.938 550.136C468.554 549.453 468.064 548.963 467.466 548.664C466.869 548.344 466.25 548.184 465.61 548.184C464.885 548.184 464.181 548.355 463.498 548.696C462.837 549.037 462.282 549.549 461.834 550.232C461.408 550.915 461.173 551.779 461.13 552.824H469.514ZM474.099 548.312L473.939 546.68L481.171 545.656V548.312C481.896 547.437 482.782 546.797 483.827 546.392C484.872 545.965 485.832 545.752 486.707 545.752C487.731 545.752 488.734 545.944 489.715 546.328C490.696 546.691 491.507 547.299 492.147 548.152C492.808 549.005 493.15 550.168 493.171 551.64V560.856L495.571 561.304L495.251 563H486.195V561.88L488.691 560.92V552.92C488.691 551.555 488.478 550.563 488.051 549.944C487.624 549.325 486.814 549.016 485.619 549.016C484.766 549.016 483.912 549.176 483.059 549.496C482.227 549.816 481.598 550.221 481.171 550.712V560.856L483.571 561.304L483.251 563H473.875V561.88L476.691 560.92V548.792L474.099 548.312ZM495.117 548.344L494.957 546.712L502.189 545.688V547.832C502.914 547.171 503.65 546.659 504.397 546.296C505.143 545.933 506.018 545.752 507.021 545.752C508.429 545.752 509.698 546.072 510.829 546.712C511.981 547.331 512.898 548.259 513.581 549.496C514.263 550.733 514.605 552.269 514.605 554.104C514.605 555.64 514.359 556.984 513.869 558.136C513.378 559.288 512.706 560.259 511.853 561.048C511.021 561.816 510.082 562.392 509.037 562.776C507.991 563.16 506.914 563.352 505.805 563.352C505.165 563.352 504.546 563.277 503.949 563.128C503.373 563 502.786 562.712 502.189 562.264V568.152L505.517 568.6L505.197 570.296H494.893V569.176L497.709 568.216V548.824L495.117 548.344ZM506.413 548.472C505.73 548.472 505.015 548.653 504.269 549.016C503.543 549.357 502.85 549.816 502.189 550.392V559.288C503.277 560.397 504.407 560.952 505.581 560.952C506.477 560.952 507.266 560.664 507.949 560.088C508.631 559.491 509.165 558.723 509.549 557.784C509.933 556.845 510.125 555.843 510.125 554.776C510.125 553.795 510.007 552.824 509.773 551.864C509.538 550.883 509.154 550.072 508.621 549.432C508.087 548.792 507.351 548.472 506.413 548.472ZM521.333 555.448C521.333 556.664 521.6 557.645 522.133 558.392C522.666 559.139 523.381 559.693 524.277 560.056C525.194 560.397 526.186 560.568 527.253 560.568C528 560.568 528.778 560.44 529.589 560.184C530.421 559.928 531.242 559.533 532.053 559L533.077 560.856C532.032 561.667 530.901 562.275 529.685 562.68C528.469 563.085 527.328 563.288 526.261 563.288C525.045 563.288 523.872 563.128 522.741 562.808C521.61 562.488 520.597 561.987 519.701 561.304C518.805 560.621 518.09 559.736 517.557 558.648C517.045 557.539 516.789 556.195 516.789 554.616C516.789 552.973 517.066 551.587 517.621 550.456C518.197 549.325 518.933 548.419 519.829 547.736C520.725 547.053 521.706 546.563 522.773 546.264C523.84 545.944 524.864 545.784 525.845 545.784C527.658 545.784 529.12 546.221 530.229 547.096C531.36 547.971 532.192 549.144 532.725 550.616C533.258 552.067 533.525 553.677 533.525 555.448H521.333ZM529.813 552.824C529.813 551.693 529.621 550.797 529.237 550.136C528.853 549.453 528.362 548.963 527.765 548.664C527.168 548.344 526.549 548.184 525.909 548.184C525.184 548.184 524.48 548.355 523.797 548.696C523.136 549.037 522.581 549.549 522.133 550.232C521.706 550.915 521.472 551.779 521.429 552.824H529.813ZM546.801 548.696C546.438 548.461 546.065 548.301 545.681 548.216C545.297 548.131 544.924 548.088 544.561 548.088C543.644 548.088 542.801 548.365 542.033 548.92C541.265 549.475 540.657 550.211 540.209 551.128C539.761 552.045 539.537 553.048 539.537 554.136C539.537 555.267 539.708 556.344 540.049 557.368C540.39 558.392 540.934 559.224 541.681 559.864C542.449 560.483 543.452 560.792 544.689 560.792C545.414 560.792 546.161 560.653 546.929 560.376C547.697 560.077 548.412 559.683 549.073 559.192L550.065 560.888C549.212 561.699 548.273 562.317 547.249 562.744C546.225 563.149 545.169 563.352 544.081 563.352C542.993 563.352 541.916 563.192 540.849 562.872C539.804 562.552 538.844 562.051 537.969 561.368C537.094 560.664 536.401 559.736 535.889 558.584C535.377 557.432 535.121 556.024 535.121 554.36C535.121 552.781 535.42 551.448 536.017 550.36C536.614 549.272 537.382 548.387 538.321 547.704C539.281 547.021 540.305 546.531 541.393 546.232C542.502 545.912 543.558 545.752 544.561 545.752C546.353 545.752 548.049 546.253 549.649 547.256V551.832L547.729 552.216L546.801 548.696ZM551.418 541.336L551.258 539.704L558.49 538.68V548.312C559.215 547.437 560.1 546.797 561.146 546.392C562.191 545.965 563.151 545.752 564.026 545.752C565.05 545.752 566.052 545.944 567.034 546.328C568.015 546.691 568.826 547.299 569.466 548.152C570.127 549.005 570.468 550.168 570.49 551.64V560.856L572.89 561.304L572.57 563H563.514V561.88L566.01 560.92V552.92C566.01 551.555 565.796 550.563 565.37 549.944C564.943 549.325 564.132 549.016 562.938 549.016C562.084 549.016 561.231 549.176 560.378 549.496C559.546 549.816 558.916 550.221 558.49 550.712V560.856L560.89 561.304L560.57 563H551.194V561.88L554.01 560.92V541.816L551.418 541.336ZM581.782 545.72C583.702 545.72 585.345 546.115 586.71 546.904C588.075 547.672 589.11 548.707 589.814 550.008C590.539 551.288 590.902 552.696 590.902 554.232C590.902 555.981 590.561 557.539 589.878 558.904C589.195 560.269 588.214 561.336 586.934 562.104C585.654 562.872 584.107 563.256 582.294 563.256C580.267 563.256 578.571 562.861 577.206 562.072C575.862 561.283 574.849 560.227 574.166 558.904C573.505 557.56 573.174 556.067 573.174 554.424C573.174 552.76 573.537 551.277 574.262 549.976C574.987 548.653 575.99 547.619 577.27 546.872C578.571 546.104 580.075 545.72 581.782 545.72ZM582.262 560.92C583.201 560.92 583.979 560.621 584.598 560.024C585.217 559.427 585.686 558.648 586.006 557.688C586.326 556.728 586.486 555.693 586.486 554.584C586.486 553.773 586.411 552.984 586.262 552.216C586.134 551.427 585.899 550.723 585.558 550.104C585.217 549.464 584.737 548.952 584.118 548.568C583.521 548.184 582.753 547.992 581.814 547.992C580.897 547.992 580.118 548.269 579.478 548.824C578.859 549.379 578.39 550.115 578.07 551.032C577.75 551.949 577.59 552.963 577.59 554.072C577.59 554.861 577.654 555.661 577.782 556.472C577.91 557.283 578.145 558.029 578.486 558.712C578.827 559.373 579.297 559.907 579.894 560.312C580.513 560.717 581.302 560.92 582.262 560.92ZM591.326 547.736L591.646 546.04H598.206V556.248C598.206 557.613 598.419 558.605 598.846 559.224C599.294 559.843 600.105 560.152 601.278 560.152C602.131 560.152 602.985 560.003 603.838 559.704C604.691 559.405 605.321 559.011 605.726 558.52V548.184L603.326 547.736L603.646 546.04H610.206V560.504L612.798 560.984L612.958 562.616L605.726 563.384V560.6C605.001 561.475 604.115 562.147 603.07 562.616C602.025 563.064 601.065 563.288 600.19 563.288C599.166 563.288 598.163 563.107 597.182 562.744C596.201 562.36 595.39 561.741 594.75 560.888C594.11 560.035 593.769 558.872 593.726 557.4V548.184L591.326 547.736ZM618.018 560.632C618.338 560.781 618.732 560.909 619.202 561.016C619.671 561.123 620.151 561.176 620.642 561.176C621.474 561.176 622.231 561.005 622.914 560.664C623.596 560.301 623.948 559.693 623.97 558.84C623.991 558.328 623.788 557.901 623.362 557.56C622.935 557.219 622.38 556.909 621.698 556.632C621.036 556.333 620.311 556.024 619.522 555.704C618.754 555.384 618.028 555 617.346 554.552C616.663 554.104 616.098 553.549 615.65 552.888C615.223 552.205 615.01 551.363 615.01 550.36C615.01 549.229 615.362 548.333 616.066 547.672C616.77 546.989 617.666 546.509 618.754 546.232C619.842 545.933 620.962 545.784 622.114 545.784C623.159 545.784 624.151 545.891 625.09 546.104C626.05 546.296 626.818 546.552 627.394 546.872V551.288L625.41 551.64L624.578 548.44C624.215 548.333 623.874 548.237 623.554 548.152C623.255 548.067 622.85 548.024 622.338 548.024C621.527 548.024 620.823 548.195 620.226 548.536C619.65 548.856 619.362 549.304 619.362 549.88C619.362 550.499 619.575 551.021 620.002 551.448C620.45 551.875 621.015 552.248 621.698 552.568C622.402 552.888 623.138 553.219 623.906 553.56C624.674 553.88 625.399 554.253 626.082 554.68C626.786 555.107 627.351 555.629 627.778 556.248C628.226 556.845 628.45 557.603 628.45 558.52C628.45 559.736 628.098 560.696 627.394 561.4C626.69 562.104 625.772 562.616 624.642 562.936C623.532 563.235 622.359 563.384 621.122 563.384C619.927 563.384 618.754 563.256 617.602 563C616.471 562.765 615.5 562.488 614.69 562.168V557.784L617.154 557.4L618.018 560.632ZM630.492 560.664C631.175 559.405 632.167 558.435 633.468 557.752C634.727 558.435 635.676 559.384 636.316 560.6C635.612 561.837 634.631 562.808 633.372 563.512C632.092 562.851 631.132 561.901 630.492 560.664ZM650.273 548.696C649.911 548.461 649.537 548.301 649.153 548.216C648.769 548.131 648.396 548.088 648.033 548.088C647.116 548.088 646.273 548.365 645.505 548.92C644.737 549.475 644.129 550.211 643.681 551.128C643.233 552.045 643.009 553.048 643.009 554.136C643.009 555.267 643.18 556.344 643.521 557.368C643.863 558.392 644.407 559.224 645.153 559.864C645.921 560.483 646.924 560.792 648.161 560.792C648.887 560.792 649.633 560.653 650.401 560.376C651.169 560.077 651.884 559.683 652.545 559.192L653.537 560.888C652.684 561.699 651.745 562.317 650.721 562.744C649.697 563.149 648.641 563.352 647.553 563.352C646.465 563.352 645.388 563.192 644.321 562.872C643.276 562.552 642.316 562.051 641.441 561.368C640.567 560.664 639.873 559.736 639.361 558.584C638.849 557.432 638.593 556.024 638.593 554.36C638.593 552.781 638.892 551.448 639.489 550.36C640.087 549.272 640.855 548.387 641.793 547.704C642.753 547.021 643.777 546.531 644.865 546.232C645.975 545.912 647.031 545.752 648.033 545.752C649.825 545.752 651.521 546.253 653.121 547.256V551.832L651.201 552.216L650.273 548.696ZM663.301 545.72C665.221 545.72 666.864 546.115 668.229 546.904C669.594 547.672 670.629 548.707 671.333 550.008C672.058 551.288 672.421 552.696 672.421 554.232C672.421 555.981 672.08 557.539 671.397 558.904C670.714 560.269 669.733 561.336 668.453 562.104C667.173 562.872 665.626 563.256 663.813 563.256C661.786 563.256 660.09 562.861 658.725 562.072C657.381 561.283 656.368 560.227 655.685 558.904C655.024 557.56 654.693 556.067 654.693 554.424C654.693 552.76 655.056 551.277 655.781 549.976C656.506 548.653 657.509 547.619 658.789 546.872C660.09 546.104 661.594 545.72 663.301 545.72ZM663.781 560.92C664.72 560.92 665.498 560.621 666.117 560.024C666.736 559.427 667.205 558.648 667.525 557.688C667.845 556.728 668.005 555.693 668.005 554.584C668.005 553.773 667.93 552.984 667.781 552.216C667.653 551.427 667.418 550.723 667.077 550.104C666.736 549.464 666.256 548.952 665.637 548.568C665.04 548.184 664.272 547.992 663.333 547.992C662.416 547.992 661.637 548.269 660.997 548.824C660.378 549.379 659.909 550.115 659.589 551.032C659.269 551.949 659.109 552.963 659.109 554.072C659.109 554.861 659.173 555.661 659.301 556.472C659.429 557.283 659.664 558.029 660.005 558.712C660.346 559.373 660.816 559.907 661.413 560.312C662.032 560.717 662.821 560.92 663.781 560.92ZM673.311 548.312L673.151 546.68L680.383 545.656V548.344C681.108 547.469 681.994 546.819 683.039 546.392C684.084 545.965 685.044 545.752 685.919 545.752C687.071 545.752 688.202 545.976 689.311 546.424C690.42 546.872 691.242 547.672 691.775 548.824C692.671 547.821 693.642 547.064 694.687 546.552C695.754 546.019 696.81 545.752 697.855 545.752C698.879 545.752 699.882 545.944 700.863 546.328C701.844 546.691 702.655 547.299 703.295 548.152C703.956 549.005 704.298 550.168 704.319 551.64V560.856L706.719 561.304L706.399 563H697.343V561.88L699.839 560.92V552.92C699.839 551.555 699.626 550.563 699.199 549.944C698.772 549.325 697.962 549.016 696.767 549.016C695.914 549.016 695.06 549.197 694.207 549.56C693.354 549.901 692.714 550.317 692.287 550.808C692.308 550.957 692.33 551.107 692.351 551.256C692.372 551.384 692.383 551.533 692.383 551.704V560.856L694.783 561.304L694.463 563H685.407V561.88L687.903 560.92V552.92C687.903 551.555 687.69 550.563 687.263 549.944C686.836 549.325 686.026 549.016 684.831 549.016C683.978 549.016 683.124 549.176 682.271 549.496C681.439 549.816 680.81 550.221 680.383 550.712V560.856L682.783 561.304L682.463 563H673.087V561.88L675.903 560.92V548.792L673.311 548.312Z" fill="white"/>
</g>
<defs>
<filter id="filter0_f_2_335" x="-83.5" y="-4" width="1287" height="638" filterUnits="userSpaceOnUse" color-interpolation-filters="sRGB">
<feFlood flood-opacity="0" result="BackgroundImageFix"/>
<feBlend mode="normal" in="SourceGraphic" in2="BackgroundImageFix" result="shape"/>
<feGaussianBlur stdDeviation="2" result="effect1_foregroundBlur_2_335"/>
</filter>
<filter id="filter1_f_2_335" x="236.75" y="-4" width="646.5" height="370" filterUnits="userSpaceOnUse" color-interpolation-filters="sRGB">
<feFlood flood-opacity="0" result="BackgroundImageFix"/>
<feBlend mode="normal" in="SourceGraphic" in2="BackgroundImageFix" result="shape"/>
<feGaussianBlur stdDeviation="2" result="effect1_foregroundBlur_2_335"/>
</filter>
<filter id="filter2_f_2_335" x="-4" y="-4" width="1208" height="638" filterUnits="userSpaceOnUse" color-interpolation-filters="sRGB">
<feFlood flood-opacity="0" result="BackgroundImageFix"/>
<feBlend mode="normal" in="SourceGraphic" in2="BackgroundImageFix" result="shape"/>
<feGaussianBlur stdDeviation="2" result="effect1_foregroundBlur_2_335"/>
</filter>
<filter id="filter3_f_2_335" x="-100" y="-100" width="1400" height="830" filterUnits="userSpaceOnUse" color-interpolation-filters="sRGB">
<feFlood flood-opacity="0" result="BackgroundImageFix"/>
<feBlend mode="normal" in="SourceGraphic" in2="BackgroundImageFix" result="shape"/>
<feGaussianBlur stdDeviation="50" result="effect1_foregroundBlur_2_335"/>
</filter>
<filter id="filter4_f_2_335" x="-4" y="-4" width="1208" height="638" filterUnits="userSpaceOnUse" color-interpolation-filters="sRGB">
<feFlood flood-opacity="0" result="BackgroundImageFix"/>
<feBlend mode="normal" in="SourceGraphic" in2="BackgroundImageFix" result="shape"/>
<feGaussianBlur stdDeviation="2" result="effect1_foregroundBlur_2_335"/>
</filter>
<radialGradient id="paint0_radial_2_335" cx="0" cy="0" r="1" gradientUnits="userSpaceOnUse" gradientTransform="translate(2138.13 1364.31) rotate(-135) scale(1169.77 1169.77)">
<stop stop-opacity="0"/>
<stop offset="0.487941" stop-opacity="0"/>
<stop offset="0.713185" stop-color="#AD9C5F"/>
<stop offset="0.933625" stop-color="#FFE9C5"/>
</radialGradient>
<radialGradient id="paint1_radial_2_335" cx="0" cy="0" r="1" gradientUnits="userSpaceOnUse" gradientTransform="translate(1790.5 -290) rotate(90) scale(1596 1596)">
<stop stop-opacity="0"/>
<stop offset="0.487941" stop-opacity="0"/>
<stop offset="0.677877" stop-color="#AD9C5F"/>
<stop offset="1" stop-opacity="0.2"/>
</radialGradient>
<linearGradient id="paint2_linear_2_335" x1="680.635" y1="258.732" x2="649.041" y2="434.107" gradientUnits="userSpaceOnUse">
<stop stop-color="white"/>
<stop offset="1" stop-color="#FAFAFA" stop-opacity="0.9"/>
</linearGradient>
<clipPath id="clip0_2_335">
<rect width="1120" height="630" fill="white"/>
</clipPath>
<clipPath id="clip1_2_335">
<rect width="1279" height="630" fill="white" transform="translate(-79.5)"/>
</clipPath>
</defs>
</svg>
