<svg width="1120" height="630" viewBox="0 0 1120 630" fill="none" xmlns="http://www.w3.org/2000/svg">
<g clip-path="url(#clip0_2_729)">
<rect width="1120" height="630" fill="#171717"/>
<g opacity="0.15" clip-path="url(#clip1_2_729)" filter="url(#filter0_f_2_729)">
<line x1="61.8611" y1="630" x2="61.8611" stroke="white" stroke-width="0.5"/>
<line x1="132.917" y1="630" x2="132.917" stroke="white" stroke-width="0.5"/>
<line x1="203.972" y1="630" x2="203.972" stroke="white" stroke-width="0.5"/>
<line x1="275.028" y1="630" x2="275.028" stroke="white" stroke-width="0.5"/>
<line x1="346.083" y1="630" x2="346.083" stroke="white" stroke-width="0.5"/>
<line x1="417.139" y1="630" x2="417.139" stroke="white" stroke-width="0.5"/>
<line x1="488.194" y1="630" x2="488.194" stroke="white" stroke-width="0.5"/>
<line x1="559.25" y1="630" x2="559.25" stroke="white" stroke-width="0.5"/>
<line x1="630.305" y1="630" x2="630.305" stroke="white" stroke-width="0.5"/>
<line x1="701.361" y1="630" x2="701.361" stroke="white" stroke-width="0.5"/>
<line x1="772.417" y1="630" x2="772.417" stroke="white" stroke-width="0.5"/>
<line x1="843.472" y1="630" x2="843.472" stroke="white" stroke-width="0.5"/>
<line x1="914.528" y1="630" x2="914.528" stroke="white" stroke-width="0.5"/>
<line x1="985.583" y1="630" x2="985.583" stroke="white" stroke-width="0.5"/>
<line x1="1056.64" y1="630" x2="1056.64" stroke="white" stroke-width="0.5"/>
<line x1="-80" y1="62.75" x2="1199" y2="62.75" stroke="white" stroke-width="0.5"/>
<line x1="-80" y1="125.75" x2="1199" y2="125.75" stroke="white" stroke-width="0.5"/>
<line x1="-80" y1="188.75" x2="1199" y2="188.75" stroke="white" stroke-width="0.5"/>
<line x1="-80" y1="251.75" x2="1199" y2="251.75" stroke="white" stroke-width="0.5"/>
<line x1="-80" y1="314.75" x2="1199" y2="314.75" stroke="white" stroke-width="0.5"/>
<line x1="-80" y1="377.75" x2="1199" y2="377.75" stroke="white" stroke-width="0.5"/>
<line x1="-80" y1="440.75" x2="1199" y2="440.75" stroke="white" stroke-width="0.5"/>
<line x1="-80" y1="503.75" x2="1199" y2="503.75" stroke="white" stroke-width="0.5"/>
<line x1="-80" y1="566.75" x2="1199" y2="566.75" stroke="white" stroke-width="0.5"/>
<line x1="-80" y1="629.75" x2="1199" y2="629.75" stroke="white" stroke-width="0.5"/>
</g>
<g filter="url(#filter1_f_2_729)">
<rect x="1200" y="630" width="1200" height="630" transform="rotate(180 1200 630)" fill="url(#paint0_radial_2_729)"/>
</g>
<rect width="1200" height="630" fill="url(#paint1_radial_2_729)"/>
<path d="M336.462 235V187.48H319.262V179H362.942V187.48H345.742V235H336.462ZM389.282 235L388.802 227.64V195H397.682V235H389.282ZM361.602 215.48V195H370.562V215.48H361.602ZM370.562 215.48C370.562 218.627 370.935 221.08 371.682 222.84C372.429 224.6 373.442 225.827 374.722 226.52C376.055 227.213 377.575 227.56 379.282 227.56C382.322 227.613 384.669 226.627 386.322 224.6C387.975 222.573 388.802 219.667 388.802 215.88H392.162C392.162 220.093 391.522 223.72 390.242 226.76C389.015 229.747 387.255 232.04 384.962 233.64C382.722 235.187 380.002 235.96 376.802 235.96C373.655 235.96 370.935 235.32 368.642 234.04C366.402 232.76 364.669 230.76 363.442 228.04C362.215 225.32 361.602 221.827 361.602 217.56V215.48H370.562ZM410.358 213.72C410.358 209.4 411.185 205.853 412.838 203.08C414.491 200.307 416.625 198.253 419.238 196.92C421.905 195.533 424.678 194.84 427.558 194.84V203.4C425.105 203.4 422.785 203.747 420.598 204.44C418.465 205.08 416.731 206.147 415.398 207.64C414.065 209.133 413.398 211.107 413.398 213.56L410.358 213.72ZM404.438 235V195H413.398V235H404.438ZM430.301 235V195H438.701L439.261 202.36V235H430.301ZM457.421 235V214.52H466.381V235H457.421ZM457.421 214.52C457.421 211.32 457.047 208.867 456.301 207.16C455.607 205.4 454.594 204.173 453.261 203.48C451.981 202.787 450.461 202.44 448.701 202.44C445.714 202.387 443.394 203.373 441.741 205.4C440.087 207.427 439.261 210.333 439.261 214.12H435.901C435.901 209.907 436.514 206.307 437.741 203.32C438.967 200.28 440.727 197.987 443.021 196.44C445.314 194.84 448.034 194.04 451.181 194.04C454.381 194.04 457.101 194.68 459.341 195.96C461.634 197.24 463.367 199.24 464.541 201.96C465.767 204.627 466.381 208.12 466.381 212.44V214.52H457.421ZM472.817 235V195H481.697V235H472.817ZM477.297 187.4C475.857 187.4 474.604 186.893 473.537 185.88C472.524 184.813 472.017 183.56 472.017 182.12C472.017 180.68 472.524 179.453 473.537 178.44C474.604 177.427 475.857 176.92 477.297 176.92C478.737 176.92 479.964 177.427 480.977 178.44C482.044 179.453 482.577 180.68 482.577 182.12C482.577 183.56 482.044 184.813 480.977 185.88C479.964 186.893 478.737 187.4 477.297 187.4ZM489.057 235V195H497.457L498.017 202.36V235H489.057ZM516.177 235V214.52H525.137V235H516.177ZM516.177 214.52C516.177 211.32 515.804 208.867 515.057 207.16C514.364 205.4 513.35 204.173 512.017 203.48C510.737 202.787 509.217 202.44 507.457 202.44C504.47 202.387 502.15 203.373 500.497 205.4C498.844 207.427 498.017 210.333 498.017 214.12H494.657C494.657 209.907 495.27 206.307 496.497 203.32C497.724 200.28 499.484 197.987 501.777 196.44C504.07 194.84 506.79 194.04 509.937 194.04C513.137 194.04 515.857 194.68 518.097 195.96C520.39 197.24 522.124 199.24 523.297 201.96C524.524 204.627 525.137 208.12 525.137 212.44V214.52H516.177ZM548.213 252.04C545.386 252.04 542.826 251.8 540.533 251.32C538.293 250.84 536.4 250.28 534.853 249.64C533.306 249 532.106 248.387 531.253 247.8L534.693 240.6C535.44 240.973 536.426 241.427 537.653 241.96C538.933 242.547 540.426 243.053 542.133 243.48C543.84 243.907 545.76 244.12 547.893 244.12C550.186 244.12 552.24 243.64 554.053 242.68C555.866 241.773 557.28 240.36 558.293 238.44C559.306 236.52 559.813 234.067 559.813 231.08V195H568.773V230.84C568.773 235.373 567.92 239.213 566.213 242.36C564.506 245.56 562.106 247.96 559.013 249.56C555.92 251.213 552.32 252.04 548.213 252.04ZM546.853 234.2C543.226 234.2 540.053 233.373 537.333 231.72C534.666 230.067 532.56 227.773 531.013 224.84C529.52 221.853 528.773 218.413 528.773 214.52C528.773 210.36 529.52 206.76 531.013 203.72C532.56 200.68 534.666 198.307 537.333 196.6C540.053 194.893 543.226 194.04 546.853 194.04C550.106 194.04 552.933 194.893 555.333 196.6C557.786 198.307 559.68 200.707 561.013 203.8C562.346 206.84 563.013 210.44 563.013 214.6C563.013 218.547 562.346 221.987 561.013 224.92C559.68 227.853 557.786 230.147 555.333 231.8C552.933 233.4 550.106 234.2 546.853 234.2ZM549.333 226.6C551.36 226.6 553.12 226.067 554.613 225C556.16 223.933 557.36 222.493 558.213 220.68C559.066 218.813 559.493 216.68 559.493 214.28C559.493 211.827 559.066 209.693 558.213 207.88C557.36 206.013 556.16 204.573 554.613 203.56C553.066 202.493 551.28 201.96 549.253 201.96C547.12 201.96 545.226 202.493 543.573 203.56C541.973 204.573 540.693 206.013 539.733 207.88C538.826 209.693 538.373 211.827 538.373 214.28C538.373 216.68 538.826 218.813 539.733 220.68C540.693 222.493 542 223.933 543.653 225C545.306 226.067 547.2 226.6 549.333 226.6ZM593.246 235V179H603.166L620.766 204.92L638.206 179H648.206V235H638.926V193.64L620.686 220.6L602.526 193.8V235H593.246ZM674.409 235.96C670.516 235.96 667.049 235.08 664.009 233.32C661.023 231.507 658.649 229.027 656.889 225.88C655.183 222.733 654.329 219.107 654.329 215C654.329 210.893 655.209 207.267 656.969 204.12C658.729 200.973 661.129 198.52 664.169 196.76C667.263 194.947 670.783 194.04 674.729 194.04C678.303 194.04 681.529 194.973 684.409 196.84C687.289 198.653 689.556 201.293 691.209 204.76C692.916 208.227 693.769 212.36 693.769 217.16H662.329L663.529 216.04C663.529 218.493 664.063 220.627 665.129 222.44C666.196 224.2 667.609 225.56 669.369 226.52C671.129 227.48 673.076 227.96 675.209 227.96C677.663 227.96 679.689 227.427 681.289 226.36C682.889 225.24 684.143 223.8 685.049 222.04L692.969 225.4C691.849 227.533 690.409 229.4 688.649 231C686.943 232.6 684.889 233.827 682.489 234.68C680.143 235.533 677.449 235.96 674.409 235.96ZM664.089 211.4L662.809 210.28H685.369L684.169 211.4C684.169 209.213 683.689 207.427 682.729 206.04C681.769 204.6 680.543 203.533 679.049 202.84C677.609 202.093 676.089 201.72 674.489 201.72C672.889 201.72 671.289 202.093 669.689 202.84C668.089 203.533 666.756 204.6 665.689 206.04C664.623 207.427 664.089 209.213 664.089 211.4ZM711.992 235.96C709.325 235.96 706.872 235.56 704.632 234.76C702.392 233.96 700.472 232.84 698.872 231.4C697.272 229.907 696.045 228.173 695.192 226.2L702.952 222.76C703.752 224.253 704.925 225.507 706.472 226.52C708.072 227.533 709.832 228.04 711.752 228.04C713.832 228.04 715.485 227.693 716.712 227C717.992 226.253 718.632 225.24 718.632 223.96C718.632 222.733 718.152 221.8 717.192 221.16C716.232 220.467 714.872 219.907 713.112 219.48L709.352 218.44C705.565 217.48 702.605 215.96 700.472 213.88C698.339 211.747 697.272 209.32 697.272 206.6C697.272 202.6 698.552 199.507 701.112 197.32C703.725 195.133 707.459 194.04 712.312 194.04C714.765 194.04 717.005 194.413 719.032 195.16C721.112 195.853 722.899 196.867 724.392 198.2C725.885 199.48 726.925 201 727.512 202.76L720.072 206.12C719.539 204.787 718.525 203.773 717.032 203.08C715.539 202.333 713.885 201.96 712.072 201.96C710.259 201.96 708.845 202.36 707.832 203.16C706.819 203.907 706.312 204.973 706.312 206.36C706.312 207.16 706.765 207.907 707.672 208.6C708.579 209.24 709.885 209.773 711.592 210.2L716.312 211.32C718.925 211.96 721.059 212.973 722.712 214.36C724.365 215.693 725.592 217.213 726.392 218.92C727.192 220.573 727.592 222.253 727.592 223.96C727.592 226.36 726.899 228.467 725.512 230.28C724.179 232.093 722.339 233.507 719.992 234.52C717.645 235.48 714.979 235.96 711.992 235.96ZM745.979 235.96C743.313 235.96 740.859 235.56 738.619 234.76C736.379 233.96 734.459 232.84 732.859 231.4C731.259 229.907 730.033 228.173 729.179 226.2L736.939 222.76C737.739 224.253 738.913 225.507 740.459 226.52C742.059 227.533 743.819 228.04 745.739 228.04C747.819 228.04 749.473 227.693 750.699 227C751.979 226.253 752.619 225.24 752.619 223.96C752.619 222.733 752.139 221.8 751.179 221.16C750.219 220.467 748.859 219.907 747.099 219.48L743.339 218.44C739.553 217.48 736.593 215.96 734.459 213.88C732.326 211.747 731.259 209.32 731.259 206.6C731.259 202.6 732.539 199.507 735.099 197.32C737.713 195.133 741.446 194.04 746.299 194.04C748.753 194.04 750.993 194.413 753.019 195.16C755.099 195.853 756.886 196.867 758.379 198.2C759.873 199.48 760.913 201 761.499 202.76L754.059 206.12C753.526 204.787 752.513 203.773 751.019 203.08C749.526 202.333 747.873 201.96 746.059 201.96C744.246 201.96 742.833 202.36 741.819 203.16C740.806 203.907 740.299 204.973 740.299 206.36C740.299 207.16 740.753 207.907 741.659 208.6C742.566 209.24 743.873 209.773 745.579 210.2L750.299 211.32C752.913 211.96 755.046 212.973 756.699 214.36C758.353 215.693 759.579 217.213 760.379 218.92C761.179 220.573 761.579 222.253 761.579 223.96C761.579 226.36 760.886 228.467 759.499 230.28C758.166 232.093 756.326 233.507 753.979 234.52C751.633 235.48 748.966 235.96 745.979 235.96ZM771.805 251.96C770.525 251.96 769.085 251.72 767.485 251.24C765.938 250.76 764.445 250.147 763.005 249.4L766.365 242.12C767.378 242.6 768.312 242.973 769.165 243.24C770.018 243.56 770.712 243.72 771.245 243.72C772.525 243.72 773.592 243.373 774.445 242.68C775.352 242.04 776.072 241.08 776.605 239.8L781.325 228.76L794.845 195H804.605L786.045 239.24C784.925 241.8 783.778 244.04 782.605 245.96C781.485 247.88 780.072 249.347 778.365 250.36C776.658 251.427 774.472 251.96 771.805 251.96ZM778.925 235L761.005 195H770.765L784.685 228.68L787.565 235H778.925ZM242.079 315V259H261.839C265.679 259 269.066 259.747 271.999 261.24C274.932 262.733 277.226 264.813 278.879 267.48C280.532 270.093 281.359 273.133 281.359 276.6C281.359 280.067 280.479 283.133 278.719 285.8C277.012 288.467 274.639 290.573 271.599 292.12C268.559 293.613 265.119 294.36 261.279 294.36H251.359V315H242.079ZM273.119 315L259.999 292.28L267.199 287.32L283.599 315H273.119ZM251.359 285.8H262.239C264.052 285.8 265.652 285.4 267.039 284.6C268.479 283.8 269.626 282.707 270.479 281.32C271.386 279.933 271.839 278.36 271.839 276.6C271.839 273.933 270.879 271.747 268.959 270.04C267.039 268.333 264.559 267.48 261.519 267.48H251.359V285.8ZM305.977 315.96C302.083 315.96 298.617 315.08 295.577 313.32C292.59 311.507 290.217 309.027 288.457 305.88C286.75 302.733 285.897 299.107 285.897 295C285.897 290.893 286.777 287.267 288.537 284.12C290.297 280.973 292.697 278.52 295.737 276.76C298.83 274.947 302.35 274.04 306.297 274.04C309.87 274.04 313.097 274.973 315.977 276.84C318.857 278.653 321.123 281.293 322.777 284.76C324.483 288.227 325.337 292.36 325.337 297.16H293.897L295.097 296.04C295.097 298.493 295.63 300.627 296.697 302.44C297.763 304.2 299.177 305.56 300.937 306.52C302.697 307.48 304.643 307.96 306.777 307.96C309.23 307.96 311.257 307.427 312.857 306.36C314.457 305.24 315.71 303.8 316.617 302.04L324.537 305.4C323.417 307.533 321.977 309.4 320.217 311C318.51 312.6 316.457 313.827 314.057 314.68C311.71 315.533 309.017 315.96 305.977 315.96ZM295.657 291.4L294.377 290.28H316.937L315.737 291.4C315.737 289.213 315.257 287.427 314.297 286.04C313.337 284.6 312.11 283.533 310.617 282.84C309.177 282.093 307.657 281.72 306.057 281.72C304.457 281.72 302.857 282.093 301.257 282.84C299.657 283.533 298.323 284.6 297.257 286.04C296.19 287.427 295.657 289.213 295.657 291.4ZM357.479 331V282.44L357.959 275H366.439V331H357.479ZM344.839 315.96C341.212 315.96 338.039 315.107 335.319 313.4C332.652 311.64 330.546 309.187 328.999 306.04C327.506 302.893 326.759 299.213 326.759 295C326.759 290.733 327.506 287.053 328.999 283.96C330.546 280.813 332.652 278.387 335.319 276.68C338.039 274.92 341.212 274.04 344.839 274.04C348.199 274.04 351.079 274.92 353.479 276.68C355.932 278.387 357.799 280.813 359.079 283.96C360.359 287.053 360.999 290.733 360.999 295C360.999 299.213 360.359 302.893 359.079 306.04C357.799 309.187 355.932 311.64 353.479 313.4C351.079 315.107 348.199 315.96 344.839 315.96ZM347.079 307.8C349.106 307.8 350.892 307.267 352.439 306.2C354.039 305.08 355.266 303.56 356.119 301.64C357.026 299.72 357.479 297.507 357.479 295C357.479 292.493 357.026 290.28 356.119 288.36C355.266 286.44 354.039 284.947 352.439 283.88C350.892 282.813 349.079 282.28 346.999 282.28C344.866 282.28 342.972 282.813 341.319 283.88C339.666 284.947 338.359 286.44 337.399 288.36C336.492 290.28 336.012 292.493 335.959 295C336.012 297.507 336.492 299.72 337.399 301.64C338.359 303.56 339.666 305.08 341.319 306.2C343.026 307.267 344.946 307.8 347.079 307.8ZM399.474 315L398.994 307.64V275H407.874V315H399.474ZM371.794 295.48V275H380.754V295.48H371.794ZM380.754 295.48C380.754 298.627 381.127 301.08 381.874 302.84C382.621 304.6 383.634 305.827 384.914 306.52C386.247 307.213 387.767 307.56 389.474 307.56C392.514 307.613 394.861 306.627 396.514 304.6C398.167 302.573 398.994 299.667 398.994 295.88H402.354C402.354 300.093 401.714 303.72 400.434 306.76C399.207 309.747 397.447 312.04 395.154 313.64C392.914 315.187 390.194 315.96 386.994 315.96C383.847 315.96 381.127 315.32 378.834 314.04C376.594 312.76 374.861 310.76 373.634 308.04C372.407 305.32 371.794 301.827 371.794 297.56V295.48H380.754ZM432.47 315.96C428.577 315.96 425.11 315.08 422.07 313.32C419.084 311.507 416.71 309.027 414.95 305.88C413.244 302.733 412.39 299.107 412.39 295C412.39 290.893 413.27 287.267 415.03 284.12C416.79 280.973 419.19 278.52 422.23 276.76C425.324 274.947 428.844 274.04 432.79 274.04C436.364 274.04 439.59 274.973 442.47 276.84C445.35 278.653 447.617 281.293 449.27 284.76C450.977 288.227 451.83 292.36 451.83 297.16H420.39L421.59 296.04C421.59 298.493 422.124 300.627 423.19 302.44C424.257 304.2 425.67 305.56 427.43 306.52C429.19 307.48 431.137 307.96 433.27 307.96C435.724 307.96 437.75 307.427 439.35 306.36C440.95 305.24 442.204 303.8 443.11 302.04L451.03 305.4C449.91 307.533 448.47 309.4 446.71 311C445.004 312.6 442.95 313.827 440.55 314.68C438.204 315.533 435.51 315.96 432.47 315.96ZM422.15 291.4L420.87 290.28H443.43L442.23 291.4C442.23 289.213 441.75 287.427 440.79 286.04C439.83 284.6 438.604 283.533 437.11 282.84C435.67 282.093 434.15 281.72 432.55 281.72C430.95 281.72 429.35 282.093 427.75 282.84C426.15 283.533 424.817 284.6 423.75 286.04C422.684 287.427 422.15 289.213 422.15 291.4ZM470.053 315.96C467.386 315.96 464.933 315.56 462.693 314.76C460.453 313.96 458.533 312.84 456.933 311.4C455.333 309.907 454.106 308.173 453.253 306.2L461.013 302.76C461.813 304.253 462.986 305.507 464.533 306.52C466.133 307.533 467.893 308.04 469.813 308.04C471.893 308.04 473.546 307.693 474.773 307C476.053 306.253 476.693 305.24 476.693 303.96C476.693 302.733 476.213 301.8 475.253 301.16C474.293 300.467 472.933 299.907 471.173 299.48L467.413 298.44C463.626 297.48 460.666 295.96 458.533 293.88C456.399 291.747 455.333 289.32 455.333 286.6C455.333 282.6 456.613 279.507 459.173 277.32C461.786 275.133 465.519 274.04 470.373 274.04C472.826 274.04 475.066 274.413 477.093 275.16C479.173 275.853 480.959 276.867 482.453 278.2C483.946 279.48 484.986 281 485.573 282.76L478.133 286.12C477.599 284.787 476.586 283.773 475.093 283.08C473.599 282.333 471.946 281.96 470.133 281.96C468.319 281.96 466.906 282.36 465.893 283.16C464.879 283.907 464.373 284.973 464.373 286.36C464.373 287.16 464.826 287.907 465.733 288.6C466.639 289.24 467.946 289.773 469.653 290.2L474.373 291.32C476.986 291.96 479.119 292.973 480.773 294.36C482.426 295.693 483.653 297.213 484.453 298.92C485.253 300.573 485.653 302.253 485.653 303.96C485.653 306.36 484.959 308.467 483.573 310.28C482.239 312.093 480.399 313.507 478.053 314.52C475.706 315.48 473.039 315.96 470.053 315.96ZM505.478 315.96C501.265 315.96 498.038 314.92 495.798 312.84C493.612 310.707 492.518 307.667 492.518 303.72V262.52H501.398V302.04C501.398 303.907 501.825 305.32 502.678 306.28C503.585 307.24 504.892 307.72 506.598 307.72C507.132 307.72 507.718 307.613 508.358 307.4C508.998 307.187 509.718 306.787 510.518 306.2L513.798 313C512.412 313.96 511.025 314.68 509.638 315.16C508.252 315.693 506.865 315.96 505.478 315.96ZM485.878 282.68V275H512.198V282.68H485.878ZM532.325 315.96C529.658 315.96 527.205 315.56 524.965 314.76C522.725 313.96 520.805 312.84 519.205 311.4C517.605 309.907 516.378 308.173 515.525 306.2L523.285 302.76C524.085 304.253 525.258 305.507 526.805 306.52C528.405 307.533 530.165 308.04 532.085 308.04C534.165 308.04 535.818 307.693 537.045 307C538.325 306.253 538.965 305.24 538.965 303.96C538.965 302.733 538.485 301.8 537.525 301.16C536.565 300.467 535.205 299.907 533.445 299.48L529.685 298.44C525.898 297.48 522.938 295.96 520.805 293.88C518.671 291.747 517.605 289.32 517.605 286.6C517.605 282.6 518.885 279.507 521.445 277.32C524.058 275.133 527.791 274.04 532.645 274.04C535.098 274.04 537.338 274.413 539.365 275.16C541.445 275.853 543.231 276.867 544.725 278.2C546.218 279.48 547.258 281 547.845 282.76L540.405 286.12C539.871 284.787 538.858 283.773 537.365 283.08C535.871 282.333 534.218 281.96 532.405 281.96C530.591 281.96 529.178 282.36 528.165 283.16C527.151 283.907 526.645 284.973 526.645 286.36C526.645 287.16 527.098 287.907 528.005 288.6C528.911 289.24 530.218 289.773 531.925 290.2L536.645 291.32C539.258 291.96 541.391 292.973 543.045 294.36C544.698 295.693 545.925 297.213 546.725 298.92C547.525 300.573 547.925 302.253 547.925 303.96C547.925 306.36 547.231 308.467 545.845 310.28C544.511 312.093 542.671 313.507 540.325 314.52C537.978 315.48 535.311 315.96 532.325 315.96ZM568.487 315V275H577.367V315H568.487ZM572.967 267.4C571.527 267.4 570.274 266.893 569.207 265.88C568.194 264.813 567.687 263.56 567.687 262.12C567.687 260.68 568.194 259.453 569.207 258.44C570.274 257.427 571.527 256.92 572.967 256.92C574.407 256.92 575.634 257.427 576.647 258.44C577.714 259.453 578.247 260.68 578.247 262.12C578.247 263.56 577.714 264.813 576.647 265.88C575.634 266.893 574.407 267.4 572.967 267.4ZM584.727 315V275H593.127L593.687 282.36V315H584.727ZM611.847 315V294.52H620.807V315H611.847ZM611.847 294.52C611.847 291.32 611.474 288.867 610.727 287.16C610.034 285.4 609.021 284.173 607.687 283.48C606.407 282.787 604.887 282.44 603.127 282.44C600.141 282.387 597.821 283.373 596.167 285.4C594.514 287.427 593.687 290.333 593.687 294.12H590.327C590.327 289.907 590.941 286.307 592.167 283.32C593.394 280.28 595.154 277.987 597.447 276.44C599.741 274.84 602.461 274.04 605.607 274.04C608.807 274.04 611.527 274.68 613.767 275.96C616.061 277.24 617.794 279.24 618.967 281.96C620.194 284.627 620.807 288.12 620.807 292.44V294.52H611.847ZM642.603 315.96C638.39 315.96 635.163 314.92 632.923 312.84C630.737 310.707 629.643 307.667 629.643 303.72V262.52H638.523V302.04C638.523 303.907 638.95 305.32 639.803 306.28C640.71 307.24 642.017 307.72 643.723 307.72C644.257 307.72 644.843 307.613 645.483 307.4C646.123 307.187 646.843 306.787 647.643 306.2L650.923 313C649.537 313.96 648.15 314.68 646.763 315.16C645.377 315.693 643.99 315.96 642.603 315.96ZM623.003 282.68V275H649.323V282.68H623.003ZM672.743 315.96C668.743 315.96 665.169 315.08 662.023 313.32C658.929 311.507 656.503 309.027 654.743 305.88C652.983 302.733 652.103 299.107 652.103 295C652.103 290.893 652.956 287.267 654.663 284.12C656.423 280.973 658.849 278.52 661.943 276.76C665.036 274.947 668.583 274.04 672.583 274.04C676.583 274.04 680.129 274.947 683.223 276.76C686.316 278.52 688.716 280.973 690.423 284.12C692.183 287.267 693.063 290.893 693.063 295C693.063 299.107 692.209 302.733 690.503 305.88C688.796 309.027 686.396 311.507 683.303 313.32C680.209 315.08 676.689 315.96 672.743 315.96ZM672.743 307.72C674.929 307.72 676.876 307.187 678.583 306.12C680.289 305 681.623 303.507 682.583 301.64C683.543 299.72 684.023 297.507 684.023 295C684.023 292.493 683.516 290.307 682.503 288.44C681.543 286.52 680.209 285.027 678.503 283.96C676.796 282.84 674.823 282.28 672.583 282.28C670.343 282.28 668.369 282.813 666.663 283.88C664.956 284.947 663.623 286.44 662.663 288.36C661.703 290.28 661.223 292.493 661.223 295C661.223 297.507 661.703 299.72 662.663 301.64C663.676 303.507 665.036 305 666.743 306.12C668.503 307.187 670.503 307.72 672.743 307.72ZM739.644 315.96C734.257 315.96 729.457 314.733 725.244 312.28C721.084 309.773 717.804 306.36 715.404 302.04C713.057 297.667 711.884 292.653 711.884 287C711.884 281.347 713.057 276.36 715.404 272.04C717.804 267.667 721.084 264.253 725.244 261.8C729.404 259.293 734.177 258.04 739.564 258.04C743.191 258.04 746.604 258.707 749.804 260.04C753.004 261.32 755.831 263.107 758.284 265.4C760.791 267.693 762.711 270.36 764.044 273.4L755.564 276.84C754.604 274.813 753.297 273.027 751.644 271.48C750.044 269.88 748.204 268.653 746.124 267.8C744.044 266.947 741.857 266.52 739.564 266.52C736.044 266.52 732.897 267.4 730.124 269.16C727.404 270.92 725.244 273.347 723.644 276.44C722.097 279.48 721.324 283 721.324 287C721.324 291 722.097 294.547 723.644 297.64C725.244 300.733 727.431 303.16 730.204 304.92C733.031 306.68 736.231 307.56 739.804 307.56C742.151 307.56 744.337 307.107 746.364 306.2C748.444 305.24 750.284 303.933 751.884 302.28C753.537 300.627 754.844 298.707 755.804 296.52L764.284 299.96C762.951 303.107 761.057 305.907 758.604 308.36C756.151 310.76 753.297 312.627 750.044 313.96C746.791 315.293 743.324 315.96 739.644 315.96ZM768.337 315V259H777.297V315H768.337ZM801.883 315.96C797.989 315.96 794.523 315.08 791.483 313.32C788.496 311.507 786.123 309.027 784.363 305.88C782.656 302.733 781.803 299.107 781.803 295C781.803 290.893 782.683 287.267 784.443 284.12C786.203 280.973 788.603 278.52 791.643 276.76C794.736 274.947 798.256 274.04 802.203 274.04C805.776 274.04 809.003 274.973 811.883 276.84C814.763 278.653 817.029 281.293 818.683 284.76C820.389 288.227 821.243 292.36 821.243 297.16H789.803L791.003 296.04C791.003 298.493 791.536 300.627 792.603 302.44C793.669 304.2 795.083 305.56 796.843 306.52C798.603 307.48 800.549 307.96 802.683 307.96C805.136 307.96 807.163 307.427 808.763 306.36C810.363 305.24 811.616 303.8 812.523 302.04L820.443 305.4C819.323 307.533 817.883 309.4 816.123 311C814.416 312.6 812.363 313.827 809.963 314.68C807.616 315.533 804.923 315.96 801.883 315.96ZM791.563 291.4L790.283 290.28H812.843L811.643 291.4C811.643 289.213 811.163 287.427 810.203 286.04C809.243 284.6 808.016 283.533 806.523 282.84C805.083 282.093 803.563 281.72 801.963 281.72C800.363 281.72 798.763 282.093 797.163 282.84C795.563 283.533 794.229 284.6 793.163 286.04C792.096 287.427 791.563 289.213 791.563 291.4ZM849.305 315L848.905 307.48V294.44C848.905 291.72 848.612 289.453 848.025 287.64C847.492 285.773 846.585 284.36 845.305 283.4C844.079 282.387 842.425 281.88 840.345 281.88C838.425 281.88 836.745 282.28 835.305 283.08C833.865 283.88 832.639 285.133 831.625 286.84L823.785 283.96C824.639 282.2 825.759 280.573 827.145 279.08C828.585 277.533 830.372 276.307 832.505 275.4C834.692 274.493 837.305 274.04 840.345 274.04C844.239 274.04 847.492 274.813 850.105 276.36C852.719 277.853 854.639 280.013 855.865 282.84C857.145 285.667 857.785 289.08 857.785 293.08L857.545 315H849.305ZM837.785 315.96C832.985 315.96 829.252 314.893 826.585 312.76C823.972 310.627 822.665 307.613 822.665 303.72C822.665 299.56 824.052 296.387 826.825 294.2C829.652 292.013 833.572 290.92 838.585 290.92H849.305V297.8H841.465C837.892 297.8 835.385 298.307 833.945 299.32C832.505 300.28 831.785 301.667 831.785 303.48C831.785 305.027 832.399 306.253 833.625 307.16C834.905 308.013 836.665 308.44 838.905 308.44C840.932 308.44 842.692 307.987 844.185 307.08C845.679 306.173 846.825 304.973 847.625 303.48C848.479 301.987 848.905 300.307 848.905 298.44H851.545C851.545 303.88 850.452 308.173 848.265 311.32C846.079 314.413 842.585 315.96 837.785 315.96ZM869.578 293.72C869.578 289.4 870.405 285.853 872.058 283.08C873.712 280.307 875.845 278.253 878.458 276.92C881.125 275.533 883.898 274.84 886.778 274.84V283.4C884.325 283.4 882.005 283.747 879.818 284.44C877.685 285.08 875.952 286.147 874.618 287.64C873.285 289.133 872.618 291.107 872.618 293.56L869.578 293.72ZM863.658 315V275H872.618V315H863.658ZM386.473 395V339H406.233C410.073 339 413.459 339.747 416.393 341.24C419.326 342.733 421.619 344.813 423.273 347.48C424.926 350.093 425.753 353.133 425.753 356.6C425.753 360.067 424.873 363.133 423.113 365.8C421.406 368.467 419.033 370.573 415.993 372.12C412.953 373.613 409.513 374.36 405.673 374.36H395.753V395H386.473ZM417.513 395L404.393 372.28L411.593 367.32L427.993 395H417.513ZM395.753 365.8H406.633C408.446 365.8 410.046 365.4 411.433 364.6C412.873 363.8 414.019 362.707 414.873 361.32C415.779 359.933 416.233 358.36 416.233 356.6C416.233 353.933 415.273 351.747 413.353 350.04C411.433 348.333 408.953 347.48 405.913 347.48H395.753V365.8ZM450.93 395.96C446.93 395.96 443.357 395.08 440.21 393.32C437.117 391.507 434.69 389.027 432.93 385.88C431.17 382.733 430.29 379.107 430.29 375C430.29 370.893 431.144 367.267 432.85 364.12C434.61 360.973 437.037 358.52 440.13 356.76C443.224 354.947 446.77 354.04 450.77 354.04C454.77 354.04 458.317 354.947 461.41 356.76C464.504 358.52 466.904 360.973 468.61 364.12C470.37 367.267 471.25 370.893 471.25 375C471.25 379.107 470.397 382.733 468.69 385.88C466.984 389.027 464.584 391.507 461.49 393.32C458.397 395.08 454.877 395.96 450.93 395.96ZM450.93 387.72C453.117 387.72 455.064 387.187 456.77 386.12C458.477 385 459.81 383.507 460.77 381.64C461.73 379.72 462.21 377.507 462.21 375C462.21 372.493 461.704 370.307 460.69 368.44C459.73 366.52 458.397 365.027 456.69 363.96C454.984 362.84 453.01 362.28 450.77 362.28C448.53 362.28 446.557 362.813 444.85 363.88C443.144 364.947 441.81 366.44 440.85 368.36C439.89 370.28 439.41 372.493 439.41 375C439.41 377.507 439.89 379.72 440.85 381.64C441.864 383.507 443.224 385 444.93 386.12C446.69 387.187 448.69 387.72 450.93 387.72ZM500.215 395L499.815 387.48V374.44C499.815 371.72 499.521 369.453 498.935 367.64C498.401 365.773 497.495 364.36 496.215 363.4C494.988 362.387 493.335 361.88 491.255 361.88C489.335 361.88 487.655 362.28 486.215 363.08C484.775 363.88 483.548 365.133 482.535 366.84L474.695 363.96C475.548 362.2 476.668 360.573 478.055 359.08C479.495 357.533 481.281 356.307 483.415 355.4C485.601 354.493 488.215 354.04 491.255 354.04C495.148 354.04 498.401 354.813 501.015 356.36C503.628 357.853 505.548 360.013 506.775 362.84C508.055 365.667 508.695 369.08 508.695 373.08L508.455 395H500.215ZM488.695 395.96C483.895 395.96 480.161 394.893 477.495 392.76C474.881 390.627 473.575 387.613 473.575 383.72C473.575 379.56 474.961 376.387 477.735 374.2C480.561 372.013 484.481 370.92 489.495 370.92H500.215V377.8H492.375C488.801 377.8 486.295 378.307 484.855 379.32C483.415 380.28 482.695 381.667 482.695 383.48C482.695 385.027 483.308 386.253 484.535 387.16C485.815 388.013 487.575 388.44 489.815 388.44C491.841 388.44 493.601 387.987 495.095 387.08C496.588 386.173 497.735 384.973 498.535 383.48C499.388 381.987 499.815 380.307 499.815 378.44H502.455C502.455 383.88 501.361 388.173 499.175 391.32C496.988 394.413 493.495 395.96 488.695 395.96ZM543.448 395L543.048 387.56V339H551.928V395H543.448ZM530.408 395.96C526.781 395.96 523.608 395.107 520.888 393.4C518.221 391.64 516.114 389.187 514.568 386.04C513.074 382.893 512.328 379.213 512.328 375C512.328 370.733 513.074 367.053 514.568 363.96C516.114 360.813 518.221 358.387 520.888 356.68C523.608 354.92 526.781 354.04 530.408 354.04C533.768 354.04 536.648 354.92 539.048 356.68C541.501 358.387 543.368 360.813 544.648 363.96C545.928 367.053 546.568 370.733 546.568 375C546.568 379.213 545.928 382.893 544.648 386.04C543.368 389.187 541.501 391.64 539.048 393.4C536.648 395.107 533.768 395.96 530.408 395.96ZM532.648 387.8C534.674 387.8 536.461 387.267 538.008 386.2C539.608 385.08 540.834 383.56 541.688 381.64C542.594 379.72 543.048 377.507 543.048 375C543.048 372.493 542.594 370.28 541.688 368.36C540.834 366.44 539.608 364.947 538.008 363.88C536.461 362.813 534.648 362.28 532.568 362.28C530.434 362.28 528.541 362.813 526.888 363.88C525.234 364.947 523.928 366.44 522.968 368.36C522.061 370.28 521.581 372.493 521.528 375C521.581 377.507 522.061 379.72 522.968 381.64C523.928 383.56 525.234 385.08 526.888 386.2C528.594 387.267 530.514 387.8 532.648 387.8ZM558.633 395V355H567.033L567.433 360.36C568.66 358.28 570.233 356.707 572.153 355.64C574.073 354.573 576.26 354.04 578.713 354.04C581.913 354.04 584.633 354.76 586.873 356.2C589.113 357.64 590.74 359.827 591.753 362.76C592.927 359.933 594.58 357.773 596.713 356.28C598.847 354.787 601.353 354.04 604.233 354.04C608.873 354.04 612.447 355.533 614.953 358.52C617.46 361.453 618.687 365.987 618.633 372.12V395H609.753V374.52C609.753 371.32 609.407 368.867 608.713 367.16C608.02 365.4 607.087 364.173 605.913 363.48C604.74 362.787 603.38 362.44 601.833 362.44C599.06 362.387 596.9 363.373 595.353 365.4C593.86 367.427 593.113 370.333 593.113 374.12V395H584.153V374.52C584.153 371.32 583.807 368.867 583.113 367.16C582.473 365.4 581.567 364.173 580.393 363.48C579.22 362.787 577.86 362.44 576.313 362.44C573.54 362.387 571.38 363.373 569.833 365.4C568.34 367.427 567.593 370.333 567.593 374.12V395H558.633ZM648.974 395L648.574 387.48V374.44C648.574 371.72 648.281 369.453 647.694 367.64C647.161 365.773 646.254 364.36 644.974 363.4C643.747 362.387 642.094 361.88 640.014 361.88C638.094 361.88 636.414 362.28 634.974 363.08C633.534 363.88 632.307 365.133 631.294 366.84L623.454 363.96C624.307 362.2 625.427 360.573 626.814 359.08C628.254 357.533 630.041 356.307 632.174 355.4C634.361 354.493 636.974 354.04 640.014 354.04C643.907 354.04 647.161 354.813 649.774 356.36C652.387 357.853 654.307 360.013 655.534 362.84C656.814 365.667 657.454 369.08 657.454 373.08L657.214 395H648.974ZM637.454 395.96C632.654 395.96 628.921 394.893 626.254 392.76C623.641 390.627 622.334 387.613 622.334 383.72C622.334 379.56 623.721 376.387 626.494 374.2C629.321 372.013 633.241 370.92 638.254 370.92H648.974V377.8H641.134C637.561 377.8 635.054 378.307 633.614 379.32C632.174 380.28 631.454 381.667 631.454 383.48C631.454 385.027 632.067 386.253 633.294 387.16C634.574 388.013 636.334 388.44 638.574 388.44C640.601 388.44 642.361 387.987 643.854 387.08C645.347 386.173 646.494 384.973 647.294 383.48C648.147 381.987 648.574 380.307 648.574 378.44H651.214C651.214 383.88 650.121 388.173 647.934 391.32C645.747 394.413 642.254 395.96 637.454 395.96ZM663.727 411V355H672.127L672.687 362.36V411H663.727ZM685.327 395.96C681.967 395.96 679.061 395.107 676.607 393.4C674.207 391.64 672.367 389.187 671.087 386.04C669.807 382.893 669.167 379.213 669.167 375C669.167 370.733 669.807 367.053 671.087 363.96C672.367 360.813 674.207 358.387 676.607 356.68C679.061 354.92 681.967 354.04 685.327 354.04C688.954 354.04 692.101 354.92 694.767 356.68C697.487 358.387 699.594 360.813 701.087 363.96C702.634 367.053 703.407 370.733 703.407 375C703.407 379.213 702.634 382.893 701.087 386.04C699.594 389.187 697.487 391.64 694.767 393.4C692.101 395.107 688.954 395.96 685.327 395.96ZM683.087 387.8C685.221 387.8 687.114 387.267 688.767 386.2C690.421 385.08 691.727 383.56 692.687 381.64C693.701 379.72 694.207 377.507 694.207 375C694.207 372.493 693.727 370.28 692.767 368.36C691.861 366.44 690.581 364.947 688.927 363.88C687.274 362.813 685.354 362.28 683.167 362.28C681.141 362.28 679.327 362.813 677.727 363.88C676.127 364.947 674.874 366.44 673.967 368.36C673.114 370.28 672.687 372.493 672.687 375C672.687 377.507 673.114 379.72 673.967 381.64C674.874 383.56 676.101 385.08 677.647 386.2C679.247 387.267 681.061 387.8 683.087 387.8ZM722.422 395.96C719.755 395.96 717.302 395.56 715.062 394.76C712.822 393.96 710.902 392.84 709.302 391.4C707.702 389.907 706.475 388.173 705.622 386.2L713.382 382.76C714.182 384.253 715.355 385.507 716.902 386.52C718.502 387.533 720.262 388.04 722.182 388.04C724.262 388.04 725.915 387.693 727.142 387C728.422 386.253 729.062 385.24 729.062 383.96C729.062 382.733 728.582 381.8 727.622 381.16C726.662 380.467 725.302 379.907 723.542 379.48L719.782 378.44C715.995 377.48 713.035 375.96 710.902 373.88C708.768 371.747 707.702 369.32 707.702 366.6C707.702 362.6 708.982 359.507 711.542 357.32C714.155 355.133 717.888 354.04 722.742 354.04C725.195 354.04 727.435 354.413 729.462 355.16C731.542 355.853 733.328 356.867 734.822 358.2C736.315 359.48 737.355 361 737.942 362.76L730.502 366.12C729.968 364.787 728.955 363.773 727.462 363.08C725.968 362.333 724.315 361.96 722.502 361.96C720.688 361.96 719.275 362.36 718.262 363.16C717.248 363.907 716.742 364.973 716.742 366.36C716.742 367.16 717.195 367.907 718.102 368.6C719.008 369.24 720.315 369.773 722.022 370.2L726.742 371.32C729.355 371.96 731.488 372.973 733.142 374.36C734.795 375.693 736.022 377.213 736.822 378.92C737.622 380.573 738.022 382.253 738.022 383.96C738.022 386.36 737.328 388.467 735.942 390.28C734.608 392.093 732.768 393.507 730.422 394.52C728.075 395.48 725.408 395.96 722.422 395.96Z" fill="url(#paint2_linear_2_729)"/>
<path d="M421.683 545.72C423.603 545.72 425.246 546.115 426.611 546.904C427.977 547.672 429.011 548.707 429.715 550.008C430.441 551.288 430.803 552.696 430.803 554.232C430.803 555.981 430.462 557.539 429.779 558.904C429.097 560.269 428.115 561.336 426.835 562.104C425.555 562.872 424.009 563.256 422.195 563.256C420.169 563.256 418.473 562.861 417.107 562.072C415.763 561.283 414.75 560.227 414.067 558.904C413.406 557.56 413.075 556.067 413.075 554.424C413.075 552.76 413.438 551.277 414.163 549.976C414.889 548.653 415.891 547.619 417.171 546.872C418.473 546.104 419.977 545.72 421.683 545.72ZM422.163 560.92C423.102 560.92 423.881 560.621 424.499 560.024C425.118 559.427 425.587 558.648 425.907 557.688C426.227 556.728 426.387 555.693 426.387 554.584C426.387 553.773 426.313 552.984 426.163 552.216C426.035 551.427 425.801 550.723 425.459 550.104C425.118 549.464 424.638 548.952 424.019 548.568C423.422 548.184 422.654 547.992 421.715 547.992C420.798 547.992 420.019 548.269 419.379 548.824C418.761 549.379 418.291 550.115 417.971 551.032C417.651 551.949 417.491 552.963 417.491 554.072C417.491 554.861 417.555 555.661 417.683 556.472C417.811 557.283 418.046 558.029 418.387 558.712C418.729 559.373 419.198 559.907 419.795 560.312C420.414 560.717 421.203 560.92 422.163 560.92ZM453.082 548.056L450.81 547.736L451.162 546.04H458.138V547.16L455.642 548.12L451.354 563H448.474L444.314 552.344L440.538 563H437.338L432.41 548.056L430.01 547.64L430.33 546.04H439.546V547.16L436.986 547.96L439.898 557.656L444.058 546.04H446.234L450.458 557.08L453.082 548.056ZM461.034 555.448C461.034 556.664 461.301 557.645 461.834 558.392C462.368 559.139 463.082 559.693 463.978 560.056C464.896 560.397 465.888 560.568 466.954 560.568C467.701 560.568 468.48 560.44 469.29 560.184C470.122 559.928 470.944 559.533 471.754 559L472.778 560.856C471.733 561.667 470.602 562.275 469.386 562.68C468.17 563.085 467.029 563.288 465.962 563.288C464.746 563.288 463.573 563.128 462.442 562.808C461.312 562.488 460.298 561.987 459.402 561.304C458.506 560.621 457.792 559.736 457.258 558.648C456.746 557.539 456.49 556.195 456.49 554.616C456.49 552.973 456.768 551.587 457.322 550.456C457.898 549.325 458.634 548.419 459.53 547.736C460.426 547.053 461.408 546.563 462.474 546.264C463.541 545.944 464.565 545.784 465.546 545.784C467.36 545.784 468.821 546.221 469.93 547.096C471.061 547.971 471.893 549.144 472.426 550.616C472.96 552.067 473.226 553.677 473.226 555.448H461.034ZM469.514 552.824C469.514 551.693 469.322 550.797 468.938 550.136C468.554 549.453 468.064 548.963 467.466 548.664C466.869 548.344 466.25 548.184 465.61 548.184C464.885 548.184 464.181 548.355 463.498 548.696C462.837 549.037 462.282 549.549 461.834 550.232C461.408 550.915 461.173 551.779 461.13 552.824H469.514ZM474.099 548.312L473.939 546.68L481.171 545.656V548.312C481.896 547.437 482.782 546.797 483.827 546.392C484.872 545.965 485.832 545.752 486.707 545.752C487.731 545.752 488.734 545.944 489.715 546.328C490.696 546.691 491.507 547.299 492.147 548.152C492.808 549.005 493.15 550.168 493.171 551.64V560.856L495.571 561.304L495.251 563H486.195V561.88L488.691 560.92V552.92C488.691 551.555 488.478 550.563 488.051 549.944C487.624 549.325 486.814 549.016 485.619 549.016C484.766 549.016 483.912 549.176 483.059 549.496C482.227 549.816 481.598 550.221 481.171 550.712V560.856L483.571 561.304L483.251 563H473.875V561.88L476.691 560.92V548.792L474.099 548.312ZM495.117 548.344L494.957 546.712L502.189 545.688V547.832C502.914 547.171 503.65 546.659 504.397 546.296C505.143 545.933 506.018 545.752 507.021 545.752C508.429 545.752 509.698 546.072 510.829 546.712C511.981 547.331 512.898 548.259 513.581 549.496C514.263 550.733 514.605 552.269 514.605 554.104C514.605 555.64 514.359 556.984 513.869 558.136C513.378 559.288 512.706 560.259 511.853 561.048C511.021 561.816 510.082 562.392 509.037 562.776C507.991 563.16 506.914 563.352 505.805 563.352C505.165 563.352 504.546 563.277 503.949 563.128C503.373 563 502.786 562.712 502.189 562.264V568.152L505.517 568.6L505.197 570.296H494.893V569.176L497.709 568.216V548.824L495.117 548.344ZM506.413 548.472C505.73 548.472 505.015 548.653 504.269 549.016C503.543 549.357 502.85 549.816 502.189 550.392V559.288C503.277 560.397 504.407 560.952 505.581 560.952C506.477 560.952 507.266 560.664 507.949 560.088C508.631 559.491 509.165 558.723 509.549 557.784C509.933 556.845 510.125 555.843 510.125 554.776C510.125 553.795 510.007 552.824 509.773 551.864C509.538 550.883 509.154 550.072 508.621 549.432C508.087 548.792 507.351 548.472 506.413 548.472ZM521.333 555.448C521.333 556.664 521.6 557.645 522.133 558.392C522.666 559.139 523.381 559.693 524.277 560.056C525.194 560.397 526.186 560.568 527.253 560.568C528 560.568 528.778 560.44 529.589 560.184C530.421 559.928 531.242 559.533 532.053 559L533.077 560.856C532.032 561.667 530.901 562.275 529.685 562.68C528.469 563.085 527.328 563.288 526.261 563.288C525.045 563.288 523.872 563.128 522.741 562.808C521.61 562.488 520.597 561.987 519.701 561.304C518.805 560.621 518.09 559.736 517.557 558.648C517.045 557.539 516.789 556.195 516.789 554.616C516.789 552.973 517.066 551.587 517.621 550.456C518.197 549.325 518.933 548.419 519.829 547.736C520.725 547.053 521.706 546.563 522.773 546.264C523.84 545.944 524.864 545.784 525.845 545.784C527.658 545.784 529.12 546.221 530.229 547.096C531.36 547.971 532.192 549.144 532.725 550.616C533.258 552.067 533.525 553.677 533.525 555.448H521.333ZM529.813 552.824C529.813 551.693 529.621 550.797 529.237 550.136C528.853 549.453 528.362 548.963 527.765 548.664C527.168 548.344 526.549 548.184 525.909 548.184C525.184 548.184 524.48 548.355 523.797 548.696C523.136 549.037 522.581 549.549 522.133 550.232C521.706 550.915 521.472 551.779 521.429 552.824H529.813ZM546.801 548.696C546.438 548.461 546.065 548.301 545.681 548.216C545.297 548.131 544.924 548.088 544.561 548.088C543.644 548.088 542.801 548.365 542.033 548.92C541.265 549.475 540.657 550.211 540.209 551.128C539.761 552.045 539.537 553.048 539.537 554.136C539.537 555.267 539.708 556.344 540.049 557.368C540.39 558.392 540.934 559.224 541.681 559.864C542.449 560.483 543.452 560.792 544.689 560.792C545.414 560.792 546.161 560.653 546.929 560.376C547.697 560.077 548.412 559.683 549.073 559.192L550.065 560.888C549.212 561.699 548.273 562.317 547.249 562.744C546.225 563.149 545.169 563.352 544.081 563.352C542.993 563.352 541.916 563.192 540.849 562.872C539.804 562.552 538.844 562.051 537.969 561.368C537.094 560.664 536.401 559.736 535.889 558.584C535.377 557.432 535.121 556.024 535.121 554.36C535.121 552.781 535.42 551.448 536.017 550.36C536.614 549.272 537.382 548.387 538.321 547.704C539.281 547.021 540.305 546.531 541.393 546.232C542.502 545.912 543.558 545.752 544.561 545.752C546.353 545.752 548.049 546.253 549.649 547.256V551.832L547.729 552.216L546.801 548.696ZM551.418 541.336L551.258 539.704L558.49 538.68V548.312C559.215 547.437 560.1 546.797 561.146 546.392C562.191 545.965 563.151 545.752 564.026 545.752C565.05 545.752 566.052 545.944 567.034 546.328C568.015 546.691 568.826 547.299 569.466 548.152C570.127 549.005 570.468 550.168 570.49 551.64V560.856L572.89 561.304L572.57 563H563.514V561.88L566.01 560.92V552.92C566.01 551.555 565.796 550.563 565.37 549.944C564.943 549.325 564.132 549.016 562.938 549.016C562.084 549.016 561.231 549.176 560.378 549.496C559.546 549.816 558.916 550.221 558.49 550.712V560.856L560.89 561.304L560.57 563H551.194V561.88L554.01 560.92V541.816L551.418 541.336ZM581.782 545.72C583.702 545.72 585.345 546.115 586.71 546.904C588.075 547.672 589.11 548.707 589.814 550.008C590.539 551.288 590.902 552.696 590.902 554.232C590.902 555.981 590.561 557.539 589.878 558.904C589.195 560.269 588.214 561.336 586.934 562.104C585.654 562.872 584.107 563.256 582.294 563.256C580.267 563.256 578.571 562.861 577.206 562.072C575.862 561.283 574.849 560.227 574.166 558.904C573.505 557.56 573.174 556.067 573.174 554.424C573.174 552.76 573.537 551.277 574.262 549.976C574.987 548.653 575.99 547.619 577.27 546.872C578.571 546.104 580.075 545.72 581.782 545.72ZM582.262 560.92C583.201 560.92 583.979 560.621 584.598 560.024C585.217 559.427 585.686 558.648 586.006 557.688C586.326 556.728 586.486 555.693 586.486 554.584C586.486 553.773 586.411 552.984 586.262 552.216C586.134 551.427 585.899 550.723 585.558 550.104C585.217 549.464 584.737 548.952 584.118 548.568C583.521 548.184 582.753 547.992 581.814 547.992C580.897 547.992 580.118 548.269 579.478 548.824C578.859 549.379 578.39 550.115 578.07 551.032C577.75 551.949 577.59 552.963 577.59 554.072C577.59 554.861 577.654 555.661 577.782 556.472C577.91 557.283 578.145 558.029 578.486 558.712C578.827 559.373 579.297 559.907 579.894 560.312C580.513 560.717 581.302 560.92 582.262 560.92ZM591.326 547.736L591.646 546.04H598.206V556.248C598.206 557.613 598.419 558.605 598.846 559.224C599.294 559.843 600.105 560.152 601.278 560.152C602.131 560.152 602.985 560.003 603.838 559.704C604.691 559.405 605.321 559.011 605.726 558.52V548.184L603.326 547.736L603.646 546.04H610.206V560.504L612.798 560.984L612.958 562.616L605.726 563.384V560.6C605.001 561.475 604.115 562.147 603.07 562.616C602.025 563.064 601.065 563.288 600.19 563.288C599.166 563.288 598.163 563.107 597.182 562.744C596.201 562.36 595.39 561.741 594.75 560.888C594.11 560.035 593.769 558.872 593.726 557.4V548.184L591.326 547.736ZM618.018 560.632C618.338 560.781 618.732 560.909 619.202 561.016C619.671 561.123 620.151 561.176 620.642 561.176C621.474 561.176 622.231 561.005 622.914 560.664C623.596 560.301 623.948 559.693 623.97 558.84C623.991 558.328 623.788 557.901 623.362 557.56C622.935 557.219 622.38 556.909 621.698 556.632C621.036 556.333 620.311 556.024 619.522 555.704C618.754 555.384 618.028 555 617.346 554.552C616.663 554.104 616.098 553.549 615.65 552.888C615.223 552.205 615.01 551.363 615.01 550.36C615.01 549.229 615.362 548.333 616.066 547.672C616.77 546.989 617.666 546.509 618.754 546.232C619.842 545.933 620.962 545.784 622.114 545.784C623.159 545.784 624.151 545.891 625.09 546.104C626.05 546.296 626.818 546.552 627.394 546.872V551.288L625.41 551.64L624.578 548.44C624.215 548.333 623.874 548.237 623.554 548.152C623.255 548.067 622.85 548.024 622.338 548.024C621.527 548.024 620.823 548.195 620.226 548.536C619.65 548.856 619.362 549.304 619.362 549.88C619.362 550.499 619.575 551.021 620.002 551.448C620.45 551.875 621.015 552.248 621.698 552.568C622.402 552.888 623.138 553.219 623.906 553.56C624.674 553.88 625.399 554.253 626.082 554.68C626.786 555.107 627.351 555.629 627.778 556.248C628.226 556.845 628.45 557.603 628.45 558.52C628.45 559.736 628.098 560.696 627.394 561.4C626.69 562.104 625.772 562.616 624.642 562.936C623.532 563.235 622.359 563.384 621.122 563.384C619.927 563.384 618.754 563.256 617.602 563C616.471 562.765 615.5 562.488 614.69 562.168V557.784L617.154 557.4L618.018 560.632ZM630.492 560.664C631.175 559.405 632.167 558.435 633.468 557.752C634.727 558.435 635.676 559.384 636.316 560.6C635.612 561.837 634.631 562.808 633.372 563.512C632.092 562.851 631.132 561.901 630.492 560.664ZM650.273 548.696C649.911 548.461 649.537 548.301 649.153 548.216C648.769 548.131 648.396 548.088 648.033 548.088C647.116 548.088 646.273 548.365 645.505 548.92C644.737 549.475 644.129 550.211 643.681 551.128C643.233 552.045 643.009 553.048 643.009 554.136C643.009 555.267 643.18 556.344 643.521 557.368C643.863 558.392 644.407 559.224 645.153 559.864C645.921 560.483 646.924 560.792 648.161 560.792C648.887 560.792 649.633 560.653 650.401 560.376C651.169 560.077 651.884 559.683 652.545 559.192L653.537 560.888C652.684 561.699 651.745 562.317 650.721 562.744C649.697 563.149 648.641 563.352 647.553 563.352C646.465 563.352 645.388 563.192 644.321 562.872C643.276 562.552 642.316 562.051 641.441 561.368C640.567 560.664 639.873 559.736 639.361 558.584C638.849 557.432 638.593 556.024 638.593 554.36C638.593 552.781 638.892 551.448 639.489 550.36C640.087 549.272 640.855 548.387 641.793 547.704C642.753 547.021 643.777 546.531 644.865 546.232C645.975 545.912 647.031 545.752 648.033 545.752C649.825 545.752 651.521 546.253 653.121 547.256V551.832L651.201 552.216L650.273 548.696ZM663.301 545.72C665.221 545.72 666.864 546.115 668.229 546.904C669.594 547.672 670.629 548.707 671.333 550.008C672.058 551.288 672.421 552.696 672.421 554.232C672.421 555.981 672.08 557.539 671.397 558.904C670.714 560.269 669.733 561.336 668.453 562.104C667.173 562.872 665.626 563.256 663.813 563.256C661.786 563.256 660.09 562.861 658.725 562.072C657.381 561.283 656.368 560.227 655.685 558.904C655.024 557.56 654.693 556.067 654.693 554.424C654.693 552.76 655.056 551.277 655.781 549.976C656.506 548.653 657.509 547.619 658.789 546.872C660.09 546.104 661.594 545.72 663.301 545.72ZM663.781 560.92C664.72 560.92 665.498 560.621 666.117 560.024C666.736 559.427 667.205 558.648 667.525 557.688C667.845 556.728 668.005 555.693 668.005 554.584C668.005 553.773 667.93 552.984 667.781 552.216C667.653 551.427 667.418 550.723 667.077 550.104C666.736 549.464 666.256 548.952 665.637 548.568C665.04 548.184 664.272 547.992 663.333 547.992C662.416 547.992 661.637 548.269 660.997 548.824C660.378 549.379 659.909 550.115 659.589 551.032C659.269 551.949 659.109 552.963 659.109 554.072C659.109 554.861 659.173 555.661 659.301 556.472C659.429 557.283 659.664 558.029 660.005 558.712C660.346 559.373 660.816 559.907 661.413 560.312C662.032 560.717 662.821 560.92 663.781 560.92ZM673.311 548.312L673.151 546.68L680.383 545.656V548.344C681.108 547.469 681.994 546.819 683.039 546.392C684.084 545.965 685.044 545.752 685.919 545.752C687.071 545.752 688.202 545.976 689.311 546.424C690.42 546.872 691.242 547.672 691.775 548.824C692.671 547.821 693.642 547.064 694.687 546.552C695.754 546.019 696.81 545.752 697.855 545.752C698.879 545.752 699.882 545.944 700.863 546.328C701.844 546.691 702.655 547.299 703.295 548.152C703.956 549.005 704.298 550.168 704.319 551.64V560.856L706.719 561.304L706.399 563H697.343V561.88L699.839 560.92V552.92C699.839 551.555 699.626 550.563 699.199 549.944C698.772 549.325 697.962 549.016 696.767 549.016C695.914 549.016 695.06 549.197 694.207 549.56C693.354 549.901 692.714 550.317 692.287 550.808C692.308 550.957 692.33 551.107 692.351 551.256C692.372 551.384 692.383 551.533 692.383 551.704V560.856L694.783 561.304L694.463 563H685.407V561.88L687.903 560.92V552.92C687.903 551.555 687.69 550.563 687.263 549.944C686.836 549.325 686.026 549.016 684.831 549.016C683.978 549.016 683.124 549.176 682.271 549.496C681.439 549.816 680.81 550.221 680.383 550.712V560.856L682.783 561.304L682.463 563H673.087V561.88L675.903 560.92V548.792L673.311 548.312Z" fill="white"/>
</g>
<defs>
<filter id="filter0_f_2_729" x="-180" y="-100" width="1479" height="830" filterUnits="userSpaceOnUse" color-interpolation-filters="sRGB">
<feFlood flood-opacity="0" result="BackgroundImageFix"/>
<feBlend mode="normal" in="SourceGraphic" in2="BackgroundImageFix" result="shape"/>
<feGaussianBlur stdDeviation="50" result="effect1_foregroundBlur_2_729"/>
</filter>
<filter id="filter1_f_2_729" x="-100" y="-100" width="1400" height="830" filterUnits="userSpaceOnUse" color-interpolation-filters="sRGB">
<feFlood flood-opacity="0" result="BackgroundImageFix"/>
<feBlend mode="normal" in="SourceGraphic" in2="BackgroundImageFix" result="shape"/>
<feGaussianBlur stdDeviation="50" result="effect1_foregroundBlur_2_729"/>
</filter>
<radialGradient id="paint0_radial_2_729" cx="0" cy="0" r="1" gradientUnits="userSpaceOnUse" gradientTransform="translate(2094.23 567.682) rotate(133.137) scale(1220.08 2217.19)">
<stop stop-opacity="0"/>
<stop offset="0.487941" stop-opacity="0"/>
<stop offset="0.713185" stop-color="#AD9C5F"/>
<stop offset="1" stop-color="#404040"/>
</radialGradient>
<radialGradient id="paint1_radial_2_729" cx="0" cy="0" r="1" gradientUnits="userSpaceOnUse" gradientTransform="translate(894.228 -62.318) rotate(133.137) scale(1220.08 2217.19)">
<stop stop-opacity="0"/>
<stop offset="0.487941" stop-opacity="0"/>
<stop offset="0.713185" stop-color="#AD9C5F"/>
<stop offset="1" stop-color="#404040"/>
</radialGradient>
<linearGradient id="paint2_linear_2_729" x1="656.22" y1="228.071" x2="577.264" y2="466.949" gradientUnits="userSpaceOnUse">
<stop stop-color="white"/>
<stop offset="1" stop-color="#FAFAFA" stop-opacity="0.9"/>
</linearGradient>
<clipPath id="clip0_2_729">
<rect width="1120" height="630" fill="white"/>
</clipPath>
<clipPath id="clip1_2_729">
<rect width="1279" height="630" fill="white" transform="translate(-80)"/>
</clipPath>
</defs>
</svg>
