<svg width="1120" height="630" viewBox="0 0 1120 630" fill="none" xmlns="http://www.w3.org/2000/svg">
<g clip-path="url(#clip0_2_501)">
<rect width="1120" height="630" fill="#171717"/>
<g filter="url(#filter0_f_2_501)">
<rect width="1200" height="630" fill="url(#paint0_linear_2_501)"/>
</g>
<path d="M336.533 263L353.013 207H362.453L345.493 263H336.533ZM302.613 263L285.893 207H295.253L311.653 263H302.613ZM303.813 263L319.573 207H328.133L312.453 263H303.813ZM335.653 263L320.213 207H328.773L344.693 263H335.653ZM364.982 263V207H373.942V263H364.982ZM392.102 263V242.52H401.062V263H392.102ZM392.102 242.52C392.102 239.32 391.729 236.867 390.982 235.16C390.236 233.4 389.196 232.173 387.862 231.48C386.582 230.787 385.089 230.44 383.382 230.44C380.342 230.387 377.996 231.373 376.342 233.4C374.742 235.427 373.942 238.333 373.942 242.12H370.502C370.502 237.907 371.116 234.307 372.342 231.32C373.622 228.28 375.409 225.987 377.702 224.44C379.996 222.84 382.716 222.04 385.862 222.04C389.009 222.04 391.729 222.68 394.022 223.96C396.316 225.24 398.049 227.24 399.222 229.96C400.449 232.627 401.062 236.12 401.062 240.44V242.52H392.102ZM412.319 279.96C411.039 279.96 409.599 279.72 407.999 279.24C406.452 278.76 404.959 278.147 403.519 277.4L406.879 270.12C407.892 270.6 408.826 270.973 409.679 271.24C410.532 271.56 411.226 271.72 411.759 271.72C413.039 271.72 414.106 271.373 414.959 270.68C415.866 270.04 416.586 269.08 417.119 267.8L421.839 256.76L435.359 223H445.119L426.559 267.24C425.439 269.8 424.292 272.04 423.119 273.96C421.999 275.88 420.586 277.347 418.879 278.36C417.172 279.427 414.986 279.96 412.319 279.96ZM419.439 263L401.519 223H411.279L425.199 256.68L428.079 263H419.439ZM490.709 263.96C485.056 263.96 480.016 262.733 475.589 260.28C471.216 257.773 467.776 254.36 465.269 250.04C462.762 245.667 461.509 240.68 461.509 235.08C461.509 229.373 462.762 224.36 465.269 220.04C467.776 215.667 471.216 212.253 475.589 209.8C480.016 207.293 485.056 206.04 490.709 206.04C493.962 206.04 497.002 206.547 499.829 207.56C502.709 208.573 505.296 209.96 507.589 211.72C509.882 213.427 511.749 215.427 513.189 217.72L505.669 222.52C504.656 220.973 503.349 219.587 501.749 218.36C500.149 217.133 498.389 216.2 496.469 215.56C494.602 214.867 492.682 214.52 490.709 214.52C486.869 214.52 483.456 215.4 480.469 217.16C477.536 218.92 475.216 221.347 473.509 224.44C471.802 227.48 470.949 231.027 470.949 235.08C470.949 239.027 471.776 242.547 473.429 245.64C475.136 248.733 477.482 251.16 480.469 252.92C483.509 254.68 487.002 255.56 490.949 255.56C494.042 255.56 496.816 254.92 499.269 253.64C501.722 252.36 503.642 250.573 505.029 248.28C506.469 245.987 507.189 243.347 507.189 240.36L516.069 239.24C516.069 244.307 514.976 248.707 512.789 252.44C510.656 256.12 507.669 258.973 503.829 261C500.042 262.973 495.669 263.96 490.709 263.96ZM493.749 241.08V233.56H516.069V239.8L511.109 241.08H493.749ZM526.069 241.72C526.069 237.4 526.896 233.853 528.549 231.08C530.202 228.307 532.336 226.253 534.949 224.92C537.616 223.533 540.389 222.84 543.269 222.84V231.4C540.816 231.4 538.496 231.747 536.309 232.44C534.176 233.08 532.442 234.147 531.109 235.64C529.776 237.133 529.109 239.107 529.109 241.56L526.069 241.72ZM520.149 263V223H529.109V263H520.149ZM570.412 263L570.012 255.48V242.44C570.012 239.72 569.718 237.453 569.132 235.64C568.598 233.773 567.692 232.36 566.412 231.4C565.185 230.387 563.532 229.88 561.452 229.88C559.532 229.88 557.852 230.28 556.412 231.08C554.972 231.88 553.745 233.133 552.732 234.84L544.892 231.96C545.745 230.2 546.865 228.573 548.252 227.08C549.692 225.533 551.478 224.307 553.612 223.4C555.798 222.493 558.412 222.04 561.452 222.04C565.345 222.04 568.598 222.813 571.212 224.36C573.825 225.853 575.745 228.013 576.972 230.84C578.252 233.667 578.892 237.08 578.892 241.08L578.652 263H570.412ZM558.892 263.96C554.092 263.96 550.358 262.893 547.692 260.76C545.078 258.627 543.772 255.613 543.772 251.72C543.772 247.56 545.158 244.387 547.932 242.2C550.758 240.013 554.678 238.92 559.692 238.92H570.412V245.8H562.572C558.998 245.8 556.492 246.307 555.052 247.32C553.612 248.28 552.892 249.667 552.892 251.48C552.892 253.027 553.505 254.253 554.732 255.16C556.012 256.013 557.772 256.44 560.012 256.44C562.038 256.44 563.798 255.987 565.292 255.08C566.785 254.173 567.932 252.973 568.732 251.48C569.585 249.987 570.012 248.307 570.012 246.44H572.652C572.652 251.88 571.558 256.173 569.372 259.32C567.185 262.413 563.692 263.96 558.892 263.96ZM613.645 263L613.245 255.56V207H622.125V263H613.645ZM600.605 263.96C596.978 263.96 593.805 263.107 591.085 261.4C588.418 259.64 586.311 257.187 584.765 254.04C583.271 250.893 582.525 247.213 582.525 243C582.525 238.733 583.271 235.053 584.765 231.96C586.311 228.813 588.418 226.387 591.085 224.68C593.805 222.92 596.978 222.04 600.605 222.04C603.965 222.04 606.845 222.92 609.245 224.68C611.698 226.387 613.565 228.813 614.845 231.96C616.125 235.053 616.765 238.733 616.765 243C616.765 247.213 616.125 250.893 614.845 254.04C613.565 257.187 611.698 259.64 609.245 261.4C606.845 263.107 603.965 263.96 600.605 263.96ZM602.845 255.8C604.871 255.8 606.658 255.267 608.205 254.2C609.805 253.08 611.031 251.56 611.885 249.64C612.791 247.72 613.245 245.507 613.245 243C613.245 240.493 612.791 238.28 611.885 236.36C611.031 234.44 609.805 232.947 608.205 231.88C606.658 230.813 604.845 230.28 602.765 230.28C600.631 230.28 598.738 230.813 597.085 231.88C595.431 232.947 594.125 234.44 593.165 236.36C592.258 238.28 591.778 240.493 591.725 243C591.778 245.507 592.258 247.72 593.165 249.64C594.125 251.56 595.431 253.08 597.085 254.2C598.791 255.267 600.711 255.8 602.845 255.8ZM655.63 263L655.15 255.64V223H664.03V263H655.63ZM627.95 243.48V223H636.91V243.48H627.95ZM636.91 243.48C636.91 246.627 637.284 249.08 638.03 250.84C638.777 252.6 639.79 253.827 641.07 254.52C642.404 255.213 643.924 255.56 645.63 255.56C648.67 255.613 651.017 254.627 652.67 252.6C654.324 250.573 655.15 247.667 655.15 243.88H658.51C658.51 248.093 657.87 251.72 656.59 254.76C655.364 257.747 653.604 260.04 651.31 261.64C649.07 263.187 646.35 263.96 643.15 263.96C640.004 263.96 637.284 263.32 634.99 262.04C632.75 260.76 631.017 258.76 629.79 256.04C628.564 253.32 627.95 249.827 627.95 245.56V243.48H636.91ZM695.187 263L694.787 255.48V242.44C694.787 239.72 694.493 237.453 693.907 235.64C693.373 233.773 692.467 232.36 691.187 231.4C689.96 230.387 688.307 229.88 686.227 229.88C684.307 229.88 682.627 230.28 681.187 231.08C679.747 231.88 678.52 233.133 677.507 234.84L669.667 231.96C670.52 230.2 671.64 228.573 673.027 227.08C674.467 225.533 676.253 224.307 678.387 223.4C680.573 222.493 683.187 222.04 686.227 222.04C690.12 222.04 693.373 222.813 695.987 224.36C698.6 225.853 700.52 228.013 701.747 230.84C703.027 233.667 703.667 237.08 703.667 241.08L703.427 263H695.187ZM683.667 263.96C678.867 263.96 675.133 262.893 672.467 260.76C669.853 258.627 668.547 255.613 668.547 251.72C668.547 247.56 669.933 244.387 672.707 242.2C675.533 240.013 679.453 238.92 684.467 238.92H695.187V245.8H687.347C683.773 245.8 681.267 246.307 679.827 247.32C678.387 248.28 677.667 249.667 677.667 251.48C677.667 253.027 678.28 254.253 679.507 255.16C680.787 256.013 682.547 256.44 684.787 256.44C686.813 256.44 688.573 255.987 690.067 255.08C691.56 254.173 692.707 252.973 693.507 251.48C694.36 249.987 694.787 248.307 694.787 246.44H697.427C697.427 251.88 696.333 256.173 694.147 259.32C691.96 262.413 688.467 263.96 683.667 263.96ZM725.46 263.96C721.246 263.96 718.02 262.92 715.78 260.84C713.593 258.707 712.5 255.667 712.5 251.72V210.52H721.38V250.04C721.38 251.907 721.806 253.32 722.66 254.28C723.566 255.24 724.873 255.72 726.58 255.72C727.113 255.72 727.7 255.613 728.34 255.4C728.98 255.187 729.7 254.787 730.5 254.2L733.78 261C732.393 261.96 731.006 262.68 729.62 263.16C728.233 263.693 726.846 263.96 725.46 263.96ZM705.86 230.68V223H732.18V230.68H705.86ZM738.306 263V223H747.186V263H738.306ZM742.786 215.4C741.346 215.4 740.093 214.893 739.026 213.88C738.013 212.813 737.506 211.56 737.506 210.12C737.506 208.68 738.013 207.453 739.026 206.44C740.093 205.427 741.346 204.92 742.786 204.92C744.226 204.92 745.453 205.427 746.466 206.44C747.533 207.453 748.066 208.68 748.066 210.12C748.066 211.56 747.533 212.813 746.466 213.88C745.453 214.893 744.226 215.4 742.786 215.4ZM772.946 263.96C768.946 263.96 765.373 263.08 762.226 261.32C759.133 259.507 756.706 257.027 754.946 253.88C753.186 250.733 752.306 247.107 752.306 243C752.306 238.893 753.159 235.267 754.866 232.12C756.626 228.973 759.053 226.52 762.146 224.76C765.239 222.947 768.786 222.04 772.786 222.04C776.786 222.04 780.333 222.947 783.426 224.76C786.519 226.52 788.919 228.973 790.626 232.12C792.386 235.267 793.266 238.893 793.266 243C793.266 247.107 792.413 250.733 790.706 253.88C788.999 257.027 786.599 259.507 783.506 261.32C780.413 263.08 776.893 263.96 772.946 263.96ZM772.946 255.72C775.133 255.72 777.079 255.187 778.786 254.12C780.493 253 781.826 251.507 782.786 249.64C783.746 247.72 784.226 245.507 784.226 243C784.226 240.493 783.719 238.307 782.706 236.44C781.746 234.52 780.413 233.027 778.706 231.96C776.999 230.84 775.026 230.28 772.786 230.28C770.546 230.28 768.573 230.813 766.866 231.88C765.159 232.947 763.826 234.44 762.866 236.36C761.906 238.28 761.426 240.493 761.426 243C761.426 245.507 761.906 247.72 762.866 249.64C763.879 251.507 765.239 253 766.946 254.12C768.706 255.187 770.706 255.72 772.946 255.72ZM797.83 263V223H806.23L806.79 230.36V263H797.83ZM824.95 263V242.52H833.91V263H824.95ZM824.95 242.52C824.95 239.32 824.577 236.867 823.83 235.16C823.137 233.4 822.124 232.173 820.79 231.48C819.51 230.787 817.99 230.44 816.23 230.44C813.244 230.387 810.924 231.373 809.27 233.4C807.617 235.427 806.79 238.333 806.79 242.12H803.43C803.43 237.907 804.044 234.307 805.27 231.32C806.497 228.28 808.257 225.987 810.55 224.44C812.844 222.84 815.564 222.04 818.71 222.04C821.91 222.04 824.63 222.68 826.87 223.96C829.164 225.24 830.897 227.24 832.07 229.96C833.297 232.627 833.91 236.12 833.91 240.44V242.52H824.95ZM311.187 343.96C308.254 343.96 305.56 343.613 303.107 342.92C300.707 342.227 298.574 341.267 296.707 340.04C294.894 338.813 293.374 337.453 292.147 335.96C290.974 334.413 290.147 332.813 289.667 331.16L298.787 328.36C299.48 330.333 300.84 332.067 302.867 333.56C304.894 335.053 307.4 335.827 310.387 335.88C313.854 335.88 316.6 335.16 318.627 333.72C320.654 332.28 321.667 330.387 321.667 328.04C321.667 325.907 320.814 324.173 319.107 322.84C317.4 321.453 315.107 320.387 312.227 319.64L305.347 317.88C302.734 317.187 300.36 316.173 298.227 314.84C296.147 313.507 294.494 311.827 293.267 309.8C292.094 307.773 291.507 305.373 291.507 302.6C291.507 297.373 293.214 293.32 296.627 290.44C300.04 287.507 304.92 286.04 311.267 286.04C314.84 286.04 317.96 286.6 320.627 287.72C323.347 288.787 325.587 290.28 327.347 292.2C329.107 294.067 330.414 296.2 331.267 298.6L322.307 301.48C321.507 299.347 320.12 297.587 318.147 296.2C316.174 294.813 313.72 294.12 310.787 294.12C307.747 294.12 305.347 294.84 303.587 296.28C301.88 297.72 301.027 299.72 301.027 302.28C301.027 304.36 301.694 305.987 303.027 307.16C304.414 308.28 306.28 309.133 308.627 309.72L315.507 311.4C320.52 312.627 324.414 314.733 327.187 317.72C329.96 320.707 331.347 324.013 331.347 327.64C331.347 330.84 330.574 333.667 329.027 336.12C327.48 338.573 325.187 340.493 322.147 341.88C319.16 343.267 315.507 343.96 311.187 343.96ZM336.815 343V287H345.775V343H336.815ZM363.935 343V322.52H372.895V343H363.935ZM363.935 322.52C363.935 319.32 363.562 316.867 362.815 315.16C362.068 313.4 361.028 312.173 359.695 311.48C358.415 310.787 356.922 310.44 355.215 310.44C352.175 310.387 349.828 311.373 348.175 313.4C346.575 315.427 345.775 318.333 345.775 322.12H342.335C342.335 317.907 342.948 314.307 344.175 311.32C345.455 308.28 347.242 305.987 349.535 304.44C351.828 302.84 354.548 302.04 357.695 302.04C360.842 302.04 363.562 302.68 365.855 303.96C368.148 305.24 369.882 307.24 371.055 309.96C372.282 312.627 372.895 316.12 372.895 320.44V322.52H363.935ZM397.169 343.96C393.169 343.96 389.596 343.08 386.449 341.32C383.356 339.507 380.929 337.027 379.169 333.88C377.409 330.733 376.529 327.107 376.529 323C376.529 318.893 377.383 315.267 379.089 312.12C380.849 308.973 383.276 306.52 386.369 304.76C389.463 302.947 393.009 302.04 397.009 302.04C401.009 302.04 404.556 302.947 407.649 304.76C410.743 306.52 413.143 308.973 414.849 312.12C416.609 315.267 417.489 318.893 417.489 323C417.489 327.107 416.636 330.733 414.929 333.88C413.223 337.027 410.823 339.507 407.729 341.32C404.636 343.08 401.116 343.96 397.169 343.96ZM397.169 335.72C399.356 335.72 401.303 335.187 403.009 334.12C404.716 333 406.049 331.507 407.009 329.64C407.969 327.72 408.449 325.507 408.449 323C408.449 320.493 407.943 318.307 406.929 316.44C405.969 314.52 404.636 313.027 402.929 311.96C401.223 310.84 399.249 310.28 397.009 310.28C394.769 310.28 392.796 310.813 391.089 311.88C389.383 312.947 388.049 314.44 387.089 316.36C386.129 318.28 385.649 320.493 385.649 323C385.649 325.507 386.129 327.72 387.089 329.64C388.103 331.507 389.463 333 391.169 334.12C392.929 335.187 394.929 335.72 397.169 335.72ZM448.854 343L448.374 335.64V303H457.254V343H448.854ZM421.174 323.48V303H430.134V323.48H421.174ZM430.134 323.48C430.134 326.627 430.507 329.08 431.254 330.84C432 332.6 433.014 333.827 434.294 334.52C435.627 335.213 437.147 335.56 438.854 335.56C441.894 335.613 444.24 334.627 445.894 332.6C447.547 330.573 448.374 327.667 448.374 323.88H451.734C451.734 328.093 451.094 331.72 449.814 334.76C448.587 337.747 446.827 340.04 444.534 341.64C442.294 343.187 439.574 343.96 436.374 343.96C433.227 343.96 430.507 343.32 428.214 342.04C425.974 340.76 424.24 338.76 423.014 336.04C421.787 333.32 421.174 329.827 421.174 325.56V323.48H430.134ZM464.01 343V287H472.97V343H464.01ZM508.596 343L508.196 335.56V287H517.076V343H508.596ZM495.556 343.96C491.93 343.96 488.756 343.107 486.036 341.4C483.37 339.64 481.263 337.187 479.716 334.04C478.223 330.893 477.476 327.213 477.476 323C477.476 318.733 478.223 315.053 479.716 311.96C481.263 308.813 483.37 306.387 486.036 304.68C488.756 302.92 491.93 302.04 495.556 302.04C498.916 302.04 501.796 302.92 504.196 304.68C506.65 306.387 508.516 308.813 509.796 311.96C511.076 315.053 511.716 318.733 511.716 323C511.716 327.213 511.076 330.893 509.796 334.04C508.516 337.187 506.65 339.64 504.196 341.4C501.796 343.107 498.916 343.96 495.556 343.96ZM497.796 335.8C499.823 335.8 501.61 335.267 503.156 334.2C504.756 333.08 505.983 331.56 506.836 329.64C507.743 327.72 508.196 325.507 508.196 323C508.196 320.493 507.743 318.28 506.836 316.36C505.983 314.44 504.756 312.947 503.156 311.88C501.61 310.813 499.796 310.28 497.716 310.28C495.583 310.28 493.69 310.813 492.036 311.88C490.383 312.947 489.076 314.44 488.116 316.36C487.21 318.28 486.73 320.493 486.676 323C486.73 325.507 487.21 327.72 488.116 329.64C489.076 331.56 490.383 333.08 492.036 334.2C493.743 335.267 495.663 335.8 497.796 335.8ZM523.782 343V303H532.182L532.742 310.36V343H523.782ZM550.902 343V322.52H559.862V343H550.902ZM550.902 322.52C550.902 319.32 550.529 316.867 549.782 315.16C549.089 313.4 548.075 312.173 546.742 311.48C545.462 310.787 543.942 310.44 542.182 310.44C539.195 310.387 536.875 311.373 535.222 313.4C533.569 315.427 532.742 318.333 532.742 322.12H529.382C529.382 317.907 529.995 314.307 531.222 311.32C532.449 308.28 534.209 305.987 536.502 304.44C538.795 302.84 541.515 302.04 544.662 302.04C547.862 302.04 550.582 302.68 552.822 303.96C555.115 305.24 556.849 307.24 558.022 309.96C559.249 312.627 559.862 316.12 559.862 320.44V322.52H550.902ZM566.458 305.48L565.578 285.72H574.138L573.258 305.48H566.458ZM596.583 343.96C592.37 343.96 589.143 342.92 586.903 340.84C584.716 338.707 583.623 335.667 583.623 331.72V290.52H592.503V330.04C592.503 331.907 592.93 333.32 593.783 334.28C594.69 335.24 595.996 335.72 597.703 335.72C598.236 335.72 598.823 335.613 599.463 335.4C600.103 335.187 600.823 334.787 601.623 334.2L604.903 341C603.516 341.96 602.13 342.68 600.743 343.16C599.356 343.693 597.97 343.96 596.583 343.96ZM576.983 310.68V303H603.303V310.68H576.983ZM626.646 343V287H645.126C648.966 287 652.273 287.587 655.046 288.76C657.873 289.933 660.06 291.693 661.606 294.04C663.153 296.333 663.926 299.213 663.926 302.68C663.926 305.08 663.34 307.24 662.166 309.16C661.046 311.08 659.446 312.68 657.366 313.96C660.086 315.293 662.166 317.08 663.606 319.32C665.046 321.56 665.766 324.227 665.766 327.32C665.766 330.627 665.02 333.453 663.526 335.8C662.033 338.147 659.926 339.933 657.206 341.16C654.486 342.387 651.26 343 647.526 343H626.646ZM635.766 334.68H646.806C649.74 334.68 652.06 333.96 653.766 332.52C655.473 331.08 656.326 329.133 656.326 326.68C656.326 324.013 655.366 321.933 653.446 320.44C651.58 318.947 648.94 318.2 645.526 318.2H635.766V334.68ZM635.766 310.52H645.926C648.593 310.52 650.673 309.827 652.166 308.44C653.713 307 654.486 305.027 654.486 302.52C654.486 299.96 653.606 298.013 651.846 296.68C650.14 295.293 647.74 294.6 644.646 294.6H635.766V310.52ZM688.591 343.96C684.697 343.96 681.231 343.08 678.191 341.32C675.204 339.507 672.831 337.027 671.071 333.88C669.364 330.733 668.511 327.107 668.511 323C668.511 318.893 669.391 315.267 671.151 312.12C672.911 308.973 675.311 306.52 678.351 304.76C681.444 302.947 684.964 302.04 688.911 302.04C692.484 302.04 695.711 302.973 698.591 304.84C701.471 306.653 703.737 309.293 705.391 312.76C707.097 316.227 707.951 320.36 707.951 325.16H676.511L677.711 324.04C677.711 326.493 678.244 328.627 679.311 330.44C680.377 332.2 681.791 333.56 683.551 334.52C685.311 335.48 687.257 335.96 689.391 335.96C691.844 335.96 693.871 335.427 695.471 334.36C697.071 333.24 698.324 331.8 699.231 330.04L707.151 333.4C706.031 335.533 704.591 337.4 702.831 339C701.124 340.6 699.071 341.827 696.671 342.68C694.324 343.533 691.631 343.96 688.591 343.96ZM678.271 319.4L676.991 318.28H699.551L698.351 319.4C698.351 317.213 697.871 315.427 696.911 314.04C695.951 312.6 694.724 311.533 693.231 310.84C691.791 310.093 690.271 309.72 688.671 309.72C687.071 309.72 685.471 310.093 683.871 310.84C682.271 311.533 680.937 312.6 679.871 314.04C678.804 315.427 678.271 317.213 678.271 319.4ZM743.63 343.96C739.417 343.96 736.19 342.92 733.95 340.84C731.763 338.707 730.67 335.667 730.67 331.72V290.52H739.55V330.04C739.55 331.907 739.977 333.32 740.83 334.28C741.737 335.24 743.043 335.72 744.75 335.72C745.283 335.72 745.87 335.613 746.51 335.4C747.15 335.187 747.87 334.787 748.67 334.2L751.95 341C750.563 341.96 749.177 342.68 747.79 343.16C746.403 343.693 745.017 343.96 743.63 343.96ZM724.03 310.68V303H750.35V310.68H724.03ZM755.996 343V287H764.956V343H755.996ZM783.116 343V322.52H792.076V343H783.116ZM783.116 322.52C783.116 319.32 782.743 316.867 781.996 315.16C781.25 313.4 780.21 312.173 778.876 311.48C777.596 310.787 776.103 310.44 774.396 310.44C771.356 310.387 769.01 311.373 767.356 313.4C765.756 315.427 764.956 318.333 764.956 322.12H761.516C761.516 317.907 762.13 314.307 763.356 311.32C764.636 308.28 766.423 305.987 768.716 304.44C771.01 302.84 773.73 302.04 776.876 302.04C780.023 302.04 782.743 302.68 785.036 303.96C787.33 305.24 789.063 307.24 790.236 309.96C791.463 312.627 792.076 316.12 792.076 320.44V322.52H783.116ZM815.791 343.96C811.897 343.96 808.431 343.08 805.391 341.32C802.404 339.507 800.031 337.027 798.271 333.88C796.564 330.733 795.711 327.107 795.711 323C795.711 318.893 796.591 315.267 798.351 312.12C800.111 308.973 802.511 306.52 805.551 304.76C808.644 302.947 812.164 302.04 816.111 302.04C819.684 302.04 822.911 302.973 825.791 304.84C828.671 306.653 830.937 309.293 832.591 312.76C834.297 316.227 835.151 320.36 835.151 325.16H803.711L804.911 324.04C804.911 326.493 805.444 328.627 806.511 330.44C807.577 332.2 808.991 333.56 810.751 334.52C812.511 335.48 814.457 335.96 816.591 335.96C819.044 335.96 821.071 335.427 822.671 334.36C824.271 333.24 825.524 331.8 826.431 330.04L834.351 333.4C833.231 335.533 831.791 337.4 830.031 339C828.324 340.6 826.271 341.827 823.871 342.68C821.524 343.533 818.831 343.96 815.791 343.96ZM805.471 319.4L804.191 318.28H826.751L825.551 319.4C825.551 317.213 825.071 315.427 824.111 314.04C823.151 312.6 821.924 311.533 820.431 310.84C818.991 310.093 817.471 309.72 815.871 309.72C814.271 309.72 812.671 310.093 811.071 310.84C809.471 311.533 808.137 312.6 807.071 314.04C806.004 315.427 805.471 317.213 805.471 319.4ZM391.351 423V367H426.151V375.48H400.631V391.16H422.471V399.64H400.631V423H391.351ZM431.015 423V383H439.895V423H431.015ZM435.495 375.4C434.055 375.4 432.802 374.893 431.735 373.88C430.722 372.813 430.215 371.56 430.215 370.12C430.215 368.68 430.722 367.453 431.735 366.44C432.802 365.427 434.055 364.92 435.495 364.92C436.935 364.92 438.162 365.427 439.175 366.44C440.242 367.453 440.775 368.68 440.775 370.12C440.775 371.56 440.242 372.813 439.175 373.88C438.162 374.893 436.935 375.4 435.495 375.4ZM447.255 423V383H455.655L456.215 390.36V423H447.255ZM474.375 423V402.52H483.335V423H474.375ZM474.375 402.52C474.375 399.32 474.002 396.867 473.255 395.16C472.562 393.4 471.549 392.173 470.215 391.48C468.935 390.787 467.415 390.44 465.655 390.44C462.669 390.387 460.349 391.373 458.695 393.4C457.042 395.427 456.215 398.333 456.215 402.12H452.855C452.855 397.907 453.469 394.307 454.695 391.32C455.922 388.28 457.682 385.987 459.975 384.44C462.269 382.84 464.989 382.04 468.135 382.04C471.335 382.04 474.055 382.68 476.295 383.96C478.589 385.24 480.322 387.24 481.495 389.96C482.722 392.627 483.335 396.12 483.335 400.44V402.52H474.375ZM489.772 423V383H498.652V423H489.772ZM494.252 375.4C492.812 375.4 491.558 374.893 490.492 373.88C489.478 372.813 488.972 371.56 488.972 370.12C488.972 368.68 489.478 367.453 490.492 366.44C491.558 365.427 492.812 364.92 494.252 364.92C495.692 364.92 496.918 365.427 497.932 366.44C498.998 367.453 499.532 368.68 499.532 370.12C499.532 371.56 498.998 372.813 497.932 373.88C496.918 374.893 495.692 375.4 494.252 375.4ZM520.572 423.96C517.905 423.96 515.452 423.56 513.212 422.76C510.972 421.96 509.052 420.84 507.452 419.4C505.852 417.907 504.625 416.173 503.772 414.2L511.532 410.76C512.332 412.253 513.505 413.507 515.052 414.52C516.652 415.533 518.412 416.04 520.332 416.04C522.412 416.04 524.065 415.693 525.292 415C526.572 414.253 527.212 413.24 527.212 411.96C527.212 410.733 526.732 409.8 525.772 409.16C524.812 408.467 523.452 407.907 521.692 407.48L517.932 406.44C514.145 405.48 511.185 403.96 509.052 401.88C506.918 399.747 505.852 397.32 505.852 394.6C505.852 390.6 507.132 387.507 509.692 385.32C512.305 383.133 516.038 382.04 520.892 382.04C523.345 382.04 525.585 382.413 527.612 383.16C529.692 383.853 531.478 384.867 532.972 386.2C534.465 387.48 535.505 389 536.092 390.76L528.652 394.12C528.118 392.787 527.105 391.773 525.612 391.08C524.118 390.333 522.465 389.96 520.652 389.96C518.838 389.96 517.425 390.36 516.412 391.16C515.398 391.907 514.892 392.973 514.892 394.36C514.892 395.16 515.345 395.907 516.252 396.6C517.158 397.24 518.465 397.773 520.172 398.2L524.892 399.32C527.505 399.96 529.638 400.973 531.292 402.36C532.945 403.693 534.172 405.213 534.972 406.92C535.772 408.573 536.172 410.253 536.172 411.96C536.172 414.36 535.478 416.467 534.092 418.28C532.758 420.093 530.918 421.507 528.572 422.52C526.225 423.48 523.558 423.96 520.572 423.96ZM540.157 423V367H549.117V423H540.157ZM567.277 423V402.52H576.237V423H567.277ZM567.277 402.52C567.277 399.32 566.904 396.867 566.157 395.16C565.411 393.4 564.371 392.173 563.037 391.48C561.757 390.787 560.264 390.44 558.557 390.44C555.517 390.387 553.171 391.373 551.517 393.4C549.917 395.427 549.117 398.333 549.117 402.12H545.677C545.677 397.907 546.291 394.307 547.517 391.32C548.797 388.28 550.584 385.987 552.877 384.44C555.171 382.84 557.891 382.04 561.037 382.04C564.184 382.04 566.904 382.68 569.197 383.96C571.491 385.24 573.224 387.24 574.397 389.96C575.624 392.627 576.237 396.12 576.237 400.44V402.52H567.277ZM599.888 423V367H609.168V414.52H634.528V423H599.888ZM637.99 423V383H646.87V423H637.99ZM642.47 375.4C641.03 375.4 639.777 374.893 638.71 373.88C637.697 372.813 637.19 371.56 637.19 370.12C637.19 368.68 637.697 367.453 638.71 366.44C639.777 365.427 641.03 364.92 642.47 364.92C643.91 364.92 645.137 365.427 646.15 366.44C647.217 367.453 647.75 368.68 647.75 370.12C647.75 371.56 647.217 372.813 646.15 373.88C645.137 374.893 643.91 375.4 642.47 375.4ZM654.23 423V383H662.63L663.19 390.36V423H654.23ZM681.35 423V402.52H690.31V423H681.35ZM681.35 402.52C681.35 399.32 680.977 396.867 680.23 395.16C679.537 393.4 678.524 392.173 677.19 391.48C675.91 390.787 674.39 390.44 672.63 390.44C669.644 390.387 667.324 391.373 665.67 393.4C664.017 395.427 663.19 398.333 663.19 402.12H659.83C659.83 397.907 660.444 394.307 661.67 391.32C662.897 388.28 664.657 385.987 666.95 384.44C669.244 382.84 671.964 382.04 675.11 382.04C678.31 382.04 681.03 382.68 683.27 383.96C685.564 385.24 687.297 387.24 688.47 389.96C689.697 392.627 690.31 396.12 690.31 400.44V402.52H681.35ZM714.027 423.96C710.133 423.96 706.667 423.08 703.627 421.32C700.64 419.507 698.267 417.027 696.507 413.88C694.8 410.733 693.947 407.107 693.947 403C693.947 398.893 694.827 395.267 696.587 392.12C698.347 388.973 700.747 386.52 703.787 384.76C706.88 382.947 710.4 382.04 714.347 382.04C717.92 382.04 721.147 382.973 724.027 384.84C726.907 386.653 729.173 389.293 730.827 392.76C732.533 396.227 733.387 400.36 733.387 405.16H701.947L703.147 404.04C703.147 406.493 703.68 408.627 704.747 410.44C705.813 412.2 707.227 413.56 708.987 414.52C710.747 415.48 712.693 415.96 714.827 415.96C717.28 415.96 719.307 415.427 720.907 414.36C722.507 413.24 723.76 411.8 724.667 410.04L732.587 413.4C731.467 415.533 730.027 417.4 728.267 419C726.56 420.6 724.507 421.827 722.107 422.68C719.76 423.533 717.067 423.96 714.027 423.96ZM703.707 399.4L702.427 398.28H724.987L723.787 399.4C723.787 397.213 723.307 395.427 722.347 394.04C721.387 392.6 720.16 391.533 718.667 390.84C717.227 390.093 715.707 389.72 714.107 389.72C712.507 389.72 710.907 390.093 709.307 390.84C707.707 391.533 706.373 392.6 705.307 394.04C704.24 395.427 703.707 397.213 703.707 399.4Z" fill="url(#paint1_linear_2_501)"/>
<path d="M421.683 545.72C423.603 545.72 425.246 546.115 426.611 546.904C427.977 547.672 429.011 548.707 429.715 550.008C430.441 551.288 430.803 552.696 430.803 554.232C430.803 555.981 430.462 557.539 429.779 558.904C429.097 560.269 428.115 561.336 426.835 562.104C425.555 562.872 424.009 563.256 422.195 563.256C420.169 563.256 418.473 562.861 417.107 562.072C415.763 561.283 414.75 560.227 414.067 558.904C413.406 557.56 413.075 556.067 413.075 554.424C413.075 552.76 413.438 551.277 414.163 549.976C414.889 548.653 415.891 547.619 417.171 546.872C418.473 546.104 419.977 545.72 421.683 545.72ZM422.163 560.92C423.102 560.92 423.881 560.621 424.499 560.024C425.118 559.427 425.587 558.648 425.907 557.688C426.227 556.728 426.387 555.693 426.387 554.584C426.387 553.773 426.313 552.984 426.163 552.216C426.035 551.427 425.801 550.723 425.459 550.104C425.118 549.464 424.638 548.952 424.019 548.568C423.422 548.184 422.654 547.992 421.715 547.992C420.798 547.992 420.019 548.269 419.379 548.824C418.761 549.379 418.291 550.115 417.971 551.032C417.651 551.949 417.491 552.963 417.491 554.072C417.491 554.861 417.555 555.661 417.683 556.472C417.811 557.283 418.046 558.029 418.387 558.712C418.729 559.373 419.198 559.907 419.795 560.312C420.414 560.717 421.203 560.92 422.163 560.92ZM453.082 548.056L450.81 547.736L451.162 546.04H458.138V547.16L455.642 548.12L451.354 563H448.474L444.314 552.344L440.538 563H437.338L432.41 548.056L430.01 547.64L430.33 546.04H439.546V547.16L436.986 547.96L439.898 557.656L444.058 546.04H446.234L450.458 557.08L453.082 548.056ZM461.034 555.448C461.034 556.664 461.301 557.645 461.834 558.392C462.368 559.139 463.082 559.693 463.978 560.056C464.896 560.397 465.888 560.568 466.954 560.568C467.701 560.568 468.48 560.44 469.29 560.184C470.122 559.928 470.944 559.533 471.754 559L472.778 560.856C471.733 561.667 470.602 562.275 469.386 562.68C468.17 563.085 467.029 563.288 465.962 563.288C464.746 563.288 463.573 563.128 462.442 562.808C461.312 562.488 460.298 561.987 459.402 561.304C458.506 560.621 457.792 559.736 457.258 558.648C456.746 557.539 456.49 556.195 456.49 554.616C456.49 552.973 456.768 551.587 457.322 550.456C457.898 549.325 458.634 548.419 459.53 547.736C460.426 547.053 461.408 546.563 462.474 546.264C463.541 545.944 464.565 545.784 465.546 545.784C467.36 545.784 468.821 546.221 469.93 547.096C471.061 547.971 471.893 549.144 472.426 550.616C472.96 552.067 473.226 553.677 473.226 555.448H461.034ZM469.514 552.824C469.514 551.693 469.322 550.797 468.938 550.136C468.554 549.453 468.064 548.963 467.466 548.664C466.869 548.344 466.25 548.184 465.61 548.184C464.885 548.184 464.181 548.355 463.498 548.696C462.837 549.037 462.282 549.549 461.834 550.232C461.408 550.915 461.173 551.779 461.13 552.824H469.514ZM474.099 548.312L473.939 546.68L481.171 545.656V548.312C481.896 547.437 482.782 546.797 483.827 546.392C484.872 545.965 485.832 545.752 486.707 545.752C487.731 545.752 488.734 545.944 489.715 546.328C490.696 546.691 491.507 547.299 492.147 548.152C492.808 549.005 493.15 550.168 493.171 551.64V560.856L495.571 561.304L495.251 563H486.195V561.88L488.691 560.92V552.92C488.691 551.555 488.478 550.563 488.051 549.944C487.624 549.325 486.814 549.016 485.619 549.016C484.766 549.016 483.912 549.176 483.059 549.496C482.227 549.816 481.598 550.221 481.171 550.712V560.856L483.571 561.304L483.251 563H473.875V561.88L476.691 560.92V548.792L474.099 548.312ZM495.117 548.344L494.957 546.712L502.189 545.688V547.832C502.914 547.171 503.65 546.659 504.397 546.296C505.143 545.933 506.018 545.752 507.021 545.752C508.429 545.752 509.698 546.072 510.829 546.712C511.981 547.331 512.898 548.259 513.581 549.496C514.263 550.733 514.605 552.269 514.605 554.104C514.605 555.64 514.359 556.984 513.869 558.136C513.378 559.288 512.706 560.259 511.853 561.048C511.021 561.816 510.082 562.392 509.037 562.776C507.991 563.16 506.914 563.352 505.805 563.352C505.165 563.352 504.546 563.277 503.949 563.128C503.373 563 502.786 562.712 502.189 562.264V568.152L505.517 568.6L505.197 570.296H494.893V569.176L497.709 568.216V548.824L495.117 548.344ZM506.413 548.472C505.73 548.472 505.015 548.653 504.269 549.016C503.543 549.357 502.85 549.816 502.189 550.392V559.288C503.277 560.397 504.407 560.952 505.581 560.952C506.477 560.952 507.266 560.664 507.949 560.088C508.631 559.491 509.165 558.723 509.549 557.784C509.933 556.845 510.125 555.843 510.125 554.776C510.125 553.795 510.007 552.824 509.773 551.864C509.538 550.883 509.154 550.072 508.621 549.432C508.087 548.792 507.351 548.472 506.413 548.472ZM521.333 555.448C521.333 556.664 521.6 557.645 522.133 558.392C522.666 559.139 523.381 559.693 524.277 560.056C525.194 560.397 526.186 560.568 527.253 560.568C528 560.568 528.778 560.44 529.589 560.184C530.421 559.928 531.242 559.533 532.053 559L533.077 560.856C532.032 561.667 530.901 562.275 529.685 562.68C528.469 563.085 527.328 563.288 526.261 563.288C525.045 563.288 523.872 563.128 522.741 562.808C521.61 562.488 520.597 561.987 519.701 561.304C518.805 560.621 518.09 559.736 517.557 558.648C517.045 557.539 516.789 556.195 516.789 554.616C516.789 552.973 517.066 551.587 517.621 550.456C518.197 549.325 518.933 548.419 519.829 547.736C520.725 547.053 521.706 546.563 522.773 546.264C523.84 545.944 524.864 545.784 525.845 545.784C527.658 545.784 529.12 546.221 530.229 547.096C531.36 547.971 532.192 549.144 532.725 550.616C533.258 552.067 533.525 553.677 533.525 555.448H521.333ZM529.813 552.824C529.813 551.693 529.621 550.797 529.237 550.136C528.853 549.453 528.362 548.963 527.765 548.664C527.168 548.344 526.549 548.184 525.909 548.184C525.184 548.184 524.48 548.355 523.797 548.696C523.136 549.037 522.581 549.549 522.133 550.232C521.706 550.915 521.472 551.779 521.429 552.824H529.813ZM546.801 548.696C546.438 548.461 546.065 548.301 545.681 548.216C545.297 548.131 544.924 548.088 544.561 548.088C543.644 548.088 542.801 548.365 542.033 548.92C541.265 549.475 540.657 550.211 540.209 551.128C539.761 552.045 539.537 553.048 539.537 554.136C539.537 555.267 539.708 556.344 540.049 557.368C540.39 558.392 540.934 559.224 541.681 559.864C542.449 560.483 543.452 560.792 544.689 560.792C545.414 560.792 546.161 560.653 546.929 560.376C547.697 560.077 548.412 559.683 549.073 559.192L550.065 560.888C549.212 561.699 548.273 562.317 547.249 562.744C546.225 563.149 545.169 563.352 544.081 563.352C542.993 563.352 541.916 563.192 540.849 562.872C539.804 562.552 538.844 562.051 537.969 561.368C537.094 560.664 536.401 559.736 535.889 558.584C535.377 557.432 535.121 556.024 535.121 554.36C535.121 552.781 535.42 551.448 536.017 550.36C536.614 549.272 537.382 548.387 538.321 547.704C539.281 547.021 540.305 546.531 541.393 546.232C542.502 545.912 543.558 545.752 544.561 545.752C546.353 545.752 548.049 546.253 549.649 547.256V551.832L547.729 552.216L546.801 548.696ZM551.418 541.336L551.258 539.704L558.49 538.68V548.312C559.215 547.437 560.1 546.797 561.146 546.392C562.191 545.965 563.151 545.752 564.026 545.752C565.05 545.752 566.052 545.944 567.034 546.328C568.015 546.691 568.826 547.299 569.466 548.152C570.127 549.005 570.468 550.168 570.49 551.64V560.856L572.89 561.304L572.57 563H563.514V561.88L566.01 560.92V552.92C566.01 551.555 565.796 550.563 565.37 549.944C564.943 549.325 564.132 549.016 562.938 549.016C562.084 549.016 561.231 549.176 560.378 549.496C559.546 549.816 558.916 550.221 558.49 550.712V560.856L560.89 561.304L560.57 563H551.194V561.88L554.01 560.92V541.816L551.418 541.336ZM581.782 545.72C583.702 545.72 585.345 546.115 586.71 546.904C588.075 547.672 589.11 548.707 589.814 550.008C590.539 551.288 590.902 552.696 590.902 554.232C590.902 555.981 590.561 557.539 589.878 558.904C589.195 560.269 588.214 561.336 586.934 562.104C585.654 562.872 584.107 563.256 582.294 563.256C580.267 563.256 578.571 562.861 577.206 562.072C575.862 561.283 574.849 560.227 574.166 558.904C573.505 557.56 573.174 556.067 573.174 554.424C573.174 552.76 573.537 551.277 574.262 549.976C574.987 548.653 575.99 547.619 577.27 546.872C578.571 546.104 580.075 545.72 581.782 545.72ZM582.262 560.92C583.201 560.92 583.979 560.621 584.598 560.024C585.217 559.427 585.686 558.648 586.006 557.688C586.326 556.728 586.486 555.693 586.486 554.584C586.486 553.773 586.411 552.984 586.262 552.216C586.134 551.427 585.899 550.723 585.558 550.104C585.217 549.464 584.737 548.952 584.118 548.568C583.521 548.184 582.753 547.992 581.814 547.992C580.897 547.992 580.118 548.269 579.478 548.824C578.859 549.379 578.39 550.115 578.07 551.032C577.75 551.949 577.59 552.963 577.59 554.072C577.59 554.861 577.654 555.661 577.782 556.472C577.91 557.283 578.145 558.029 578.486 558.712C578.827 559.373 579.297 559.907 579.894 560.312C580.513 560.717 581.302 560.92 582.262 560.92ZM591.326 547.736L591.646 546.04H598.206V556.248C598.206 557.613 598.419 558.605 598.846 559.224C599.294 559.843 600.105 560.152 601.278 560.152C602.131 560.152 602.985 560.003 603.838 559.704C604.691 559.405 605.321 559.011 605.726 558.52V548.184L603.326 547.736L603.646 546.04H610.206V560.504L612.798 560.984L612.958 562.616L605.726 563.384V560.6C605.001 561.475 604.115 562.147 603.07 562.616C602.025 563.064 601.065 563.288 600.19 563.288C599.166 563.288 598.163 563.107 597.182 562.744C596.201 562.36 595.39 561.741 594.75 560.888C594.11 560.035 593.769 558.872 593.726 557.4V548.184L591.326 547.736ZM618.018 560.632C618.338 560.781 618.732 560.909 619.202 561.016C619.671 561.123 620.151 561.176 620.642 561.176C621.474 561.176 622.231 561.005 622.914 560.664C623.596 560.301 623.948 559.693 623.97 558.84C623.991 558.328 623.788 557.901 623.362 557.56C622.935 557.219 622.38 556.909 621.698 556.632C621.036 556.333 620.311 556.024 619.522 555.704C618.754 555.384 618.028 555 617.346 554.552C616.663 554.104 616.098 553.549 615.65 552.888C615.223 552.205 615.01 551.363 615.01 550.36C615.01 549.229 615.362 548.333 616.066 547.672C616.77 546.989 617.666 546.509 618.754 546.232C619.842 545.933 620.962 545.784 622.114 545.784C623.159 545.784 624.151 545.891 625.09 546.104C626.05 546.296 626.818 546.552 627.394 546.872V551.288L625.41 551.64L624.578 548.44C624.215 548.333 623.874 548.237 623.554 548.152C623.255 548.067 622.85 548.024 622.338 548.024C621.527 548.024 620.823 548.195 620.226 548.536C619.65 548.856 619.362 549.304 619.362 549.88C619.362 550.499 619.575 551.021 620.002 551.448C620.45 551.875 621.015 552.248 621.698 552.568C622.402 552.888 623.138 553.219 623.906 553.56C624.674 553.88 625.399 554.253 626.082 554.68C626.786 555.107 627.351 555.629 627.778 556.248C628.226 556.845 628.45 557.603 628.45 558.52C628.45 559.736 628.098 560.696 627.394 561.4C626.69 562.104 625.772 562.616 624.642 562.936C623.532 563.235 622.359 563.384 621.122 563.384C619.927 563.384 618.754 563.256 617.602 563C616.471 562.765 615.5 562.488 614.69 562.168V557.784L617.154 557.4L618.018 560.632ZM630.492 560.664C631.175 559.405 632.167 558.435 633.468 557.752C634.727 558.435 635.676 559.384 636.316 560.6C635.612 561.837 634.631 562.808 633.372 563.512C632.092 562.851 631.132 561.901 630.492 560.664ZM650.273 548.696C649.911 548.461 649.537 548.301 649.153 548.216C648.769 548.131 648.396 548.088 648.033 548.088C647.116 548.088 646.273 548.365 645.505 548.92C644.737 549.475 644.129 550.211 643.681 551.128C643.233 552.045 643.009 553.048 643.009 554.136C643.009 555.267 643.18 556.344 643.521 557.368C643.863 558.392 644.407 559.224 645.153 559.864C645.921 560.483 646.924 560.792 648.161 560.792C648.887 560.792 649.633 560.653 650.401 560.376C651.169 560.077 651.884 559.683 652.545 559.192L653.537 560.888C652.684 561.699 651.745 562.317 650.721 562.744C649.697 563.149 648.641 563.352 647.553 563.352C646.465 563.352 645.388 563.192 644.321 562.872C643.276 562.552 642.316 562.051 641.441 561.368C640.567 560.664 639.873 559.736 639.361 558.584C638.849 557.432 638.593 556.024 638.593 554.36C638.593 552.781 638.892 551.448 639.489 550.36C640.087 549.272 640.855 548.387 641.793 547.704C642.753 547.021 643.777 546.531 644.865 546.232C645.975 545.912 647.031 545.752 648.033 545.752C649.825 545.752 651.521 546.253 653.121 547.256V551.832L651.201 552.216L650.273 548.696ZM663.301 545.72C665.221 545.72 666.864 546.115 668.229 546.904C669.594 547.672 670.629 548.707 671.333 550.008C672.058 551.288 672.421 552.696 672.421 554.232C672.421 555.981 672.08 557.539 671.397 558.904C670.714 560.269 669.733 561.336 668.453 562.104C667.173 562.872 665.626 563.256 663.813 563.256C661.786 563.256 660.09 562.861 658.725 562.072C657.381 561.283 656.368 560.227 655.685 558.904C655.024 557.56 654.693 556.067 654.693 554.424C654.693 552.76 655.056 551.277 655.781 549.976C656.506 548.653 657.509 547.619 658.789 546.872C660.09 546.104 661.594 545.72 663.301 545.72ZM663.781 560.92C664.72 560.92 665.498 560.621 666.117 560.024C666.736 559.427 667.205 558.648 667.525 557.688C667.845 556.728 668.005 555.693 668.005 554.584C668.005 553.773 667.93 552.984 667.781 552.216C667.653 551.427 667.418 550.723 667.077 550.104C666.736 549.464 666.256 548.952 665.637 548.568C665.04 548.184 664.272 547.992 663.333 547.992C662.416 547.992 661.637 548.269 660.997 548.824C660.378 549.379 659.909 550.115 659.589 551.032C659.269 551.949 659.109 552.963 659.109 554.072C659.109 554.861 659.173 555.661 659.301 556.472C659.429 557.283 659.664 558.029 660.005 558.712C660.346 559.373 660.816 559.907 661.413 560.312C662.032 560.717 662.821 560.92 663.781 560.92ZM673.311 548.312L673.151 546.68L680.383 545.656V548.344C681.108 547.469 681.994 546.819 683.039 546.392C684.084 545.965 685.044 545.752 685.919 545.752C687.071 545.752 688.202 545.976 689.311 546.424C690.42 546.872 691.242 547.672 691.775 548.824C692.671 547.821 693.642 547.064 694.687 546.552C695.754 546.019 696.81 545.752 697.855 545.752C698.879 545.752 699.882 545.944 700.863 546.328C701.844 546.691 702.655 547.299 703.295 548.152C703.956 549.005 704.298 550.168 704.319 551.64V560.856L706.719 561.304L706.399 563H697.343V561.88L699.839 560.92V552.92C699.839 551.555 699.626 550.563 699.199 549.944C698.772 549.325 697.962 549.016 696.767 549.016C695.914 549.016 695.06 549.197 694.207 549.56C693.354 549.901 692.714 550.317 692.287 550.808C692.308 550.957 692.33 551.107 692.351 551.256C692.372 551.384 692.383 551.533 692.383 551.704V560.856L694.783 561.304L694.463 563H685.407V561.88L687.903 560.92V552.92C687.903 551.555 687.69 550.563 687.263 549.944C686.836 549.325 686.026 549.016 684.831 549.016C683.978 549.016 683.124 549.176 682.271 549.496C681.439 549.816 680.81 550.221 680.383 550.712V560.856L682.783 561.304L682.463 563H673.087V561.88L675.903 560.92V548.792L673.311 548.312Z" fill="white"/>
</g>
<defs>
<filter id="filter0_f_2_501" x="-85" y="-85" width="1370" height="800" filterUnits="userSpaceOnUse" color-interpolation-filters="sRGB">
<feFlood flood-opacity="0" result="BackgroundImageFix"/>
<feBlend mode="normal" in="SourceGraphic" in2="BackgroundImageFix" result="shape"/>
<feGaussianBlur stdDeviation="42.5" result="effect1_foregroundBlur_2_501"/>
</filter>
<linearGradient id="paint0_linear_2_501" x1="0" y1="0" x2="450.977" y2="976.073" gradientUnits="userSpaceOnUse">
<stop stop-color="white" stop-opacity="0.65"/>
<stop offset="0.235" stop-color="#AD9C5F"/>
<stop offset="0.434271" stop-opacity="0.5"/>
<stop offset="1" stop-color="#AD9C5F"/>
</linearGradient>
<linearGradient id="paint1_linear_2_501" x1="647.604" y1="256.071" x2="562.609" y2="490.19" gradientUnits="userSpaceOnUse">
<stop stop-color="white"/>
<stop offset="1" stop-color="#FAFAFA" stop-opacity="0.9"/>
</linearGradient>
<clipPath id="clip0_2_501">
<rect width="1120" height="630" fill="white"/>
</clipPath>
</defs>
</svg>
