<svg width="1120" height="630" viewBox="0 0 1120 630" fill="none" xmlns="http://www.w3.org/2000/svg">
<g clip-path="url(#clip0_2_98)">
<rect width="1120" height="630" fill="#171717"/>
<g opacity="0.2" clip-path="url(#clip1_2_98)" filter="url(#filter0_f_2_98)">
<line x1="-79.5" y1="156.882" x2="1199.5" y2="156.882" stroke="white" stroke-width="0.5"/>
<line x1="-79.5" y1="314.382" x2="1199.5" y2="314.382" stroke="white" stroke-width="0.5"/>
<line x1="-79.5" y1="471.882" x2="1199.5" y2="471.882" stroke="white" stroke-width="0.5"/>
<line x1="-79.5" y1="629.382" x2="1199.5" y2="629.382" stroke="white" stroke-width="0.5"/>
<line x1="80.125" y1="629.632" x2="80.125" y2="-0.368164" stroke="white" stroke-width="0.5"/>
<line x1="240" y1="629.632" x2="240" y2="-0.368164" stroke="white" stroke-width="0.5"/>
<line x1="399.875" y1="629.632" x2="399.875" y2="-0.368164" stroke="white" stroke-width="0.5"/>
<line x1="559.75" y1="629.632" x2="559.75" y2="-0.368164" stroke="white" stroke-width="0.5"/>
<line x1="719.625" y1="629.632" x2="719.625" y2="-0.368164" stroke="white" stroke-width="0.5"/>
<line x1="879.5" y1="629.632" x2="879.5" y2="-0.368164" stroke="white" stroke-width="0.5"/>
<line x1="1039.38" y1="629.632" x2="1039.38" y2="-0.368164" stroke="white" stroke-width="0.5"/>
</g>
<g filter="url(#filter1_f_2_98)">
<rect x="384.641" y="-229.995" width="918.633" height="802.465" fill="#171717"/>
</g>
<g filter="url(#filter2_f_2_98)">
<rect x="1200" y="630" width="1200" height="630" transform="rotate(180 1200 630)" fill="url(#paint0_radial_2_98)"/>
</g>
<path d="M151.36 167L167.84 111H177.28L160.32 167H151.36ZM117.44 167L100.72 111H110.08L126.48 167H117.44ZM118.64 167L134.4 111H142.96L127.28 167H118.64ZM150.48 167L135.04 111H143.6L159.52 167H150.48ZM179.809 167V111H188.769V167H179.809ZM206.929 167V146.52H215.889V167H206.929ZM206.929 146.52C206.929 143.32 206.555 140.867 205.809 139.16C205.062 137.4 204.022 136.173 202.689 135.48C201.409 134.787 199.915 134.44 198.209 134.44C195.169 134.387 192.822 135.373 191.169 137.4C189.569 139.427 188.769 142.333 188.769 146.12H185.329C185.329 141.907 185.942 138.307 187.169 135.32C188.449 132.28 190.235 129.987 192.529 128.44C194.822 126.84 197.542 126.04 200.689 126.04C203.835 126.04 206.555 126.68 208.849 127.96C211.142 129.24 212.875 131.24 214.049 133.96C215.275 136.627 215.889 140.12 215.889 144.44V146.52H206.929ZM227.146 183.96C225.866 183.96 224.426 183.72 222.826 183.24C221.279 182.76 219.786 182.147 218.346 181.4L221.706 174.12C222.719 174.6 223.652 174.973 224.506 175.24C225.359 175.56 226.052 175.72 226.586 175.72C227.866 175.72 228.932 175.373 229.786 174.68C230.692 174.04 231.412 173.08 231.946 171.8L236.666 160.76L250.186 127H259.946L241.386 171.24C240.266 173.8 239.119 176.04 237.946 177.96C236.826 179.88 235.412 181.347 233.706 182.36C231.999 183.427 229.812 183.96 227.146 183.96ZM234.266 167L216.346 127H226.106L240.026 160.68L242.906 167H234.266ZM279.856 167V111H298.336C302.176 111 305.482 111.587 308.256 112.76C311.082 113.933 313.269 115.693 314.816 118.04C316.362 120.333 317.136 123.213 317.136 126.68C317.136 129.08 316.549 131.24 315.376 133.16C314.256 135.08 312.656 136.68 310.576 137.96C313.296 139.293 315.376 141.08 316.816 143.32C318.256 145.56 318.976 148.227 318.976 151.32C318.976 154.627 318.229 157.453 316.736 159.8C315.242 162.147 313.136 163.933 310.416 165.16C307.696 166.387 304.469 167 300.736 167H279.856ZM288.976 158.68H300.016C302.949 158.68 305.269 157.96 306.976 156.52C308.682 155.08 309.536 153.133 309.536 150.68C309.536 148.013 308.576 145.933 306.656 144.44C304.789 142.947 302.149 142.2 298.736 142.2H288.976V158.68ZM288.976 134.52H299.136C301.802 134.52 303.882 133.827 305.376 132.44C306.922 131 307.696 129.027 307.696 126.52C307.696 123.96 306.816 122.013 305.056 120.68C303.349 119.293 300.949 118.6 297.856 118.6H288.976V134.52ZM329.88 145.72C329.88 141.4 330.707 137.853 332.36 135.08C334.013 132.307 336.147 130.253 338.76 128.92C341.427 127.533 344.2 126.84 347.08 126.84V135.4C344.627 135.4 342.307 135.747 340.12 136.44C337.987 137.08 336.253 138.147 334.92 139.64C333.587 141.133 332.92 143.107 332.92 145.56L329.88 145.72ZM323.96 167V127H332.92V167H323.96ZM374.223 167L373.823 159.48V146.44C373.823 143.72 373.529 141.453 372.943 139.64C372.409 137.773 371.503 136.36 370.223 135.4C368.996 134.387 367.343 133.88 365.263 133.88C363.343 133.88 361.663 134.28 360.223 135.08C358.783 135.88 357.556 137.133 356.543 138.84L348.703 135.96C349.556 134.2 350.676 132.573 352.063 131.08C353.503 129.533 355.289 128.307 357.423 127.4C359.609 126.493 362.223 126.04 365.263 126.04C369.156 126.04 372.409 126.813 375.023 128.36C377.636 129.853 379.556 132.013 380.783 134.84C382.063 137.667 382.703 141.08 382.703 145.08L382.463 167H374.223ZM362.703 167.96C357.903 167.96 354.169 166.893 351.503 164.76C348.889 162.627 347.583 159.613 347.583 155.72C347.583 151.56 348.969 148.387 351.743 146.2C354.569 144.013 358.489 142.92 363.503 142.92H374.223V149.8H366.383C362.809 149.8 360.303 150.307 358.863 151.32C357.423 152.28 356.703 153.667 356.703 155.48C356.703 157.027 357.316 158.253 358.543 159.16C359.823 160.013 361.583 160.44 363.823 160.44C365.849 160.44 367.609 159.987 369.103 159.08C370.596 158.173 371.743 156.973 372.543 155.48C373.396 153.987 373.823 152.307 373.823 150.44H376.463C376.463 155.88 375.369 160.173 373.183 163.32C370.996 166.413 367.503 167.96 362.703 167.96ZM388.576 167V127H396.976L397.536 134.36V167H388.576ZM415.696 167V146.52H424.656V167H415.696ZM415.696 146.52C415.696 143.32 415.322 140.867 414.576 139.16C413.882 137.4 412.869 136.173 411.536 135.48C410.256 134.787 408.736 134.44 406.976 134.44C403.989 134.387 401.669 135.373 400.016 137.4C398.362 139.427 397.536 142.333 397.536 146.12H394.176C394.176 141.907 394.789 138.307 396.016 135.32C397.242 132.28 399.002 129.987 401.296 128.44C403.589 126.84 406.309 126.04 409.456 126.04C412.656 126.04 415.376 126.68 417.616 127.96C419.909 129.24 421.642 131.24 422.816 133.96C424.042 136.627 424.656 140.12 424.656 144.44V146.52H415.696ZM459.412 167L459.012 159.56V111H467.892V167H459.412ZM446.372 167.96C442.745 167.96 439.572 167.107 436.852 165.4C434.185 163.64 432.079 161.187 430.532 158.04C429.039 154.893 428.292 151.213 428.292 147C428.292 142.733 429.039 139.053 430.532 135.96C432.079 132.813 434.185 130.387 436.852 128.68C439.572 126.92 442.745 126.04 446.372 126.04C449.732 126.04 452.612 126.92 455.012 128.68C457.465 130.387 459.332 132.813 460.612 135.96C461.892 139.053 462.532 142.733 462.532 147C462.532 151.213 461.892 154.893 460.612 158.04C459.332 161.187 457.465 163.64 455.012 165.4C452.612 167.107 449.732 167.96 446.372 167.96ZM448.612 159.8C450.639 159.8 452.425 159.267 453.972 158.2C455.572 157.08 456.799 155.56 457.652 153.64C458.559 151.72 459.012 149.507 459.012 147C459.012 144.493 458.559 142.28 457.652 140.36C456.799 138.44 455.572 136.947 453.972 135.88C452.425 134.813 450.612 134.28 448.532 134.28C446.399 134.28 444.505 134.813 442.852 135.88C441.199 136.947 439.892 138.44 438.932 140.36C438.025 142.28 437.545 144.493 437.492 147C437.545 149.507 438.025 151.72 438.932 153.64C439.892 155.56 441.199 157.08 442.852 158.2C444.559 159.267 446.479 159.8 448.612 159.8ZM475.158 167V127H484.038V167H475.158ZM479.638 119.4C478.198 119.4 476.944 118.893 475.878 117.88C474.864 116.813 474.358 115.56 474.358 114.12C474.358 112.68 474.864 111.453 475.878 110.44C476.944 109.427 478.198 108.92 479.638 108.92C481.078 108.92 482.304 109.427 483.318 110.44C484.384 111.453 484.918 112.68 484.918 114.12C484.918 115.56 484.384 116.813 483.318 117.88C482.304 118.893 481.078 119.4 479.638 119.4ZM491.398 167V127H499.798L500.358 134.36V167H491.398ZM518.518 167V146.52H527.478V167H518.518ZM518.518 146.52C518.518 143.32 518.144 140.867 517.398 139.16C516.704 137.4 515.691 136.173 514.358 135.48C513.078 134.787 511.558 134.44 509.798 134.44C506.811 134.387 504.491 135.373 502.838 137.4C501.184 139.427 500.358 142.333 500.358 146.12H496.997C496.997 141.907 497.611 138.307 498.838 135.32C500.064 132.28 501.824 129.987 504.118 128.44C506.411 126.84 509.131 126.04 512.278 126.04C515.478 126.04 518.198 126.68 520.438 127.96C522.731 129.24 524.464 131.24 525.638 133.96C526.864 136.627 527.478 140.12 527.478 144.44V146.52H518.518ZM550.554 184.04C547.727 184.04 545.167 183.8 542.874 183.32C540.634 182.84 538.74 182.28 537.194 181.64C535.647 181 534.447 180.387 533.594 179.8L537.034 172.6C537.78 172.973 538.767 173.427 539.994 173.96C541.274 174.547 542.767 175.053 544.474 175.48C546.18 175.907 548.1 176.12 550.234 176.12C552.527 176.12 554.58 175.64 556.394 174.68C558.207 173.773 559.62 172.36 560.634 170.44C561.647 168.52 562.154 166.067 562.154 163.08V127H571.114V162.84C571.114 167.373 570.26 171.213 568.554 174.36C566.847 177.56 564.447 179.96 561.354 181.56C558.26 183.213 554.66 184.04 550.554 184.04ZM549.194 166.2C545.567 166.2 542.394 165.373 539.674 163.72C537.007 162.067 534.9 159.773 533.354 156.84C531.86 153.853 531.114 150.413 531.114 146.52C531.114 142.36 531.86 138.76 533.354 135.72C534.9 132.68 537.007 130.307 539.674 128.6C542.394 126.893 545.567 126.04 549.194 126.04C552.447 126.04 555.274 126.893 557.674 128.6C560.127 130.307 562.02 132.707 563.354 135.8C564.687 138.84 565.354 142.44 565.354 146.6C565.354 150.547 564.687 153.987 563.354 156.92C562.02 159.853 560.127 162.147 557.674 163.8C555.274 165.4 552.447 166.2 549.194 166.2ZM551.674 158.6C553.7 158.6 555.46 158.067 556.954 157C558.5 155.933 559.7 154.493 560.554 152.68C561.407 150.813 561.834 148.68 561.834 146.28C561.834 143.827 561.407 141.693 560.554 139.88C559.7 138.013 558.5 136.573 556.954 135.56C555.407 134.493 553.62 133.96 551.594 133.96C549.46 133.96 547.567 134.493 545.914 135.56C544.314 136.573 543.034 138.013 542.074 139.88C541.167 141.693 540.714 143.827 540.714 146.28C540.714 148.68 541.167 150.813 542.074 152.68C543.034 154.493 544.34 155.933 545.994 157C547.647 158.067 549.54 158.6 551.674 158.6ZM106.64 247V191H116.56L134.16 216.92L151.6 191H161.6V247H152.32V205.64L134.08 232.6L115.92 205.8V247H106.64ZM194.363 247L193.963 239.48V226.44C193.963 223.72 193.67 221.453 193.083 219.64C192.55 217.773 191.643 216.36 190.363 215.4C189.136 214.387 187.483 213.88 185.403 213.88C183.483 213.88 181.803 214.28 180.363 215.08C178.923 215.88 177.696 217.133 176.683 218.84L168.843 215.96C169.696 214.2 170.816 212.573 172.203 211.08C173.643 209.533 175.43 208.307 177.563 207.4C179.75 206.493 182.363 206.04 185.403 206.04C189.296 206.04 192.55 206.813 195.163 208.36C197.776 209.853 199.696 212.013 200.923 214.84C202.203 217.667 202.843 221.08 202.843 225.08L202.603 247H194.363ZM182.843 247.96C178.043 247.96 174.31 246.893 171.643 244.76C169.03 242.627 167.723 239.613 167.723 235.72C167.723 231.56 169.11 228.387 171.883 226.2C174.71 224.013 178.63 222.92 183.643 222.92H194.363V229.8H186.523C182.95 229.8 180.443 230.307 179.003 231.32C177.563 232.28 176.843 233.667 176.843 235.48C176.843 237.027 177.456 238.253 178.683 239.16C179.963 240.013 181.723 240.44 183.963 240.44C185.99 240.44 187.75 239.987 189.243 239.08C190.736 238.173 191.883 236.973 192.683 235.48C193.536 233.987 193.963 232.307 193.963 230.44H196.603C196.603 235.88 195.51 240.173 193.323 243.32C191.136 246.413 187.643 247.96 182.843 247.96ZM224.636 247.96C220.423 247.96 217.196 246.92 214.956 244.84C212.77 242.707 211.676 239.667 211.676 235.72V194.52H220.556V234.04C220.556 235.907 220.983 237.32 221.836 238.28C222.743 239.24 224.05 239.72 225.756 239.72C226.29 239.72 226.876 239.613 227.516 239.4C228.156 239.187 228.876 238.787 229.676 238.2L232.956 245C231.57 245.96 230.183 246.68 228.796 247.16C227.41 247.693 226.023 247.96 224.636 247.96ZM205.036 214.68V207H231.356V214.68H205.036ZM252.842 247.96C248.629 247.96 245.402 246.92 243.162 244.84C240.976 242.707 239.882 239.667 239.882 235.72V194.52H248.762V234.04C248.762 235.907 249.189 237.32 250.042 238.28C250.949 239.24 252.256 239.72 253.962 239.72C254.496 239.72 255.082 239.613 255.722 239.4C256.362 239.187 257.082 238.787 257.882 238.2L261.162 245C259.776 245.96 258.389 246.68 257.002 247.16C255.616 247.693 254.229 247.96 252.842 247.96ZM233.242 214.68V207H259.562V214.68H233.242ZM282.422 247.96C278.529 247.96 275.062 247.08 272.022 245.32C269.035 243.507 266.662 241.027 264.902 237.88C263.195 234.733 262.342 231.107 262.342 227C262.342 222.893 263.222 219.267 264.982 216.12C266.742 212.973 269.142 210.52 272.182 208.76C275.275 206.947 278.795 206.04 282.742 206.04C286.315 206.04 289.542 206.973 292.422 208.84C295.302 210.653 297.569 213.293 299.222 216.76C300.929 220.227 301.782 224.36 301.782 229.16H270.342L271.542 228.04C271.542 230.493 272.075 232.627 273.142 234.44C274.209 236.2 275.622 237.56 277.382 238.52C279.142 239.48 281.089 239.96 283.222 239.96C285.675 239.96 287.702 239.427 289.302 238.36C290.902 237.24 292.155 235.8 293.062 234.04L300.982 237.4C299.862 239.533 298.422 241.4 296.662 243C294.955 244.6 292.902 245.827 290.502 246.68C288.155 247.533 285.462 247.96 282.422 247.96ZM272.102 223.4L270.822 222.28H293.382L292.182 223.4C292.182 221.213 291.702 219.427 290.742 218.04C289.782 216.6 288.555 215.533 287.062 214.84C285.622 214.093 284.102 213.72 282.502 213.72C280.902 213.72 279.302 214.093 277.702 214.84C276.102 215.533 274.769 216.6 273.702 218.04C272.635 219.427 272.102 221.213 272.102 223.4ZM311.364 225.72C311.364 221.4 312.191 217.853 313.844 215.08C315.498 212.307 317.631 210.253 320.244 208.92C322.911 207.533 325.684 206.84 328.564 206.84V215.4C326.111 215.4 323.791 215.747 321.604 216.44C319.471 217.08 317.738 218.147 316.404 219.64C315.071 221.133 314.404 223.107 314.404 225.56L311.364 225.72ZM305.444 247V207H314.404V247H305.444ZM345.867 247.96C343.2 247.96 340.747 247.56 338.507 246.76C336.267 245.96 334.347 244.84 332.747 243.4C331.147 241.907 329.92 240.173 329.067 238.2L336.827 234.76C337.627 236.253 338.8 237.507 340.347 238.52C341.947 239.533 343.707 240.04 345.627 240.04C347.707 240.04 349.36 239.693 350.587 239C351.867 238.253 352.507 237.24 352.507 235.96C352.507 234.733 352.027 233.8 351.067 233.16C350.107 232.467 348.747 231.907 346.987 231.48L343.227 230.44C339.44 229.48 336.48 227.96 334.347 225.88C332.214 223.747 331.147 221.32 331.147 218.6C331.147 214.6 332.427 211.507 334.987 209.32C337.6 207.133 341.334 206.04 346.187 206.04C348.64 206.04 350.88 206.413 352.907 207.16C354.987 207.853 356.774 208.867 358.267 210.2C359.76 211.48 360.8 213 361.387 214.76L353.947 218.12C353.414 216.787 352.4 215.773 350.907 215.08C349.414 214.333 347.76 213.96 345.947 213.96C344.134 213.96 342.72 214.36 341.707 215.16C340.694 215.907 340.187 216.973 340.187 218.36C340.187 219.16 340.64 219.907 341.547 220.6C342.454 221.24 343.76 221.773 345.467 222.2L350.187 223.32C352.8 223.96 354.934 224.973 356.587 226.36C358.24 227.693 359.467 229.213 360.267 230.92C361.067 232.573 361.467 234.253 361.467 235.96C361.467 238.36 360.774 240.467 359.387 242.28C358.054 244.093 356.214 245.507 353.867 246.52C351.52 247.48 348.854 247.96 345.867 247.96ZM385.469 247V202.76C385.469 198.547 386.509 195.32 388.589 193.08C390.723 190.787 393.923 189.64 398.189 189.64C399.576 189.64 401.043 189.88 402.589 190.36C404.189 190.787 405.709 191.373 407.149 192.12L403.869 198.76C402.856 198.28 401.949 197.933 401.149 197.72C400.403 197.507 399.736 197.4 399.149 197.4C397.549 197.4 396.349 197.933 395.549 199C394.803 200.013 394.429 201.693 394.429 204.04V247H385.469ZM378.589 214.36V207H404.909V214.36H378.589ZM426.669 247.96C422.669 247.96 419.096 247.08 415.949 245.32C412.856 243.507 410.429 241.027 408.669 237.88C406.909 234.733 406.029 231.107 406.029 227C406.029 222.893 406.883 219.267 408.589 216.12C410.349 212.973 412.776 210.52 415.869 208.76C418.963 206.947 422.509 206.04 426.509 206.04C430.509 206.04 434.056 206.947 437.149 208.76C440.243 210.52 442.643 212.973 444.349 216.12C446.109 219.267 446.989 222.893 446.989 227C446.989 231.107 446.136 234.733 444.429 237.88C442.723 241.027 440.323 243.507 437.229 245.32C434.136 247.08 430.616 247.96 426.669 247.96ZM426.669 239.72C428.856 239.72 430.803 239.187 432.509 238.12C434.216 237 435.549 235.507 436.509 233.64C437.469 231.72 437.949 229.507 437.949 227C437.949 224.493 437.443 222.307 436.429 220.44C435.469 218.52 434.136 217.027 432.429 215.96C430.723 214.84 428.749 214.28 426.509 214.28C424.269 214.28 422.296 214.813 420.589 215.88C418.883 216.947 417.549 218.44 416.589 220.36C415.629 222.28 415.149 224.493 415.149 227C415.149 229.507 415.629 231.72 416.589 233.64C417.603 235.507 418.963 237 420.669 238.12C422.429 239.187 424.429 239.72 426.669 239.72ZM457.474 225.72C457.474 221.4 458.3 217.853 459.954 215.08C461.607 212.307 463.74 210.253 466.354 208.92C469.02 207.533 471.794 206.84 474.674 206.84V215.4C472.22 215.4 469.9 215.747 467.714 216.44C465.58 217.08 463.847 218.147 462.514 219.64C461.18 221.133 460.514 223.107 460.514 225.56L457.474 225.72ZM451.554 247V207H460.514V247H451.554ZM106.64 327V271H124.24C129.733 271 134.587 272.2 138.8 274.6C143.067 276.947 146.4 280.227 148.8 284.44C151.253 288.653 152.48 293.507 152.48 299C152.48 304.44 151.253 309.267 148.8 313.48C146.4 317.693 143.067 321 138.8 323.4C134.587 325.8 129.733 327 124.24 327H106.64ZM115.92 318.36H124.24C126.853 318.36 129.307 317.88 131.6 316.92C133.893 315.907 135.893 314.52 137.6 312.76C139.307 311 140.64 308.947 141.6 306.6C142.56 304.253 143.04 301.72 143.04 299C143.04 296.28 142.56 293.747 141.6 291.4C140.64 289.053 139.307 287 137.6 285.24C135.893 283.48 133.893 282.12 131.6 281.16C129.307 280.147 126.853 279.64 124.24 279.64H115.92V318.36ZM175.225 327.96C171.332 327.96 167.865 327.08 164.825 325.32C161.838 323.507 159.465 321.027 157.705 317.88C155.998 314.733 155.145 311.107 155.145 307C155.145 302.893 156.025 299.267 157.785 296.12C159.545 292.973 161.945 290.52 164.985 288.76C168.078 286.947 171.598 286.04 175.545 286.04C179.118 286.04 182.345 286.973 185.225 288.84C188.105 290.653 190.372 293.293 192.025 296.76C193.732 300.227 194.585 304.36 194.585 309.16H163.145L164.345 308.04C164.345 310.493 164.878 312.627 165.945 314.44C167.012 316.2 168.425 317.56 170.185 318.52C171.945 319.48 173.892 319.96 176.025 319.96C178.478 319.96 180.505 319.427 182.105 318.36C183.705 317.24 184.958 315.8 185.865 314.04L193.785 317.4C192.665 319.533 191.225 321.4 189.465 323C187.758 324.6 185.705 325.827 183.305 326.68C180.958 327.533 178.265 327.96 175.225 327.96ZM164.905 303.4L163.625 302.28H186.185L184.985 303.4C184.985 301.213 184.505 299.427 183.545 298.04C182.585 296.6 181.358 295.533 179.865 294.84C178.425 294.093 176.905 293.72 175.305 293.72C173.705 293.72 172.105 294.093 170.505 294.84C168.905 295.533 167.572 296.6 166.505 298.04C165.438 299.427 164.905 301.213 164.905 303.4ZM209.643 327L225.243 287H234.523L218.043 327H209.643ZM209.003 327L192.443 287H201.643L217.323 327H209.003ZM253.669 327.96C249.775 327.96 246.309 327.08 243.269 325.32C240.282 323.507 237.909 321.027 236.149 317.88C234.442 314.733 233.589 311.107 233.589 307C233.589 302.893 234.469 299.267 236.229 296.12C237.989 292.973 240.389 290.52 243.429 288.76C246.522 286.947 250.042 286.04 253.989 286.04C257.562 286.04 260.789 286.973 263.669 288.84C266.549 290.653 268.815 293.293 270.469 296.76C272.175 300.227 273.029 304.36 273.029 309.16H241.589L242.789 308.04C242.789 310.493 243.322 312.627 244.389 314.44C245.455 316.2 246.869 317.56 248.629 318.52C250.389 319.48 252.335 319.96 254.469 319.96C256.922 319.96 258.949 319.427 260.549 318.36C262.149 317.24 263.402 315.8 264.309 314.04L272.229 317.4C271.109 319.533 269.669 321.4 267.909 323C266.202 324.6 264.149 325.827 261.749 326.68C259.402 327.533 256.709 327.96 253.669 327.96ZM243.349 303.4L242.069 302.28H264.629L263.429 303.4C263.429 301.213 262.949 299.427 261.989 298.04C261.029 296.6 259.802 295.533 258.309 294.84C256.869 294.093 255.349 293.72 253.749 293.72C252.149 293.72 250.549 294.093 248.949 294.84C247.349 295.533 246.015 296.6 244.949 298.04C243.882 299.427 243.349 301.213 243.349 303.4ZM276.691 327V271H285.651V327H276.691ZM310.798 327.96C306.798 327.96 303.224 327.08 300.078 325.32C296.984 323.507 294.558 321.027 292.798 317.88C291.038 314.733 290.158 311.107 290.158 307C290.158 302.893 291.011 299.267 292.717 296.12C294.478 292.973 296.904 290.52 299.998 288.76C303.091 286.947 306.638 286.04 310.638 286.04C314.638 286.04 318.184 286.947 321.278 288.76C324.371 290.52 326.771 292.973 328.478 296.12C330.238 299.267 331.118 302.893 331.118 307C331.118 311.107 330.264 314.733 328.557 317.88C326.851 321.027 324.451 323.507 321.358 325.32C318.264 327.08 314.744 327.96 310.798 327.96ZM310.798 319.72C312.984 319.72 314.931 319.187 316.638 318.12C318.344 317 319.678 315.507 320.638 313.64C321.598 311.72 322.078 309.507 322.078 307C322.078 304.493 321.571 302.307 320.558 300.44C319.598 298.52 318.264 297.027 316.558 295.96C314.851 294.84 312.878 294.28 310.638 294.28C308.398 294.28 306.424 294.813 304.718 295.88C303.011 296.947 301.678 298.44 300.718 300.36C299.758 302.28 299.278 304.493 299.278 307C299.278 309.507 299.758 311.72 300.718 313.64C301.731 315.507 303.091 317 304.798 318.12C306.558 319.187 308.558 319.72 310.798 319.72ZM336.082 343V287H344.482L345.042 294.36V343H336.082ZM357.682 327.96C354.322 327.96 351.415 327.107 348.962 325.4C346.562 323.64 344.722 321.187 343.442 318.04C342.162 314.893 341.522 311.213 341.522 307C341.522 302.733 342.162 299.053 343.442 295.96C344.722 292.813 346.562 290.387 348.962 288.68C351.415 286.92 354.322 286.04 357.682 286.04C361.309 286.04 364.455 286.92 367.122 288.68C369.842 290.387 371.949 292.813 373.442 295.96C374.989 299.053 375.762 302.733 375.762 307C375.762 311.213 374.989 314.893 373.442 318.04C371.949 321.187 369.842 323.64 367.122 325.4C364.455 327.107 361.309 327.96 357.682 327.96ZM355.442 319.8C357.575 319.8 359.469 319.267 361.122 318.2C362.775 317.08 364.082 315.56 365.042 313.64C366.055 311.72 366.562 309.507 366.562 307C366.562 304.493 366.082 302.28 365.122 300.36C364.215 298.44 362.935 296.947 361.282 295.88C359.629 294.813 357.709 294.28 355.522 294.28C353.495 294.28 351.682 294.813 350.082 295.88C348.482 296.947 347.229 298.44 346.322 300.36C345.469 302.28 345.042 304.493 345.042 307C345.042 309.507 345.469 311.72 346.322 313.64C347.229 315.56 348.455 317.08 350.002 318.2C351.602 319.267 353.415 319.8 355.442 319.8ZM398.056 327.96C394.163 327.96 390.696 327.08 387.656 325.32C384.67 323.507 382.296 321.027 380.536 317.88C378.83 314.733 377.976 311.107 377.976 307C377.976 302.893 378.856 299.267 380.616 296.12C382.376 292.973 384.776 290.52 387.816 288.76C390.91 286.947 394.43 286.04 398.376 286.04C401.95 286.04 405.176 286.973 408.056 288.84C410.936 290.653 413.203 293.293 414.856 296.76C416.563 300.227 417.416 304.36 417.416 309.16H385.976L387.176 308.04C387.176 310.493 387.71 312.627 388.776 314.44C389.843 316.2 391.256 317.56 393.016 318.52C394.776 319.48 396.723 319.96 398.856 319.96C401.31 319.96 403.336 319.427 404.936 318.36C406.536 317.24 407.79 315.8 408.696 314.04L416.616 317.4C415.496 319.533 414.056 321.4 412.296 323C410.59 324.6 408.536 325.827 406.136 326.68C403.79 327.533 401.096 327.96 398.056 327.96ZM387.736 303.4L386.456 302.28H409.016L407.816 303.4C407.816 301.213 407.336 299.427 406.376 298.04C405.416 296.6 404.19 295.533 402.696 294.84C401.256 294.093 399.736 293.72 398.136 293.72C396.536 293.72 394.936 294.093 393.336 294.84C391.736 295.533 390.403 296.6 389.336 298.04C388.27 299.427 387.736 301.213 387.736 303.4ZM426.999 305.72C426.999 301.4 427.825 297.853 429.479 295.08C431.132 292.307 433.265 290.253 435.879 288.92C438.545 287.533 441.319 286.84 444.199 286.84V295.4C441.745 295.4 439.425 295.747 437.239 296.44C435.105 297.08 433.372 298.147 432.039 299.64C430.705 301.133 430.039 303.107 430.039 305.56L426.999 305.72ZM421.079 327V287H430.039V327H421.079ZM461.501 327.96C458.835 327.96 456.381 327.56 454.141 326.76C451.901 325.96 449.981 324.84 448.381 323.4C446.781 321.907 445.555 320.173 444.701 318.2L452.461 314.76C453.261 316.253 454.435 317.507 455.981 318.52C457.581 319.533 459.341 320.04 461.261 320.04C463.341 320.04 464.995 319.693 466.221 319C467.501 318.253 468.141 317.24 468.141 315.96C468.141 314.733 467.661 313.8 466.701 313.16C465.741 312.467 464.381 311.907 462.621 311.48L458.861 310.44C455.075 309.48 452.115 307.96 449.981 305.88C447.848 303.747 446.781 301.32 446.781 298.6C446.781 294.6 448.061 291.507 450.621 289.32C453.235 287.133 456.968 286.04 461.821 286.04C464.275 286.04 466.515 286.413 468.541 287.16C470.621 287.853 472.408 288.867 473.901 290.2C475.395 291.48 476.435 293 477.021 294.76L469.581 298.12C469.048 296.787 468.035 295.773 466.541 295.08C465.048 294.333 463.395 293.96 461.581 293.96C459.768 293.96 458.355 294.36 457.341 295.16C456.328 295.907 455.821 296.973 455.821 298.36C455.821 299.16 456.275 299.907 457.181 300.6C458.088 301.24 459.395 301.773 461.101 302.2L465.821 303.32C468.435 303.96 470.568 304.973 472.221 306.36C473.875 307.693 475.101 309.213 475.901 310.92C476.701 312.573 477.101 314.253 477.101 315.96C477.101 318.36 476.408 320.467 475.021 322.28C473.688 324.093 471.848 325.507 469.501 326.52C467.155 327.48 464.488 327.96 461.501 327.96Z" fill="url(#paint1_linear_2_98)"/>
<path d="M109.683 545.72C111.603 545.72 113.246 546.115 114.611 546.904C115.977 547.672 117.011 548.707 117.715 550.008C118.441 551.288 118.803 552.696 118.803 554.232C118.803 555.981 118.462 557.539 117.779 558.904C117.097 560.269 116.115 561.336 114.835 562.104C113.555 562.872 112.009 563.256 110.195 563.256C108.169 563.256 106.473 562.861 105.107 562.072C103.763 561.283 102.75 560.227 102.067 558.904C101.406 557.56 101.075 556.067 101.075 554.424C101.075 552.76 101.438 551.277 102.163 549.976C102.889 548.653 103.891 547.619 105.171 546.872C106.473 546.104 107.977 545.72 109.683 545.72ZM110.163 560.92C111.102 560.92 111.881 560.621 112.499 560.024C113.118 559.427 113.587 558.648 113.907 557.688C114.227 556.728 114.387 555.693 114.387 554.584C114.387 553.773 114.313 552.984 114.163 552.216C114.035 551.427 113.801 550.723 113.459 550.104C113.118 549.464 112.638 548.952 112.019 548.568C111.422 548.184 110.654 547.992 109.715 547.992C108.798 547.992 108.019 548.269 107.379 548.824C106.761 549.379 106.291 550.115 105.971 551.032C105.651 551.949 105.491 552.963 105.491 554.072C105.491 554.861 105.555 555.661 105.683 556.472C105.811 557.283 106.046 558.029 106.387 558.712C106.729 559.373 107.198 559.907 107.795 560.312C108.414 560.717 109.203 560.92 110.163 560.92ZM141.082 548.056L138.81 547.736L139.162 546.04H146.138V547.16L143.642 548.12L139.354 563H136.474L132.314 552.344L128.538 563H125.338L120.41 548.056L118.01 547.64L118.33 546.04H127.546V547.16L124.986 547.96L127.898 557.656L132.058 546.04H134.234L138.458 557.08L141.082 548.056ZM149.034 555.448C149.034 556.664 149.301 557.645 149.834 558.392C150.368 559.139 151.082 559.693 151.978 560.056C152.896 560.397 153.888 560.568 154.954 560.568C155.701 560.568 156.48 560.44 157.29 560.184C158.122 559.928 158.944 559.533 159.754 559L160.778 560.856C159.733 561.667 158.602 562.275 157.386 562.68C156.17 563.085 155.029 563.288 153.962 563.288C152.746 563.288 151.573 563.128 150.442 562.808C149.312 562.488 148.298 561.987 147.402 561.304C146.506 560.621 145.792 559.736 145.258 558.648C144.746 557.539 144.49 556.195 144.49 554.616C144.49 552.973 144.768 551.587 145.322 550.456C145.898 549.325 146.634 548.419 147.53 547.736C148.426 547.053 149.408 546.563 150.474 546.264C151.541 545.944 152.565 545.784 153.546 545.784C155.36 545.784 156.821 546.221 157.93 547.096C159.061 547.971 159.893 549.144 160.426 550.616C160.96 552.067 161.226 553.677 161.226 555.448H149.034ZM157.514 552.824C157.514 551.693 157.322 550.797 156.938 550.136C156.554 549.453 156.064 548.963 155.466 548.664C154.869 548.344 154.25 548.184 153.61 548.184C152.885 548.184 152.181 548.355 151.498 548.696C150.837 549.037 150.282 549.549 149.834 550.232C149.408 550.915 149.173 551.779 149.13 552.824H157.514ZM162.099 548.312L161.939 546.68L169.171 545.656V548.312C169.896 547.437 170.782 546.797 171.827 546.392C172.872 545.965 173.832 545.752 174.707 545.752C175.731 545.752 176.734 545.944 177.715 546.328C178.696 546.691 179.507 547.299 180.147 548.152C180.808 549.005 181.15 550.168 181.171 551.64V560.856L183.571 561.304L183.251 563H174.195V561.88L176.691 560.92V552.92C176.691 551.555 176.478 550.563 176.051 549.944C175.624 549.325 174.814 549.016 173.619 549.016C172.766 549.016 171.912 549.176 171.059 549.496C170.227 549.816 169.598 550.221 169.171 550.712V560.856L171.571 561.304L171.251 563H161.875V561.88L164.691 560.92V548.792L162.099 548.312ZM183.117 548.344L182.957 546.712L190.189 545.688V547.832C190.914 547.171 191.65 546.659 192.397 546.296C193.143 545.933 194.018 545.752 195.021 545.752C196.429 545.752 197.698 546.072 198.829 546.712C199.981 547.331 200.898 548.259 201.581 549.496C202.263 550.733 202.605 552.269 202.605 554.104C202.605 555.64 202.359 556.984 201.869 558.136C201.378 559.288 200.706 560.259 199.853 561.048C199.021 561.816 198.082 562.392 197.037 562.776C195.991 563.16 194.914 563.352 193.805 563.352C193.165 563.352 192.546 563.277 191.949 563.128C191.373 563 190.786 562.712 190.189 562.264V568.152L193.517 568.6L193.197 570.296H182.893V569.176L185.709 568.216V548.824L183.117 548.344ZM194.413 548.472C193.73 548.472 193.015 548.653 192.269 549.016C191.543 549.357 190.85 549.816 190.189 550.392V559.288C191.277 560.397 192.407 560.952 193.581 560.952C194.477 560.952 195.266 560.664 195.949 560.088C196.631 559.491 197.165 558.723 197.549 557.784C197.933 556.845 198.125 555.843 198.125 554.776C198.125 553.795 198.007 552.824 197.773 551.864C197.538 550.883 197.154 550.072 196.621 549.432C196.087 548.792 195.351 548.472 194.413 548.472ZM209.333 555.448C209.333 556.664 209.6 557.645 210.133 558.392C210.666 559.139 211.381 559.693 212.277 560.056C213.194 560.397 214.186 560.568 215.253 560.568C216 560.568 216.778 560.44 217.589 560.184C218.421 559.928 219.242 559.533 220.053 559L221.077 560.856C220.032 561.667 218.901 562.275 217.685 562.68C216.469 563.085 215.328 563.288 214.261 563.288C213.045 563.288 211.872 563.128 210.741 562.808C209.61 562.488 208.597 561.987 207.701 561.304C206.805 560.621 206.09 559.736 205.557 558.648C205.045 557.539 204.789 556.195 204.789 554.616C204.789 552.973 205.066 551.587 205.621 550.456C206.197 549.325 206.933 548.419 207.829 547.736C208.725 547.053 209.706 546.563 210.773 546.264C211.84 545.944 212.864 545.784 213.845 545.784C215.658 545.784 217.12 546.221 218.229 547.096C219.36 547.971 220.192 549.144 220.725 550.616C221.258 552.067 221.525 553.677 221.525 555.448H209.333ZM217.813 552.824C217.813 551.693 217.621 550.797 217.237 550.136C216.853 549.453 216.362 548.963 215.765 548.664C215.168 548.344 214.549 548.184 213.909 548.184C213.184 548.184 212.48 548.355 211.797 548.696C211.136 549.037 210.581 549.549 210.133 550.232C209.706 550.915 209.472 551.779 209.429 552.824H217.813ZM234.801 548.696C234.438 548.461 234.065 548.301 233.681 548.216C233.297 548.131 232.924 548.088 232.561 548.088C231.644 548.088 230.801 548.365 230.033 548.92C229.265 549.475 228.657 550.211 228.209 551.128C227.761 552.045 227.537 553.048 227.537 554.136C227.537 555.267 227.708 556.344 228.049 557.368C228.39 558.392 228.934 559.224 229.681 559.864C230.449 560.483 231.452 560.792 232.689 560.792C233.414 560.792 234.161 560.653 234.929 560.376C235.697 560.077 236.412 559.683 237.073 559.192L238.065 560.888C237.212 561.699 236.273 562.317 235.249 562.744C234.225 563.149 233.169 563.352 232.081 563.352C230.993 563.352 229.916 563.192 228.849 562.872C227.804 562.552 226.844 562.051 225.969 561.368C225.094 560.664 224.401 559.736 223.889 558.584C223.377 557.432 223.121 556.024 223.121 554.36C223.121 552.781 223.42 551.448 224.017 550.36C224.614 549.272 225.382 548.387 226.321 547.704C227.281 547.021 228.305 546.531 229.393 546.232C230.502 545.912 231.558 545.752 232.561 545.752C234.353 545.752 236.049 546.253 237.649 547.256V551.832L235.729 552.216L234.801 548.696ZM239.418 541.336L239.258 539.704L246.49 538.68V548.312C247.215 547.437 248.1 546.797 249.146 546.392C250.191 545.965 251.151 545.752 252.026 545.752C253.05 545.752 254.052 545.944 255.034 546.328C256.015 546.691 256.826 547.299 257.466 548.152C258.127 549.005 258.468 550.168 258.49 551.64V560.856L260.89 561.304L260.57 563H251.514V561.88L254.01 560.92V552.92C254.01 551.555 253.796 550.563 253.37 549.944C252.943 549.325 252.132 549.016 250.938 549.016C250.084 549.016 249.231 549.176 248.378 549.496C247.546 549.816 246.916 550.221 246.49 550.712V560.856L248.89 561.304L248.57 563H239.194V561.88L242.01 560.92V541.816L239.418 541.336ZM269.782 545.72C271.702 545.72 273.345 546.115 274.71 546.904C276.075 547.672 277.11 548.707 277.814 550.008C278.539 551.288 278.902 552.696 278.902 554.232C278.902 555.981 278.561 557.539 277.878 558.904C277.195 560.269 276.214 561.336 274.934 562.104C273.654 562.872 272.107 563.256 270.294 563.256C268.267 563.256 266.571 562.861 265.206 562.072C263.862 561.283 262.849 560.227 262.166 558.904C261.505 557.56 261.174 556.067 261.174 554.424C261.174 552.76 261.537 551.277 262.262 549.976C262.987 548.653 263.99 547.619 265.27 546.872C266.571 546.104 268.075 545.72 269.782 545.72ZM270.262 560.92C271.201 560.92 271.979 560.621 272.598 560.024C273.217 559.427 273.686 558.648 274.006 557.688C274.326 556.728 274.486 555.693 274.486 554.584C274.486 553.773 274.411 552.984 274.262 552.216C274.134 551.427 273.899 550.723 273.558 550.104C273.217 549.464 272.737 548.952 272.118 548.568C271.521 548.184 270.753 547.992 269.814 547.992C268.897 547.992 268.118 548.269 267.478 548.824C266.859 549.379 266.39 550.115 266.07 551.032C265.75 551.949 265.59 552.963 265.59 554.072C265.59 554.861 265.654 555.661 265.782 556.472C265.91 557.283 266.145 558.029 266.486 558.712C266.827 559.373 267.297 559.907 267.894 560.312C268.513 560.717 269.302 560.92 270.262 560.92ZM279.326 547.736L279.646 546.04H286.206V556.248C286.206 557.613 286.419 558.605 286.846 559.224C287.294 559.843 288.105 560.152 289.278 560.152C290.131 560.152 290.985 560.003 291.838 559.704C292.691 559.405 293.321 559.011 293.726 558.52V548.184L291.326 547.736L291.646 546.04H298.206V560.504L300.798 560.984L300.958 562.616L293.726 563.384V560.6C293.001 561.475 292.115 562.147 291.07 562.616C290.025 563.064 289.065 563.288 288.19 563.288C287.166 563.288 286.163 563.107 285.182 562.744C284.201 562.36 283.39 561.741 282.75 560.888C282.11 560.035 281.769 558.872 281.726 557.4V548.184L279.326 547.736ZM306.018 560.632C306.338 560.781 306.732 560.909 307.202 561.016C307.671 561.123 308.151 561.176 308.642 561.176C309.474 561.176 310.231 561.005 310.914 560.664C311.596 560.301 311.948 559.693 311.97 558.84C311.991 558.328 311.788 557.901 311.362 557.56C310.935 557.219 310.38 556.909 309.698 556.632C309.036 556.333 308.311 556.024 307.522 555.704C306.754 555.384 306.028 555 305.346 554.552C304.663 554.104 304.098 553.549 303.65 552.888C303.223 552.205 303.01 551.363 303.01 550.36C303.01 549.229 303.362 548.333 304.066 547.672C304.77 546.989 305.666 546.509 306.754 546.232C307.842 545.933 308.962 545.784 310.114 545.784C311.159 545.784 312.151 545.891 313.09 546.104C314.05 546.296 314.818 546.552 315.394 546.872V551.288L313.41 551.64L312.578 548.44C312.215 548.333 311.874 548.237 311.554 548.152C311.255 548.067 310.85 548.024 310.338 548.024C309.527 548.024 308.823 548.195 308.226 548.536C307.65 548.856 307.362 549.304 307.362 549.88C307.362 550.499 307.575 551.021 308.002 551.448C308.45 551.875 309.015 552.248 309.698 552.568C310.402 552.888 311.138 553.219 311.906 553.56C312.674 553.88 313.399 554.253 314.082 554.68C314.786 555.107 315.351 555.629 315.778 556.248C316.226 556.845 316.45 557.603 316.45 558.52C316.45 559.736 316.098 560.696 315.394 561.4C314.69 562.104 313.772 562.616 312.642 562.936C311.532 563.235 310.359 563.384 309.122 563.384C307.927 563.384 306.754 563.256 305.602 563C304.471 562.765 303.5 562.488 302.69 562.168V557.784L305.154 557.4L306.018 560.632ZM318.492 560.664C319.175 559.405 320.167 558.435 321.468 557.752C322.727 558.435 323.676 559.384 324.316 560.6C323.612 561.837 322.631 562.808 321.372 563.512C320.092 562.851 319.132 561.901 318.492 560.664ZM338.273 548.696C337.911 548.461 337.537 548.301 337.153 548.216C336.769 548.131 336.396 548.088 336.033 548.088C335.116 548.088 334.273 548.365 333.505 548.92C332.737 549.475 332.129 550.211 331.681 551.128C331.233 552.045 331.009 553.048 331.009 554.136C331.009 555.267 331.18 556.344 331.521 557.368C331.863 558.392 332.407 559.224 333.153 559.864C333.921 560.483 334.924 560.792 336.161 560.792C336.887 560.792 337.633 560.653 338.401 560.376C339.169 560.077 339.884 559.683 340.545 559.192L341.537 560.888C340.684 561.699 339.745 562.317 338.721 562.744C337.697 563.149 336.641 563.352 335.553 563.352C334.465 563.352 333.388 563.192 332.321 562.872C331.276 562.552 330.316 562.051 329.441 561.368C328.567 560.664 327.873 559.736 327.361 558.584C326.849 557.432 326.593 556.024 326.593 554.36C326.593 552.781 326.892 551.448 327.489 550.36C328.087 549.272 328.855 548.387 329.793 547.704C330.753 547.021 331.777 546.531 332.865 546.232C333.975 545.912 335.031 545.752 336.033 545.752C337.825 545.752 339.521 546.253 341.121 547.256V551.832L339.201 552.216L338.273 548.696ZM351.301 545.72C353.221 545.72 354.864 546.115 356.229 546.904C357.594 547.672 358.629 548.707 359.333 550.008C360.058 551.288 360.421 552.696 360.421 554.232C360.421 555.981 360.08 557.539 359.397 558.904C358.714 560.269 357.733 561.336 356.453 562.104C355.173 562.872 353.626 563.256 351.813 563.256C349.786 563.256 348.09 562.861 346.725 562.072C345.381 561.283 344.368 560.227 343.685 558.904C343.024 557.56 342.693 556.067 342.693 554.424C342.693 552.76 343.056 551.277 343.781 549.976C344.506 548.653 345.509 547.619 346.789 546.872C348.09 546.104 349.594 545.72 351.301 545.72ZM351.781 560.92C352.72 560.92 353.498 560.621 354.117 560.024C354.736 559.427 355.205 558.648 355.525 557.688C355.845 556.728 356.005 555.693 356.005 554.584C356.005 553.773 355.93 552.984 355.781 552.216C355.653 551.427 355.418 550.723 355.077 550.104C354.736 549.464 354.256 548.952 353.637 548.568C353.04 548.184 352.272 547.992 351.333 547.992C350.416 547.992 349.637 548.269 348.997 548.824C348.378 549.379 347.909 550.115 347.589 551.032C347.269 551.949 347.109 552.963 347.109 554.072C347.109 554.861 347.173 555.661 347.301 556.472C347.429 557.283 347.664 558.029 348.005 558.712C348.346 559.373 348.816 559.907 349.413 560.312C350.032 560.717 350.821 560.92 351.781 560.92ZM361.311 548.312L361.151 546.68L368.383 545.656V548.344C369.108 547.469 369.994 546.819 371.039 546.392C372.084 545.965 373.044 545.752 373.919 545.752C375.071 545.752 376.202 545.976 377.311 546.424C378.42 546.872 379.242 547.672 379.775 548.824C380.671 547.821 381.642 547.064 382.687 546.552C383.754 546.019 384.81 545.752 385.855 545.752C386.879 545.752 387.882 545.944 388.863 546.328C389.844 546.691 390.655 547.299 391.295 548.152C391.956 549.005 392.298 550.168 392.319 551.64V560.856L394.719 561.304L394.399 563H385.343V561.88L387.839 560.92V552.92C387.839 551.555 387.626 550.563 387.199 549.944C386.772 549.325 385.962 549.016 384.767 549.016C383.914 549.016 383.06 549.197 382.207 549.56C381.354 549.901 380.714 550.317 380.287 550.808C380.308 550.957 380.33 551.107 380.351 551.256C380.372 551.384 380.383 551.533 380.383 551.704V560.856L382.783 561.304L382.463 563H373.407V561.88L375.903 560.92V552.92C375.903 551.555 375.69 550.563 375.263 549.944C374.836 549.325 374.026 549.016 372.831 549.016C371.978 549.016 371.124 549.176 370.271 549.496C369.439 549.816 368.81 550.221 368.383 550.712V560.856L370.783 561.304L370.463 563H361.087V561.88L363.903 560.92V548.792L361.311 548.312Z" fill="white"/>
</g>
<defs>
<filter id="filter0_f_2_98" x="-179.5" y="-100.368" width="1479" height="830" filterUnits="userSpaceOnUse" color-interpolation-filters="sRGB">
<feFlood flood-opacity="0" result="BackgroundImageFix"/>
<feBlend mode="normal" in="SourceGraphic" in2="BackgroundImageFix" result="shape"/>
<feGaussianBlur stdDeviation="50" result="effect1_foregroundBlur_2_98"/>
</filter>
<filter id="filter1_f_2_98" x="284.641" y="-329.995" width="1118.63" height="1002.47" filterUnits="userSpaceOnUse" color-interpolation-filters="sRGB">
<feFlood flood-opacity="0" result="BackgroundImageFix"/>
<feBlend mode="normal" in="SourceGraphic" in2="BackgroundImageFix" result="shape"/>
<feGaussianBlur stdDeviation="50" result="effect1_foregroundBlur_2_98"/>
</filter>
<filter id="filter2_f_2_98" x="-100" y="-100" width="1400" height="830" filterUnits="userSpaceOnUse" color-interpolation-filters="sRGB">
<feFlood flood-opacity="0" result="BackgroundImageFix"/>
<feBlend mode="normal" in="SourceGraphic" in2="BackgroundImageFix" result="shape"/>
<feGaussianBlur stdDeviation="50" result="effect1_foregroundBlur_2_98"/>
</filter>
<radialGradient id="paint0_radial_2_98" cx="0" cy="0" r="1" gradientUnits="userSpaceOnUse" gradientTransform="translate(1987.38 630) rotate(142.144) scale(954.187 1212.46)">
<stop stop-opacity="0"/>
<stop offset="0.487941" stop-opacity="0"/>
<stop offset="0.753472" stop-color="#D9D2C0"/>
<stop offset="1" stop-color="#BFA86A"/>
</radialGradient>
<linearGradient id="paint1_linear_2_98" x1="194.096" y1="99" x2="414.812" y2="159.704" gradientUnits="userSpaceOnUse">
<stop stop-color="white"/>
<stop offset="1" stop-color="#FAFAFA"/>
</linearGradient>
<clipPath id="clip0_2_98">
<rect width="1120" height="630" fill="white"/>
</clipPath>
<clipPath id="clip1_2_98">
<rect width="1279" height="630" fill="white" transform="translate(-79.5 -0.368164)"/>
</clipPath>
</defs>
</svg>
